<svg id="svg" version="1.1" xmlns="http://www.w3.org/2000/svg" xmlns:xlink="http://www.w3.org/1999/xlink" width="50" height="50" viewBox="0, 0, 400,400"><g id="svgg"><path id="path0" d="M248.662 111.300 C 248.520 113.115,248.404 148.013,248.402 188.850 C 248.401 229.688,248.286 263.669,248.147 264.364 C 247.694 266.631,248.231 266.581,221.600 266.826 C 197.839 267.044,192.800 267.313,192.800 268.359 C 192.800 268.521,192.035 269.075,191.100 269.592 C 187.676 271.485,183.516 275.427,182.204 278.024 C 181.821 278.781,181.109 279.850,180.621 280.400 C 179.512 281.648,177.756 289.116,178.416 289.776 C 178.906 290.266,339.502 290.396,341.237 289.908 L 342.275 289.616 341.228 285.440 C 340.652 283.142,339.900 280.934,339.557 280.531 C 339.215 280.129,338.626 279.127,338.250 278.304 C 337.443 276.539,332.220 271.141,330.416 270.208 C 329.724 269.850,328.800 269.200,328.364 268.764 C 326.829 267.229,324.637 267.089,299.800 266.943 C 273.924 266.791,273.201 266.734,272.390 264.777 C 272.050 263.956,271.909 246.051,271.851 196.333 C 271.786 140.221,271.679 128.601,271.212 126.607 C 270.628 124.110,268.184 119.453,266.802 118.202 C 266.361 117.803,266.000 117.162,266.000 116.778 C 266.000 116.393,265.415 115.699,264.700 115.235 C 263.985 114.771,261.977 113.403,260.237 112.196 C 258.497 110.988,256.677 110.000,256.193 110.000 C 255.708 110.000,254.649 109.550,253.838 109.000 C 252.830 108.316,251.820 108.000,250.642 108.000 L 248.919 108.000 248.662 111.300 M59.078 109.903 C 57.084 110.097,56.896 110.764,58.120 113.305 C 58.675 114.457,59.338 116.435,59.593 117.700 C 59.848 118.965,60.183 120.000,60.337 120.000 C 60.492 120.000,60.973 120.675,61.407 121.500 C 62.238 123.079,63.963 125.059,66.900 127.807 C 67.505 128.373,68.000 128.972,68.000 129.138 C 68.000 129.304,68.630 129.667,69.400 129.946 C 70.170 130.224,71.325 130.893,71.966 131.433 C 73.740 132.926,78.133 133.178,102.600 133.191 C 123.294 133.202,124.254 133.236,125.478 133.982 C 128.235 135.664,128.005 129.672,128.137 203.243 C 128.257 270.171,128.345 274.424,129.638 275.780 C 129.837 275.989,130.000 276.464,130.000 276.835 C 130.000 277.467,132.557 281.550,133.240 282.008 C 133.410 282.123,133.738 282.711,133.968 283.315 C 134.198 283.920,134.843 284.588,135.403 284.801 C 135.963 285.014,136.528 285.468,136.660 285.811 C 136.791 286.154,137.572 286.778,138.396 287.198 C 139.219 287.618,140.412 288.382,141.047 288.895 C 141.681 289.408,143.065 290.048,144.122 290.318 C 145.179 290.588,146.533 291.170,147.131 291.613 C 148.500 292.624,150.570 292.331,151.056 291.057 C 151.235 290.586,151.432 255.573,151.493 213.251 C 151.580 152.835,151.711 136.082,152.102 135.282 C 153.064 133.313,153.790 133.253,176.800 133.243 C 202.516 133.232,205.587 133.045,207.382 131.382 C 207.963 130.843,209.235 130.201,210.207 129.957 C 211.366 129.665,212.060 129.241,212.224 128.725 C 212.361 128.292,213.630 126.810,215.044 125.430 C 218.952 121.618,223.061 111.550,221.184 110.390 C 220.028 109.676,66.175 109.214,59.078 109.903 " stroke="none" fill="#f5fbfb" fill-rule="evenodd"></path><path id="path1" d="M0.000 200.000 L 0.000 400.000 200.000 400.000 L 400.000 400.000 400.000 200.000 L 400.000 0.000 200.000 0.000 L 0.000 0.000 0.000 200.000 M255.869 106.217 C 256.347 106.318,257.259 106.838,257.896 107.374 C 258.533 107.910,259.582 108.478,260.227 108.637 C 260.872 108.797,261.940 109.314,262.600 109.786 C 263.260 110.259,264.475 110.991,265.300 111.414 C 266.125 111.836,266.800 112.468,266.800 112.818 C 266.800 113.168,268.126 114.793,269.747 116.430 C 271.824 118.527,272.782 119.818,272.991 120.803 C 273.155 121.571,273.562 122.510,273.896 122.889 C 274.974 124.111,275.119 132.765,275.164 198.389 C 275.203 254.986,275.276 262.248,275.818 262.789 C 276.346 263.318,279.551 263.427,299.714 263.600 C 322.661 263.797,323.020 263.813,324.400 264.659 C 325.170 265.132,326.844 265.732,328.119 265.992 C 329.724 266.319,330.807 266.824,331.633 267.632 C 332.290 268.275,333.035 268.800,333.288 268.800 C 333.541 268.800,334.602 269.520,335.646 270.400 C 336.690 271.280,337.830 272.000,338.180 272.000 C 338.531 272.000,339.021 272.447,339.270 272.994 C 339.519 273.541,340.129 274.255,340.625 274.580 C 341.216 274.967,341.673 275.850,341.949 277.138 C 342.181 278.220,342.721 279.712,343.149 280.453 C 343.577 281.194,344.236 283.240,344.614 285.000 C 344.991 286.760,345.530 288.470,345.811 288.800 C 346.483 289.589,345.072 292.954,343.842 293.494 C 343.339 293.715,309.506 293.905,259.756 293.966 L 176.513 294.069 175.656 292.981 C 175.185 292.382,174.800 291.646,174.800 291.346 C 174.800 291.046,174.632 290.800,174.427 290.800 C 173.696 290.800,173.533 289.162,174.167 288.194 C 174.515 287.663,174.800 286.870,174.800 286.432 C 174.800 285.407,176.628 280.357,177.114 280.041 C 177.317 279.908,177.704 279.126,177.973 278.301 C 178.241 277.477,178.782 276.577,179.173 276.301 C 179.565 276.026,180.253 275.080,180.703 274.200 C 181.506 272.628,183.665 270.777,187.001 268.800 C 187.929 268.250,189.299 267.396,190.044 266.901 C 190.790 266.407,191.760 266.000,192.200 265.996 C 193.646 265.983,194.800 265.516,194.800 264.943 C 194.800 263.792,197.214 263.659,220.378 263.532 C 237.899 263.436,244.168 263.280,244.456 262.932 C 244.707 262.630,244.834 234.681,244.813 184.661 C 244.786 122.013,244.879 106.797,245.290 106.540 C 246.385 105.855,253.159 105.648,255.869 106.217 M223.869 106.505 C 224.127 106.672,224.458 107.355,224.605 108.022 C 224.751 108.689,225.260 109.600,225.736 110.046 C 226.530 110.791,226.546 110.896,225.933 111.348 C 225.566 111.618,225.144 112.551,224.995 113.420 C 224.605 115.697,223.877 117.753,223.339 118.099 C 223.084 118.264,222.642 119.305,222.358 120.413 C 221.792 122.623,217.407 128.554,216.012 128.996 C 215.588 129.131,215.141 129.555,215.020 129.938 C 214.749 130.790,210.286 133.464,207.010 134.736 C 201.887 136.725,200.907 136.792,177.663 136.752 C 161.688 136.724,155.803 136.837,155.463 137.177 C 155.116 137.524,154.979 157.202,154.916 215.664 C 154.837 290.126,154.800 293.713,154.116 294.231 C 152.715 295.294,144.097 294.167,141.600 292.594 C 140.830 292.109,138.709 290.857,136.887 289.810 C 134.870 288.653,133.354 287.484,133.013 286.825 C 132.705 286.229,132.146 285.487,131.772 285.177 C 131.398 284.866,130.637 283.893,130.082 283.014 C 129.528 282.135,128.652 281.084,128.137 280.679 C 127.567 280.230,127.102 279.327,126.949 278.371 C 126.811 277.507,126.584 276.800,126.445 276.800 C 124.992 276.800,125.007 277.428,124.800 206.133 C 124.690 168.257,124.487 137.154,124.349 137.016 C 124.211 136.878,113.918 136.776,101.475 136.790 C 78.949 136.815,75.820 136.658,74.406 135.427 C 74.073 135.136,73.080 134.676,72.200 134.404 C 69.996 133.724,68.000 132.742,68.000 132.337 C 68.000 132.152,67.800 132.000,67.556 132.000 C 67.311 132.000,66.246 131.276,65.189 130.391 C 64.132 129.506,62.729 128.594,62.070 128.365 C 61.335 128.108,60.781 127.580,60.634 126.995 C 60.503 126.471,59.869 125.732,59.225 125.351 C 57.947 124.596,56.800 122.142,56.800 120.162 C 56.800 119.495,56.440 118.205,56.000 117.294 C 55.560 116.384,55.198 115.135,55.195 114.519 C 55.186 112.707,54.765 111.643,53.957 111.386 C 52.979 111.076,52.981 110.123,53.960 109.813 C 54.378 109.680,54.833 109.123,54.970 108.575 C 55.621 105.982,47.819 106.200,140.000 106.200 C 185.870 106.200,223.611 106.337,223.869 106.505 M277.513 107.900 C 279.134 109.960,279.378 110.960,278.628 112.464 C 277.718 114.288,277.854 116.232,279.057 118.607 C 280.760 121.970,279.620 124.239,277.529 121.650 C 277.018 121.017,276.195 120.291,275.700 120.036 C 275.205 119.781,274.800 119.334,274.800 119.044 C 274.800 118.754,274.350 118.031,273.800 117.438 C 273.050 116.628,272.800 115.921,272.800 114.605 C 272.800 112.347,272.261 110.962,271.284 110.706 C 269.448 110.226,270.079 106.593,271.934 106.965 C 272.520 107.083,273.630 107.023,274.400 106.831 C 275.170 106.639,275.920 106.463,276.066 106.441 C 276.213 106.418,276.864 107.075,277.513 107.900 M49.483 110.095 C 49.387 110.593,49.305 110.280,49.301 109.400 C 49.296 108.520,49.375 108.113,49.475 108.495 C 49.575 108.878,49.579 109.598,49.483 110.095 M231.847 117.026 C 232.446 117.811,233.592 118.788,234.394 119.197 C 237.195 120.626,237.505 124.056,234.886 124.629 C 234.289 124.760,233.242 125.148,232.560 125.492 C 229.958 126.804,228.044 125.022,229.347 122.502 C 229.943 121.350,229.924 121.283,228.644 120.043 C 227.029 118.477,227.332 116.169,229.192 115.878 C 229.747 115.791,230.326 115.693,230.480 115.660 C 230.633 115.627,231.249 116.242,231.847 117.026 M39.991 118.544 C 39.986 119.015,39.666 119.811,39.280 120.313 L 38.578 121.225 37.272 119.949 L 35.967 118.672 37.282 117.315 L 38.598 115.957 39.299 116.823 C 39.685 117.299,39.996 118.074,39.991 118.544 M58.213 130.900 C 58.507 132.496,58.412 132.574,56.400 132.404 C 54.836 132.272,54.745 132.047,55.704 130.679 C 57.316 128.379,57.757 128.418,58.213 130.900 M218.000 134.600 C 218.000 135.374,217.215 135.775,216.702 135.262 C 216.398 134.958,216.421 134.657,216.782 134.221 C 217.346 133.542,218.000 133.745,218.000 134.600 M63.120 134.480 C 64.793 136.153,63.208 139.571,61.300 138.406 C 59.483 137.296,59.350 134.552,61.100 134.287 C 61.705 134.195,62.299 134.093,62.420 134.060 C 62.541 134.027,62.856 134.216,63.120 134.480 M46.933 138.535 C 47.568 141.221,45.082 142.694,42.218 141.328 C 40.783 140.644,40.736 140.558,40.980 139.035 C 41.584 135.256,46.069 134.880,46.933 138.535 M225.500 218.300 C 225.441 231.225,225.393 220.650,225.393 194.800 C 225.393 168.950,225.441 158.375,225.500 171.300 C 225.558 184.225,225.558 205.375,225.500 218.300 M238.761 249.741 C 237.950 250.716,237.325 249.394,237.938 248.000 L 238.553 246.600 238.799 248.000 C 238.935 248.770,238.918 249.554,238.761 249.741 M212.167 248.643 C 212.594 248.807,212.800 249.392,212.800 250.443 L 212.800 252.000 210.600 252.000 L 208.400 252.000 208.400 250.680 C 208.400 248.657,209.979 247.803,212.167 248.643 M337.105 249.475 C 336.722 249.575,336.002 249.579,335.505 249.483 C 335.007 249.387,335.320 249.305,336.200 249.301 C 337.080 249.296,337.487 249.375,337.105 249.475 M118.980 253.293 C 118.719 254.478,118.669 254.509,118.151 253.801 C 117.472 252.872,117.446 251.914,118.083 251.277 C 118.800 250.560,119.322 251.733,118.980 253.293 M216.462 253.800 C 217.076 254.529,217.080 254.662,216.506 255.300 C 215.225 256.724,214.400 255.947,214.400 253.318 C 214.400 251.783,214.854 251.889,216.462 253.800 M234.844 252.919 C 235.590 253.425,236.509 253.957,236.887 254.102 C 237.392 254.295,238.800 256.692,238.800 257.358 C 238.800 257.391,238.170 257.757,237.400 258.172 C 235.545 259.171,233.384 258.563,231.417 256.488 C 229.678 254.653,229.677 254.725,231.491 253.229 C 233.275 251.759,233.150 251.770,234.844 252.919 M332.000 253.400 C 332.000 254.733,331.933 254.800,330.600 254.800 C 329.267 254.800,329.200 254.733,329.200 253.400 C 329.200 252.067,329.267 252.000,330.600 252.000 C 331.933 252.000,332.000 252.067,332.000 253.400 M285.269 253.862 C 286.280 254.777,286.194 255.054,284.740 255.561 C 282.215 256.441,279.376 255.733,280.185 254.424 C 280.859 253.333,284.268 252.956,285.269 253.862 M322.179 257.612 C 321.750 257.764,321.160 257.799,320.866 257.689 C 320.014 257.369,321.135 256.858,322.123 257.116 C 322.930 257.327,322.931 257.344,322.179 257.612 M353.600 258.600 C 353.600 259.933,353.533 260.000,352.200 260.000 C 350.867 260.000,350.800 259.933,350.800 258.600 C 350.800 257.267,350.867 257.200,352.200 257.200 C 353.533 257.200,353.600 257.267,353.600 258.600 M181.785 262.249 C 182.348 262.466,182.360 262.585,181.869 263.149 C 181.559 263.507,181.132 264.340,180.921 265.000 C 180.499 266.319,179.358 266.727,178.050 266.027 C 177.303 265.627,177.294 265.533,177.890 264.302 C 179.019 261.970,179.877 261.517,181.785 262.249 M342.723 267.322 C 343.011 267.550,343.498 268.338,343.805 269.074 C 344.112 269.809,344.642 270.518,344.982 270.648 C 345.400 270.809,345.581 271.357,345.540 272.343 C 345.490 273.551,345.452 273.612,345.313 272.700 C 345.175 271.785,344.947 271.600,343.964 271.600 C 343.070 271.600,342.687 271.356,342.400 270.601 C 342.164 269.978,341.413 269.359,340.410 268.957 C 338.727 268.284,338.355 267.489,339.438 266.883 C 340.170 266.473,341.953 266.711,342.723 267.322 M121.657 282.939 L 121.312 284.200 120.915 282.800 C 120.409 281.018,121.079 279.180,121.661 280.753 C 121.851 281.266,121.849 282.238,121.657 282.939 M354.243 283.100 C 354.535 283.485,354.780 284.475,354.787 285.300 C 354.796 286.361,354.976 286.800,355.400 286.800 C 356.670 286.800,356.143 289.470,354.734 290.173 C 352.833 291.121,351.786 290.152,352.710 288.300 C 353.294 287.130,353.281 286.947,352.514 285.547 C 351.319 283.366,352.827 281.234,354.243 283.100 M132.571 291.429 C 133.314 292.171,133.303 292.078,132.810 293.374 C 132.595 293.938,132.105 294.400,131.721 294.400 C 131.169 294.400,131.272 294.642,132.211 295.550 C 132.865 296.183,133.723 297.173,134.119 297.750 C 134.514 298.328,135.099 298.800,135.419 298.800 C 136.377 298.800,136.307 300.976,135.314 302.087 C 134.860 302.595,134.511 302.673,133.976 302.387 C 133.578 302.174,132.983 302.000,132.654 302.000 C 126.036 302.000,121.670 291.776,128.196 291.560 C 128.858 291.538,129.850 291.376,130.400 291.200 C 131.848 290.736,131.883 290.740,132.571 291.429 M159.548 296.937 C 160.076 297.574,159.749 298.000,158.733 298.000 C 158.017 298.000,157.736 297.198,158.267 296.667 C 158.671 296.263,159.055 296.344,159.548 296.937 M154.130 302.263 C 154.492 302.625,153.595 303.644,153.155 303.372 C 152.603 303.031,152.737 302.000,153.333 302.000 C 153.627 302.000,153.985 302.118,154.130 302.263 M110.305 305.475 C 109.922 305.575,109.202 305.579,108.705 305.483 C 108.207 305.387,108.520 305.305,109.400 305.301 C 110.280 305.296,110.687 305.375,110.305 305.475 M176.272 307.680 C 177.411 308.092,177.600 308.349,177.600 309.480 L 177.600 310.800 174.800 310.800 L 172.000 310.800 172.000 309.420 C 172.000 307.329,173.552 306.697,176.272 307.680 M121.483 318.095 C 121.387 318.593,121.305 318.280,121.301 317.400 C 121.296 316.520,121.375 316.113,121.475 316.495 C 121.575 316.878,121.579 317.598,121.483 318.095 " stroke="none" fill="#424242" fill-rule="evenodd"></path><path id="path2" d="M56.010 106.790 C 55.576 107.224,55.108 108.028,54.970 108.575 C 54.833 109.123,54.378 109.680,53.960 109.813 C 53.038 110.105,52.962 111.023,53.833 111.357 C 54.762 111.714,54.800 111.686,54.800 110.659 C 54.800 109.336,56.456 107.025,57.514 106.872 C 58.001 106.802,58.400 106.577,58.400 106.372 C 58.400 105.704,56.819 105.981,56.010 106.790 M129.315 106.296 C 130.588 106.376,132.568 106.375,133.715 106.294 C 134.862 106.214,133.820 106.149,131.400 106.150 C 128.980 106.151,128.042 106.216,129.315 106.296 M154.100 106.294 C 155.145 106.376,156.855 106.376,157.900 106.294 C 158.945 106.212,158.090 106.144,156.000 106.144 C 153.910 106.144,153.055 106.212,154.100 106.294 M167.900 106.295 C 169.055 106.376,170.945 106.376,172.100 106.295 C 173.255 106.214,172.310 106.148,170.000 106.148 C 167.690 106.148,166.745 106.214,167.900 106.295 M201.700 106.298 C 203.845 106.370,207.355 106.370,209.500 106.298 C 211.645 106.226,209.890 106.167,205.600 106.167 C 201.310 106.167,199.555 106.226,201.700 106.298 M215.633 106.149 C 215.725 106.232,217.235 106.420,218.989 106.568 C 222.398 106.855,223.209 107.284,224.286 109.366 C 224.872 110.500,224.858 111.333,224.189 115.200 C 224.026 116.145,224.068 116.405,224.320 116.000 C 224.525 115.670,224.814 114.605,224.962 113.633 C 225.110 112.661,225.539 111.638,225.915 111.361 C 226.553 110.891,226.540 110.800,225.736 110.046 C 225.260 109.600,224.751 108.686,224.603 108.014 C 224.456 107.343,224.001 106.615,223.594 106.397 C 222.921 106.037,215.242 105.798,215.633 106.149 M245.500 106.432 C 244.881 106.793,244.807 107.494,244.859 112.520 L 244.918 118.200 245.221 113.677 C 245.612 107.853,245.722 107.483,247.288 106.704 L 248.600 106.051 247.400 106.038 C 246.740 106.030,245.885 106.208,245.500 106.432 M254.033 106.143 C 254.125 106.221,254.830 106.401,255.600 106.542 C 256.585 106.723,256.822 106.682,256.400 106.406 C 255.858 106.050,253.637 105.803,254.033 106.143 M274.400 106.831 C 273.630 107.023,272.520 107.083,271.934 106.965 C 270.079 106.593,269.448 110.226,271.284 110.706 C 272.261 110.962,272.800 112.347,272.800 114.605 C 272.800 115.921,273.050 116.628,273.800 117.438 C 274.350 118.031,274.800 118.754,274.800 119.044 C 274.800 119.334,275.205 119.781,275.700 120.036 C 276.195 120.291,277.018 121.017,277.529 121.650 C 279.620 124.239,280.760 121.970,279.057 118.607 C 277.854 116.232,277.718 114.288,278.628 112.464 C 279.433 110.850,277.467 106.226,276.066 106.441 C 275.920 106.463,275.170 106.639,274.400 106.831 M49.301 109.400 C 49.305 110.280,49.387 110.593,49.483 110.095 C 49.579 109.598,49.575 108.878,49.475 108.495 C 49.375 108.113,49.296 108.520,49.301 109.400 M264.400 110.920 C 264.400 110.965,264.940 111.512,265.600 112.135 C 266.299 112.795,266.799 113.045,266.797 112.734 C 266.796 112.440,266.256 111.893,265.597 111.519 C 264.939 111.144,264.400 110.874,264.400 110.920 M268.026 115.135 C 268.782 116.089,269.659 117.259,269.976 117.735 C 270.292 118.211,270.889 118.984,271.302 119.454 C 271.715 119.924,272.677 121.904,273.440 123.854 C 274.764 127.240,274.815 127.310,274.578 125.400 C 274.441 124.300,274.095 123.130,273.809 122.800 C 273.523 122.470,273.155 121.571,272.991 120.803 C 272.779 119.804,271.832 118.549,269.673 116.403 C 267.750 114.491,267.151 114.030,268.026 115.135 M55.206 114.833 C 55.209 115.365,55.389 116.070,55.606 116.400 C 55.882 116.822,55.923 116.585,55.742 115.600 C 55.425 113.875,55.198 113.549,55.206 114.833 M229.192 115.878 C 227.332 116.169,227.029 118.477,228.644 120.043 C 229.924 121.283,229.943 121.350,229.347 122.502 C 228.044 125.022,229.958 126.804,232.560 125.492 C 233.242 125.148,234.289 124.760,234.886 124.629 C 237.505 124.056,237.195 120.626,234.394 119.197 C 233.592 118.788,232.446 117.811,231.847 117.026 C 231.249 116.242,230.633 115.627,230.480 115.660 C 230.326 115.693,229.747 115.791,229.192 115.878 M37.282 117.315 L 35.967 118.672 37.272 119.949 L 38.578 121.225 39.280 120.313 C 40.179 119.145,40.185 117.918,39.299 116.823 L 38.598 115.957 37.282 117.315 M56.839 119.987 C 56.780 122.076,57.885 124.559,59.225 125.351 C 59.869 125.732,60.503 126.471,60.634 126.995 C 60.782 127.581,61.336 128.109,62.077 128.367 L 63.281 128.787 61.941 127.202 C 58.680 123.349,58.163 122.578,57.539 120.647 C 56.899 118.663,56.877 118.642,56.839 119.987 M244.995 183.800 C 244.995 219.220,245.042 233.651,245.100 215.868 C 245.158 198.086,245.158 169.106,245.100 151.468 C 245.042 133.831,244.995 148.380,244.995 183.800 M56.997 129.117 C 56.253 129.648,54.807 131.957,55.104 132.138 C 55.428 132.337,57.081 132.515,57.945 132.444 C 58.353 132.411,58.420 132.025,58.213 130.900 C 57.900 129.194,57.568 128.708,56.997 129.117 M63.600 128.918 C 63.600 129.020,64.447 129.797,65.481 130.645 C 66.516 131.493,67.234 131.978,67.076 131.723 C 66.740 131.179,63.600 128.645,63.600 128.918 M216.782 134.221 C 216.421 134.657,216.398 134.958,216.702 135.262 C 217.215 135.775,218.000 135.374,218.000 134.600 C 218.000 133.745,217.346 133.542,216.782 134.221 M61.100 134.287 C 59.350 134.552,59.483 137.296,61.300 138.406 C 62.512 139.146,62.634 139.154,63.100 138.524 C 64.033 137.261,63.500 133.766,62.420 134.060 C 62.299 134.093,61.705 134.195,61.100 134.287 M74.377 135.372 C 75.417 136.625,78.709 136.801,99.720 136.720 L 120.600 136.639 98.800 136.417 C 79.079 136.217,76.878 136.129,75.720 135.498 C 74.165 134.650,73.745 134.611,74.377 135.372 M203.200 135.519 C 201.675 136.060,198.220 136.194,180.600 136.394 L 159.800 136.630 179.600 136.700 C 199.472 136.771,203.214 136.566,205.400 135.291 C 206.550 134.620,205.392 134.740,203.200 135.519 M43.587 135.942 C 40.638 137.181,39.869 140.208,42.218 141.328 C 45.082 142.694,47.568 141.221,46.933 138.535 C 46.547 136.903,44.703 135.474,43.587 135.942 M274.951 142.400 C 274.951 144.930,275.016 145.965,275.096 144.700 C 275.175 143.435,275.175 141.365,275.096 140.100 C 275.016 138.835,274.951 139.870,274.951 142.400 M225.393 194.800 C 225.393 220.650,225.441 231.225,225.500 218.300 C 225.558 205.375,225.558 184.225,225.500 171.300 C 225.441 158.375,225.393 168.950,225.393 194.800 M237.938 248.000 C 237.405 249.214,237.400 249.445,237.900 249.741 C 238.745 250.241,239.080 249.592,238.799 248.000 L 238.553 246.600 237.938 248.000 M208.880 248.880 C 208.616 249.144,208.400 249.954,208.400 250.680 L 208.400 252.000 210.600 252.000 L 212.800 252.000 212.800 250.443 C 212.800 249.392,212.594 248.807,212.167 248.643 C 211.125 248.243,209.392 248.368,208.880 248.880 M335.505 249.483 C 336.002 249.579,336.722 249.575,337.105 249.475 C 337.487 249.375,337.080 249.296,336.200 249.301 C 335.320 249.305,335.007 249.387,335.505 249.483 M118.083 251.277 C 117.446 251.914,117.472 252.872,118.151 253.801 C 118.669 254.509,118.719 254.478,118.980 253.293 C 119.322 251.733,118.800 250.560,118.083 251.277 M214.400 253.318 C 214.400 255.947,215.225 256.724,216.506 255.300 C 217.183 254.548,216.820 253.815,215.095 252.451 C 214.463 251.951,214.400 252.030,214.400 253.318 M231.491 253.229 C 229.677 254.725,229.678 254.653,231.417 256.488 C 233.384 258.563,235.545 259.171,237.400 258.172 C 238.170 257.757,238.800 257.391,238.800 257.358 C 238.800 256.692,237.392 254.295,236.887 254.102 C 236.509 253.957,235.590 253.425,234.844 252.919 C 233.150 251.770,233.275 251.759,231.491 253.229 M329.200 253.400 C 329.200 254.733,329.267 254.800,330.600 254.800 C 331.933 254.800,332.000 254.733,332.000 253.400 C 332.000 252.067,331.933 252.000,330.600 252.000 C 329.267 252.000,329.200 252.067,329.200 253.400 M244.946 256.600 C 244.947 258.800,245.014 259.649,245.095 258.487 C 245.176 257.324,245.176 255.524,245.093 254.487 C 245.011 253.449,244.945 254.400,244.946 256.600 M281.720 253.642 C 280.172 254.090,279.768 254.639,280.415 255.418 C 281.193 256.355,286.000 255.844,286.000 254.823 C 286.000 253.542,283.986 252.987,281.720 253.642 M320.811 257.193 C 320.107 257.628,321.196 257.962,322.179 257.612 C 322.931 257.344,322.930 257.327,322.123 257.116 C 321.664 256.996,321.074 257.031,320.811 257.193 M350.800 258.600 C 350.800 259.933,350.867 260.000,352.200 260.000 C 353.533 260.000,353.600 259.933,353.600 258.600 C 353.600 257.267,353.533 257.200,352.200 257.200 C 350.867 257.200,350.800 257.267,350.800 258.600 M178.909 262.500 C 177.579 264.209,177.242 265.594,178.050 266.027 C 179.358 266.727,180.499 266.319,180.921 265.000 C 181.132 264.340,181.559 263.507,181.869 263.149 C 182.360 262.585,182.348 262.466,181.785 262.249 C 180.724 261.842,179.326 261.964,178.909 262.500 M222.800 263.600 L 213.800 263.823 223.000 263.867 C 228.060 263.891,233.910 263.780,236.000 263.620 L 239.800 263.329 235.800 263.353 C 233.600 263.366,227.750 263.477,222.800 263.600 M195.700 264.012 C 194.355 264.553,194.547 265.276,195.899 264.762 C 196.503 264.533,198.348 264.201,199.999 264.026 L 203.000 263.706 199.800 263.679 C 198.040 263.663,196.195 263.813,195.700 264.012 M294.727 263.900 C 299.637 263.963,307.557 263.963,312.327 263.900 C 317.097 263.836,313.080 263.784,303.400 263.784 C 293.720 263.784,289.817 263.836,294.727 263.900 M339.438 266.883 C 338.355 267.489,338.727 268.284,340.410 268.957 C 341.413 269.359,342.164 269.978,342.400 270.601 C 342.687 271.356,343.070 271.600,343.964 271.600 C 344.947 271.600,345.175 271.785,345.313 272.700 C 345.452 273.612,345.490 273.551,345.540 272.343 C 345.581 271.357,345.400 270.809,344.982 270.648 C 344.642 270.518,344.112 269.809,343.805 269.074 C 342.950 267.029,340.961 266.030,339.438 266.883 M335.400 270.554 C 336.500 271.560,337.530 272.387,337.690 272.392 C 337.849 272.396,338.907 273.705,340.042 275.300 C 341.947 277.979,342.085 278.093,341.851 276.800 C 341.712 276.030,341.172 275.040,340.651 274.600 C 340.129 274.160,339.493 273.395,339.237 272.900 C 338.981 272.405,338.429 272.000,338.010 272.000 C 337.590 272.000,337.144 271.833,337.018 271.629 C 336.892 271.425,336.026 270.688,335.094 269.991 C 333.528 268.820,333.551 268.862,335.400 270.554 M124.887 271.600 C 124.879 273.901,125.086 274.869,125.870 276.197 C 126.625 277.476,126.867 276.657,126.203 275.069 C 125.869 274.269,125.438 272.667,125.245 271.508 L 124.894 269.400 124.887 271.600 M182.042 272.360 C 181.359 272.999,180.800 273.664,180.800 273.839 C 180.800 274.014,181.430 273.546,182.200 272.800 C 182.970 272.054,183.600 271.388,183.600 271.322 C 183.600 271.014,183.192 271.286,182.042 272.360 M179.100 276.414 C 178.495 277.074,178.000 277.829,178.000 278.092 C 178.000 278.589,180.355 276.028,180.384 275.500 C 180.409 275.036,180.280 275.128,179.100 276.414 M126.972 278.600 C 127.129 279.260,127.429 279.976,127.639 280.191 C 127.850 280.406,127.810 279.956,127.551 279.191 C 126.946 277.400,126.605 277.052,126.972 278.600 M120.918 280.615 C 120.652 281.137,120.650 281.869,120.915 282.800 L 121.312 284.200 121.657 282.939 C 122.115 281.268,121.528 279.422,120.918 280.615 M175.992 282.300 C 175.516 283.565,175.024 285.230,174.900 286.000 C 174.775 286.770,174.417 287.796,174.103 288.280 C 173.526 289.173,173.734 290.800,174.427 290.800 C 174.632 290.800,174.800 291.046,174.800 291.346 C 174.800 291.646,175.173 292.366,175.629 292.946 L 176.458 294.000 248.729 293.903 L 321.000 293.805 249.400 293.603 C 210.019 293.491,177.478 293.243,177.085 293.052 C 174.815 291.945,174.951 283.310,177.283 280.500 C 177.570 280.154,177.569 280.000,177.278 280.000 C 177.047 280.000,176.468 281.035,175.992 282.300 M352.269 283.223 C 351.756 283.955,351.783 284.213,352.514 285.547 C 353.281 286.947,353.294 287.130,352.710 288.300 C 351.786 290.152,352.833 291.121,354.734 290.173 C 356.143 289.470,356.670 286.800,355.400 286.800 C 354.976 286.800,354.796 286.361,354.787 285.300 C 354.766 282.770,353.384 281.631,352.269 283.223 M154.696 289.846 C 154.417 292.321,153.335 293.671,151.165 294.250 L 149.400 294.721 151.400 294.748 C 154.278 294.786,154.793 294.239,155.078 290.841 C 155.340 287.714,155.028 286.900,154.696 289.846 M345.200 289.164 C 345.200 291.798,343.769 293.158,340.400 293.723 C 339.782 293.827,340.043 293.912,341.081 293.946 C 343.240 294.015,344.652 293.361,345.179 292.045 C 345.409 291.470,345.768 290.608,345.975 290.129 C 346.250 289.495,346.196 289.129,345.776 288.780 C 345.305 288.389,345.200 288.459,345.200 289.164 M130.400 291.200 C 129.850 291.376,128.858 291.538,128.196 291.560 C 121.670 291.776,126.036 302.000,132.654 302.000 C 132.983 302.000,133.578 302.174,133.976 302.387 C 134.511 302.673,134.860 302.595,135.314 302.087 C 136.307 300.976,136.377 298.800,135.419 298.800 C 135.099 298.800,134.514 298.328,134.119 297.750 C 133.723 297.173,132.865 296.183,132.211 295.550 C 131.272 294.642,131.169 294.400,131.721 294.400 C 132.105 294.400,132.595 293.938,132.810 293.374 C 133.303 292.078,133.314 292.171,132.571 291.429 C 131.883 290.740,131.848 290.736,130.400 291.200 M158.267 296.667 C 157.736 297.198,158.017 298.000,158.733 298.000 C 159.749 298.000,160.076 297.574,159.548 296.937 C 159.055 296.344,158.671 296.263,158.267 296.667 M152.800 302.576 C 152.800 302.893,152.960 303.251,153.155 303.372 C 153.595 303.644,154.492 302.625,154.130 302.263 C 153.654 301.787,152.800 301.988,152.800 302.576 M108.705 305.483 C 109.202 305.579,109.922 305.575,110.305 305.475 C 110.687 305.375,110.280 305.296,109.400 305.301 C 108.520 305.305,108.207 305.387,108.705 305.483 M172.700 307.632 C 172.247 307.896,172.000 308.527,172.000 309.420 L 172.000 310.800 174.800 310.800 L 177.600 310.800 177.600 309.480 C 177.600 307.643,174.614 306.517,172.700 307.632 M121.301 317.400 C 121.305 318.280,121.387 318.593,121.483 318.095 C 121.579 317.598,121.575 316.878,121.475 316.495 C 121.375 316.113,121.296 316.520,121.301 317.400 " stroke="none" fill="#424242" fill-rule="evenodd"></path><path id="path3" d="M247.400 106.674 C 246.740 107.027,246.078 107.504,245.930 107.734 C 245.261 108.767,245.152 119.027,245.079 188.486 C 245.005 258.109,244.960 262.412,244.304 263.068 C 243.660 263.711,241.924 263.769,221.504 263.831 C 199.309 263.898,197.188 264.020,194.575 265.382 C 193.929 265.719,192.932 265.996,192.359 265.998 C 191.787 265.999,190.707 266.449,189.959 266.997 C 189.212 267.545,188.052 268.252,187.382 268.568 C 185.712 269.355,180.899 273.849,180.573 274.924 C 180.427 275.406,179.984 276.160,179.589 276.600 C 175.140 281.548,173.931 291.861,177.648 293.157 C 179.755 293.891,341.204 293.776,342.969 293.039 C 348.078 290.904,343.458 277.063,335.545 270.796 C 333.925 269.513,332.240 268.115,331.800 267.688 C 331.360 267.262,330.370 266.716,329.600 266.475 C 328.830 266.234,327.300 265.749,326.200 265.396 C 325.100 265.043,323.591 264.599,322.846 264.407 C 322.102 264.216,312.562 264.026,301.646 263.984 C 281.453 263.907,276.698 263.676,275.768 262.731 C 275.344 262.300,275.218 249.566,275.099 195.000 L 274.952 127.800 273.531 124.130 C 272.749 122.111,271.713 119.951,271.229 119.330 C 270.745 118.708,269.452 117.030,268.357 115.600 C 265.850 112.327,264.399 110.800,263.795 110.800 C 263.536 110.800,263.005 110.447,262.615 110.017 C 262.225 109.586,261.041 108.946,259.984 108.595 C 258.927 108.243,257.856 107.708,257.605 107.406 C 256.481 106.051,249.499 105.551,247.400 106.674 M57.604 106.753 C 55.906 107.232,54.691 109.483,54.971 111.630 C 55.478 115.526,57.863 122.377,59.236 123.883 C 59.796 124.497,60.555 125.486,60.923 126.080 C 61.291 126.674,62.809 128.137,64.296 129.332 C 65.783 130.526,67.540 131.980,68.200 132.562 C 68.860 133.144,69.850 133.725,70.400 133.852 C 72.782 134.403,75.205 135.176,76.069 135.661 C 76.794 136.069,82.190 136.231,100.467 136.392 C 113.374 136.507,124.084 136.750,124.267 136.933 C 124.450 137.117,124.690 167.537,124.800 204.533 L 125.000 271.800 126.528 276.300 C 127.368 278.775,128.208 280.800,128.395 280.800 C 128.582 280.800,129.146 281.475,129.649 282.300 C 131.571 285.455,134.908 288.720,137.975 290.447 C 139.639 291.384,141.473 292.473,142.052 292.868 C 144.775 294.726,152.327 294.586,153.773 292.649 L 154.600 291.541 154.800 214.591 C 154.962 152.228,155.098 137.541,155.520 137.120 C 155.928 136.711,160.896 136.549,178.720 136.363 L 201.400 136.125 205.421 134.963 C 209.761 133.708,213.632 131.635,214.434 130.136 C 214.710 129.621,215.089 129.200,215.277 129.200 C 216.522 129.200,221.674 123.084,222.173 121.014 C 222.330 120.362,222.785 119.102,223.184 118.214 C 225.199 113.730,225.102 109.575,222.936 107.540 L 221.936 106.600 140.268 106.536 C 95.351 106.501,58.152 106.599,57.604 106.753 M256.336 108.474 C 262.450 111.123,265.019 113.182,269.000 118.623 C 271.579 122.147,271.649 122.269,272.070 123.967 C 273.095 128.097,273.183 133.740,273.195 196.535 L 273.208 262.870 274.330 263.991 L 275.451 265.113 297.426 265.168 C 309.632 265.198,319.933 265.388,320.600 265.594 C 321.260 265.798,323.214 266.182,324.942 266.446 C 328.118 266.933,331.817 268.883,334.226 271.340 C 334.689 271.813,335.648 272.650,336.356 273.200 C 340.543 276.450,345.146 288.436,343.171 290.946 L 342.342 292.000 260.404 292.000 C 215.338 292.000,178.174 291.888,177.818 291.752 C 176.038 291.069,175.861 287.161,177.516 285.081 C 177.727 284.817,178.021 283.758,178.170 282.729 C 178.318 281.700,178.869 280.260,179.393 279.529 C 179.917 278.798,180.761 277.413,181.268 276.452 C 182.258 274.575,185.204 271.708,187.800 270.096 C 188.680 269.550,190.156 268.611,191.079 268.010 C 192.003 267.410,193.803 266.720,195.079 266.478 C 201.644 265.234,204.335 265.109,224.315 265.123 C 244.803 265.136,244.831 265.135,245.822 264.268 L 246.815 263.400 246.907 185.865 L 247.000 108.329 247.944 107.565 C 249.501 106.304,251.938 106.568,256.336 108.474 M221.486 108.556 C 223.987 109.422,224.089 110.251,222.342 115.546 C 221.498 118.106,220.615 120.528,220.382 120.929 C 220.148 121.330,219.608 122.327,219.183 123.143 C 218.757 123.960,217.435 125.432,216.246 126.414 C 215.056 127.396,213.790 128.684,213.433 129.276 C 213.076 129.867,212.382 130.474,211.892 130.625 C 211.401 130.775,210.010 131.503,208.800 132.241 C 207.136 133.257,205.821 133.692,203.406 134.027 C 201.650 134.270,200.062 134.562,199.879 134.675 C 199.695 134.789,189.639 134.856,177.532 134.824 L 155.520 134.766 154.166 135.799 L 152.811 136.832 152.811 214.316 L 152.811 291.800 151.853 292.640 C 150.023 294.245,143.370 292.320,137.770 288.565 C 134.604 286.442,134.721 286.558,131.774 282.656 C 126.183 275.253,126.430 279.048,126.447 200.654 L 126.461 137.108 125.356 135.954 L 124.250 134.800 102.425 134.793 C 74.185 134.783,71.395 134.353,66.381 129.239 C 65.821 128.668,64.700 127.689,63.892 127.064 C 63.083 126.439,62.027 125.269,61.546 124.464 C 61.064 123.659,60.328 122.616,59.910 122.147 C 59.491 121.678,58.878 120.238,58.548 118.947 C 58.217 117.656,57.610 115.880,57.199 115.000 C 55.473 111.304,55.904 108.652,58.291 108.284 C 61.269 107.823,220.136 108.089,221.486 108.556 " stroke="none" fill="#424242" fill-rule="evenodd"></path><path id="path4" d="M247.944 107.565 L 247.000 108.329 246.907 185.865 L 246.815 263.400 245.822 264.268 C 244.831 265.135,244.803 265.136,224.315 265.123 C 204.335 265.109,201.644 265.234,195.079 266.478 C 193.803 266.720,192.003 267.410,191.079 268.010 C 190.156 268.611,188.680 269.550,187.800 270.096 C 185.204 271.708,182.258 274.575,181.268 276.452 C 180.761 277.413,179.917 278.798,179.393 279.529 C 178.869 280.260,178.318 281.700,178.170 282.729 C 178.021 283.758,177.727 284.817,177.516 285.081 C 175.861 287.161,176.038 291.069,177.818 291.752 C 178.174 291.888,215.338 292.000,260.404 292.000 L 342.342 292.000 343.171 290.946 C 344.261 289.560,344.221 288.792,342.841 284.775 C 340.864 279.014,338.569 274.917,336.356 273.200 C 335.648 272.650,334.689 271.813,334.226 271.340 C 331.817 268.883,328.118 266.933,324.942 266.446 C 323.214 266.182,321.260 265.798,320.600 265.594 C 319.933 265.388,309.632 265.198,297.426 265.168 L 275.451 265.113 274.330 263.991 L 273.208 262.870 273.195 196.535 C 273.183 133.740,273.095 128.097,272.070 123.967 C 271.649 122.269,271.579 122.147,269.000 118.623 C 262.993 110.413,251.731 104.498,247.944 107.565 M58.291 108.284 C 55.904 108.652,55.473 111.304,57.199 115.000 C 57.610 115.880,58.217 117.656,58.548 118.947 C 58.878 120.238,59.491 121.678,59.910 122.147 C 60.328 122.616,61.064 123.659,61.546 124.464 C 62.027 125.269,63.083 126.439,63.892 127.064 C 64.700 127.689,65.821 128.668,66.381 129.239 C 71.395 134.353,74.185 134.783,102.425 134.793 L 124.250 134.800 125.356 135.954 L 126.461 137.108 126.447 200.654 C 126.430 279.048,126.183 275.253,131.774 282.656 C 134.721 286.558,134.604 286.442,137.770 288.565 C 143.370 292.320,150.023 294.245,151.853 292.640 L 152.811 291.800 152.811 214.316 L 152.811 136.832 154.166 135.799 L 155.520 134.766 177.532 134.824 C 189.639 134.856,199.695 134.789,199.879 134.675 C 200.062 134.562,201.650 134.270,203.406 134.027 C 205.821 133.692,207.136 133.257,208.800 132.241 C 210.010 131.503,211.401 130.775,211.892 130.625 C 212.382 130.474,213.076 129.867,213.433 129.276 C 213.790 128.684,215.056 127.396,216.246 126.414 C 217.435 125.432,218.757 123.960,219.183 123.143 C 219.608 122.327,220.148 121.330,220.382 120.929 C 220.615 120.528,221.498 118.106,222.342 115.546 C 224.089 110.251,223.987 109.422,221.486 108.556 C 220.136 108.089,61.269 107.823,58.291 108.284 M253.838 109.000 C 254.649 109.550,255.708 110.000,256.193 110.000 C 256.677 110.000,258.497 110.988,260.237 112.196 C 261.977 113.403,263.985 114.771,264.700 115.235 C 265.415 115.699,266.000 116.393,266.000 116.778 C 266.000 117.162,266.361 117.803,266.802 118.202 C 268.184 119.453,270.628 124.110,271.212 126.607 C 271.679 128.601,271.786 140.221,271.851 196.333 C 271.909 246.051,272.050 263.956,272.390 264.777 C 273.201 266.734,273.924 266.791,299.800 266.943 C 324.637 267.089,326.829 267.229,328.364 268.764 C 328.800 269.200,329.724 269.850,330.416 270.208 C 332.220 271.141,337.443 276.539,338.250 278.304 C 338.626 279.127,339.215 280.129,339.557 280.531 C 339.900 280.934,340.652 283.142,341.228 285.440 L 342.275 289.616 341.237 289.908 C 339.502 290.396,178.906 290.266,178.416 289.776 C 177.756 289.116,179.512 281.648,180.621 280.400 C 181.109 279.850,181.821 278.781,182.204 278.024 C 183.516 275.427,187.676 271.485,191.100 269.592 C 192.035 269.075,192.800 268.521,192.800 268.359 C 192.800 267.313,197.839 267.044,221.600 266.826 C 248.231 266.581,247.694 266.631,248.147 264.364 C 248.286 263.669,248.401 229.688,248.402 188.850 C 248.404 148.013,248.520 113.115,248.662 111.300 L 248.919 108.000 250.642 108.000 C 251.820 108.000,252.830 108.316,253.838 109.000 M216.006 109.849 C 222.024 110.189,221.746 109.970,221.075 113.841 C 220.287 118.380,218.242 122.310,215.044 125.430 C 213.630 126.810,212.361 128.292,212.224 128.725 C 212.060 129.241,211.366 129.665,210.207 129.957 C 209.235 130.201,207.963 130.843,207.382 131.382 C 205.587 133.045,202.516 133.232,176.800 133.243 C 153.790 133.253,153.064 133.313,152.102 135.282 C 151.711 136.082,151.580 152.835,151.493 213.251 C 151.432 255.573,151.235 290.586,151.056 291.057 C 150.570 292.331,148.500 292.624,147.131 291.613 C 146.533 291.170,145.179 290.588,144.122 290.318 C 143.065 290.048,141.681 289.408,141.047 288.895 C 140.412 288.382,139.219 287.618,138.396 287.198 C 137.572 286.778,136.791 286.154,136.660 285.811 C 136.528 285.468,135.963 285.014,135.403 284.801 C 134.843 284.588,134.198 283.920,133.968 283.315 C 133.738 282.711,133.410 282.123,133.240 282.008 C 132.557 281.550,130.000 277.467,130.000 276.835 C 130.000 276.464,129.837 275.989,129.638 275.780 C 128.345 274.424,128.257 270.171,128.137 203.243 C 128.005 129.672,128.235 135.664,125.478 133.982 C 124.254 133.236,123.294 133.202,102.600 133.191 C 78.133 133.178,73.740 132.926,71.966 131.433 C 71.325 130.893,70.170 130.224,69.400 129.946 C 68.630 129.667,68.000 129.304,68.000 129.138 C 68.000 128.972,67.505 128.373,66.900 127.807 C 63.963 125.059,62.238 123.079,61.407 121.500 C 60.973 120.675,60.492 120.000,60.337 120.000 C 60.183 120.000,59.848 118.965,59.593 117.700 C 59.338 116.435,58.675 114.457,58.120 113.305 C 56.896 110.764,57.084 110.097,59.078 109.903 C 61.891 109.630,211.215 109.578,216.006 109.849 " stroke="none" fill="#424242" fill-rule="evenodd"></path></g></svg>