<svg id="homepage" xmlns="http://www.w3.org/2000/svg" xmlns:xlink="http://www.w3.org/1999/xlink" viewBox="0 0 850 412"
	shape-rendering="geometricPrecision" text-rendering="geometricPrecision">
	<g id="homepage-u-homepage" transform="matrix(1.231553 0 0 1.367588-52.387439-118.56468)">
		<g id="homepage-u-tableview" transform="translate(16.395465 1.494075)">
			<g id="homepage-u-table-layout_ts" transform="translate(266.651993,236.442307) scale(0.5,0.5)">
				<g id="homepage-u-table-layout" transform="translate(-266.651993,-236.442306)">
					<g id="homepage-u-table-container">
						<path id="homepage-u-vector_11"
							d="M497.076,385h-460.6466c-1.6512-.002-3.2341-.645-4.4017-1.787-1.1675-1.143-1.8242-2.693-1.826-4.309v-279.2824h473.1023v279.2824c-.002,1.616-.659,3.166-1.826,4.309-1.168,1.142-2.751,1.785-4.402,1.787Z"
							fill="#3eb1c8" />
						<path id="homepage-u-vector_12"
							d="M483.569,367.547h-433.6325c-1.669-.002-3.2692-.652-4.4495-1.807s-1.844-2.722-1.8459-4.356v-229.999c.0019-1.633.6658-3.2,1.846-4.355s2.7804-1.805,4.4494-1.807h433.6325c1.669.002,3.269.652,4.45,1.807c1.18,1.155,1.844,2.722,1.845,4.355v229.999c-.001,1.634-.665,3.201-1.845,4.356-1.181,1.155-2.781,1.805-4.45,1.807v0Z"
							fill="#fff" />
					</g>
					<g id="homepage-u-table-header">
						<path id="homepage-u-vector_13"
							d="M503.102,108.246h-473.102v-14.2652c.0018-1.6163.6586-3.1658,1.8261-4.3087c1.1675-1.1428,2.7505-1.7857,4.4016-1.7875h460.6473c1.651.0018,3.234.6447,4.401,1.7875c1.168,1.1429,1.824,2.6924,1.826,4.3087v14.2652Z"
							fill="#3eb1c8" />
						<path id="homepage-u-vector_14"
							d="M45.2793,101.927c2.0542,0,3.7194-1.63,3.7194-3.6407c0-2.0108-1.6652-3.6409-3.7194-3.6409s-3.7195,1.6301-3.7195,3.6409c0,2.0107,1.6653,3.6407,3.7195,3.6407Z"
							fill="#fff" />
						<path id="homepage-u-vector_15"
							d="M59.3974,101.927c2.0542,0,3.7195-1.63,3.7195-3.6407c0-2.0108-1.6653-3.6409-3.7195-3.6409s-3.7194,1.6301-3.7194,3.6409c0,2.0107,1.6652,3.6407,3.7194,3.6407Z"
							fill="#fff" />
						<path id="homepage-u-vector_16"
							d="M73.5155,101.927c2.0542,0,3.7194-1.63,3.7194-3.6407c0-2.0108-1.6652-3.6409-3.7194-3.6409s-3.7195,1.6301-3.7195,3.6409c0,2.0107,1.6653,3.6407,3.7195,3.6407Z"
							fill="#fff" />
					</g>
				</g>
			</g>
			<g id="homepage-u-table-columns">
				<g id="homepage-u-c1_to" transform="translate(-110.55,226.351502)">
					<g id="homepage-u-c1" transform="translate(-110.554752,-226.351501)">
						<path id="homepage-u-vector_17" d="M132.901,166.466h-44.6925v19.364h44.6925v-19.364Z"
							fill="#e6e6e6" />
						<path id="homepage-u-vector_19" d="M132.901,266.873h-44.6925v19.364h44.6925v-19.364Z"
							fill="#3eb1c8" />
					</g>
				</g>
				<g id="homepage-u-c2_to" transform="translate(-199.94,266.513496)">
					<g id="homepage-u-c2" transform="translate(-199.940498,-266.513496)">
						<path id="homepage-u-vector_18" d="M222.287,206.628h-44.693v19.364h44.693v-19.364Z"
							fill="#e6e6e6" />
						<path id="homepage-u-vector_20" d="M222.287,307.035h-44.693v19.364h44.693v-19.364Z"
							fill="#3eb1c8" />
					</g>
				</g>
				<g id="homepage-u-c5_to" transform="translate(0,500)">
					<g id="homepage-u-c5" transform="translate(-422.671508,-336.798996)">
						<path id="homepage-u-vector_21" d="M445.018,327.117h-44.693v19.364h44.693v-19.364Z"
							fill="#3eb1c8" />
					</g>
				</g>
				<g id="homepage-u-c4_to" transform="translate(0,0)">
					<g id="homepage-u-c4" transform="translate(-377.9785,-256.472999)">
						<path id="homepage-u-vector_22" d="M400.325,246.791h-44.693v19.364h44.693v-19.364Z"
							fill="#e6e6e6" />
					</g>
				</g>
				<g id="homepage-u-c3">
					<g id="homepage-u-c3_2_to" transform="translate(266.9795,553)">
						<g id="homepage-u-c3_2" transform="translate(-266.9795,-256.472999)">
							<path id="homepage-u-vector_23" d="M311.672,246.791h-89.385v19.364h89.385v-19.364Z"
								fill="#3eb1c8" />
						</g>
					</g>
					<g id="homepage-u-c3_1_to" transform="translate(266.9795,-155.35)">
						<g id="homepage-u-c3_1" transform="translate(-266.9795,-155.349006)">
							<path id="homepage-u-vector_24" d="M311.672,145.667h-89.385v19.364h89.385v-19.364Z"
								fill="#3eb1c8" />
						</g>
					</g>
				</g>
			</g>
			<g id="homepage-u-table-view" opacity="0">
				<path id="homepage-u-vector_25"
					d="M43.5156,124.868v243.129h446.9284v-243.129h-446.9284ZM488.978,145.01h-43.081v-18.707h43.081v18.707ZM223.166,285.998v-18.707h87.627v18.707h-87.627Zm87.627,1.434v18.707h-87.627v-18.707h87.627Zm0-80.564v18.706h-87.627v-18.706h87.627Zm-87.627-1.435v-18.707h87.627v18.707h-87.627Zm0,40.282v-18.707h87.627v18.707h-87.627Zm87.627,1.435v18.707h-87.627v-18.707h87.627Zm-89.092-21.576h-43.081v-18.706h43.081v18.706Zm0,1.434v18.707h-43.081v-18.707h43.081Zm0,20.142v18.707h-43.081v-18.707h43.081Zm0,20.141v18.707h-43.081v-18.707h43.081Zm90.557,0h43.081v18.707h-43.081v-18.707Zm0-1.434v-18.707h43.081v18.707h-43.081Zm0-20.142v-18.707h43.081v18.707h-43.081Zm0-20.141v-18.706h43.081v18.706h-43.081Zm0-20.141v-18.707h43.081v18.707h-43.081Zm0-20.141v-18.707h43.081v18.707h-43.081Zm-1.465,0h-87.627v-18.707h87.627v18.707Zm-89.092,0h-43.081v-18.707h43.081v18.707Zm0,1.434v18.707h-43.081v-18.707h43.081Zm-44.546,18.707h-43.082v-18.707h43.082v18.707Zm0,1.435v18.706h-43.082v-18.706h43.082Zm0,20.14v18.707h-43.082v-18.707h43.082Zm0,20.142v18.707h-43.082v-18.707h43.082Zm0,20.141v18.707h-43.082v-18.707h43.082Zm0,20.141v18.707h-43.082v-18.707h43.082Zm1.465,0h43.081v18.707h-43.081v-18.707Zm43.081,20.141v18.707h-43.081v-18.707h43.081Zm1.465,0h87.627v18.707h-87.627v-18.707Zm89.092,0h43.081v18.707h-43.081v-18.707Zm0-1.434v-18.707h43.081v18.707h-43.081Zm44.546-18.707h43.082v18.707h-43.082v-18.707Zm0-1.434v-18.707h43.082v18.707h-43.082Zm0-20.141v-18.707h43.082v18.707h-43.082Zm0-20.142v-18.707h43.082v18.707h-43.082Zm0-20.141v-18.706h43.082v18.706h-43.082Zm0-20.141v-18.707h43.082v18.707h-43.082Zm0-20.141v-18.707h43.082v18.707h-43.082Zm0-20.141v-18.707h43.082v18.707h-43.082Zm-1.465,0h-43.081v-18.707h43.081v18.707Zm-44.546,0h-87.627v-18.707h87.627v18.707Zm-89.092,0h-43.081v-18.707h43.081v18.707Zm-44.546,0h-43.082v-18.707h43.082v18.707Zm0,1.434v18.707h-43.082v-18.707h43.082Zm-44.547,18.707h-43.0809v-18.707h43.0809v18.707Zm0,1.434v18.707h-43.0809v-18.707h43.0809Zm0,20.142v18.706h-43.0809v-18.706h43.0809Zm0,20.14v18.707h-43.0809v-18.707h43.0809Zm0,20.142v18.707h-43.0809v-18.707h43.0809Zm0,20.141v18.707h-43.0809v-18.707h43.0809Zm0,20.141v18.707h-43.0809v-18.707h43.0809Zm0,20.141v18.707h-43.0809v-18.707h43.0809Zm1.465,0h43.082v18.707h-43.082v-18.707Zm43.082,20.141v18.707h-43.082v-18.707h43.082Zm1.465,0h43.081v18.707h-43.081v-18.707Zm44.546,0h87.627v18.707h-87.627v-18.707Zm89.092,0h43.081v18.707h-43.081v-18.707Zm44.546,0h43.082v18.707h-43.082v-18.707Zm0-1.434v-18.707h43.082v18.707h-43.082Zm44.547-18.707h43.081v18.707h-43.081v-18.707Zm0-1.434v-18.707h43.081v18.707h-43.081Zm0-20.141v-18.707h43.081v18.707h-43.081Zm0-20.141v-18.707h43.081v18.707h-43.081Zm0-20.142v-18.707h43.081v18.707h-43.081Zm0-20.141v-18.706h43.081v18.706h-43.081Zm0-20.141v-18.707h43.081v18.707h-43.081Zm0-20.141v-18.707h43.081v18.707h-43.081Zm0-20.141v-18.707h43.081v18.707h-43.081Zm0-20.141v-18.707h43.081v18.707h-43.081Zm-1.465,0h-43.082v-18.707h43.082v18.707Zm-44.547,0h-43.081v-18.707h43.081v18.707Zm-44.546,0h-87.627v-18.707h87.627v18.707Zm-89.092,0h-43.081v-18.707h43.081v18.707Zm-44.546,0h-43.082v-18.707h43.082v18.707Zm-44.547,0h-43.0809v-18.707h43.0809v18.707Zm0,1.434v18.707h-43.0809v-18.707h43.0809ZM88.0618,165.151h-43.0808v-18.707h43.0808v18.707Zm0,1.434v18.707h-43.0808v-18.707h43.0808Zm0,20.141v18.707h-43.0808v-18.707h43.0808Zm0,20.142v18.706h-43.0808v-18.706h43.0808Zm0,20.14v18.707h-43.0808v-18.707h43.0808Zm0,20.142v18.707h-43.0808v-18.707h43.0808Zm0,20.141v18.707h-43.0808v-18.707h43.0808Zm0,20.141v18.707h-43.0808v-18.707h43.0808Zm0,20.141v18.707h-43.0808v-18.707h43.0808Zm0,20.141v18.707h-43.0808v-18.707h43.0808Zm1.4653,0h43.0809v18.707h-43.0809v-18.707Zm43.0809,20.142v18.706h-43.0809v-18.706h43.0809Zm1.465,0h43.082v18.706h-43.082v-18.706Zm44.547,0h43.081v18.706h-43.081v-18.706Zm44.546,0h87.627v18.706h-87.627v-18.706Zm89.092,0h43.081v18.706h-43.081v-18.706Zm44.546,0h43.082v18.706h-43.082v-18.706Zm44.547,0h43.081v18.706h-43.081v-18.706Zm0-1.435v-18.707h43.081v18.707h-43.081Zm44.546-18.707h43.081v18.707h-43.081v-18.707Zm0-1.434v-18.707h43.081v18.707h-43.081Zm0-20.141v-18.707h43.081v18.707h-43.081Zm0-20.141v-18.707h43.081v18.707h-43.081Zm0-20.141v-18.707h43.081v18.707h-43.081Zm0-20.142v-18.707h43.081v18.707h-43.081Zm0-20.141v-18.706h43.081v18.706h-43.081Zm0-20.141v-18.707h43.081v18.707h-43.081Zm0-20.141v-18.707h43.081v18.707h-43.081Zm0-20.141v-18.707h43.081v18.707h-43.081ZM88.0618,126.303v18.707h-43.0808v-18.707h43.0808ZM44.981,347.856h43.0808v18.706h-43.0808v-18.706Zm400.916,18.706v-18.706h43.081v18.706h-43.081Z"
					fill="#e6e6e6" />
			</g>
		</g>
		<g id="homepage-u-flatview">
			<g id="homepage-u-view2">
				<g id="homepage-u-line-view2_to" transform="translate(900,364.289001)">
					<g id="homepage-u-line-view2_tr" transform="rotate(90)">
						<g id="homepage-u-line-view2_ts" transform="scale(0.2,0.2)">
							<g id="homepage-u-line-view2" transform="translate(-634.965515,-364.289001)">
								<path id="homepage-u-vector" d="M735,349.52h-200.069v1.969h200.069v-1.969Z"
									fill="#005f83" />
								<path id="homepage-u-vector_2" d="M735,363.304h-200.069v1.969h200.069v-1.969Z"
									fill="#005f83" />
								<path id="homepage-u-vector_3" d="M735,377.089h-200.069v1.969h200.069v-1.969Z"
									fill="#005f83" />
							</g>
						</g>
					</g>
				</g>
				<g id="homepage-u-weight">
					<g id="homepage-u-weight2">
						<path id="homepage-s-path1"
							d="M594.787,311.075c-.66,0-1.188-.146-1.584-.44-.381-.293-.66-.748-.836-1.364-.161-.616-.242-1.422-.242-2.42c0-.909.007-1.591.022-2.046.015-1.745-.007-3.146-.066-4.202-.044-1.056-.191-2.053-.44-2.992-.235-.938-.623-1.716-1.166-2.332.733-.557,1.533-.836,2.398-.836.763,0,1.364.235,1.804.704.455.47.785,1.254.99,2.354.205,1.086.308,2.596.308,4.532v4.664c-.015.352-.022.675-.022.968c0,.279,0,.536,0,.77h.264c1.584-1.848,2.779-3.652,3.586-5.412.807-1.774,1.305-3.219,1.496-4.334.015-.073.022-.146.022-.22.015-.073.022-.139.022-.198c0-.249-.059-.513-.176-.792-.117-.293-.271-.623-.462-.99-.044-.088-.088-.168-.132-.242-.029-.073-.051-.139-.066-.198.293-.278.587-.484.88-.616s.579-.198.858-.198c.616,0,1.093.191,1.43.572.337.367.506.888.506,1.562c0,.631-.11,1.335-.33,2.112-.22.763-.528,1.57-.924,2.42-.396.851-.917,1.848-1.562,2.992-.117.22-.22.396-.308.528-.851,1.438-1.591,2.56-2.222,3.366-.631.807-1.269,1.386-1.914,1.738-.645.367-1.357.55-2.134.55Zm9.394,0c-.777,0-1.386-.168-1.826-.506-.425-.322-.741-.799-.946-1.43-.191-.645-.323-1.488-.396-2.53l-.836-10.56c.308-.278.645-.484,1.012-.616s.719-.198,1.056-.198l.836,1.584.506,11.616h.264c1.657-2.698,2.882-4.979,3.674-6.842.807-1.862,1.21-3.256,1.21-4.18c0-.777-.176-1.488-.528-2.134.44-.278.88-.484,1.32-.616.455-.146.902-.22,1.342-.22.587,0,1.034.184,1.342.55.308.352.462.858.462,1.518c0,.646-.169,1.474-.506,2.486-.337.998-.873,2.252-1.606,3.762-.719,1.496-1.694,3.381-2.926,5.654l.484,1.034c-.44.47-1.034.858-1.782,1.166-.733.308-1.452.462-2.156.462Zm14.681-.088c-.792,0-1.364-.198-1.716-.594s-.528-1.034-.528-1.914c0-.733.102-1.833.308-3.3.205-1.481.601-3.96,1.188-7.436l-.968-1.958c1.393-.894,2.654-1.342,3.784-1.342.938,0,1.408.572,1.408,1.716c0,.25-.081.836-.242,1.76-.147.924-.316,1.907-.506,2.948-.338,1.966-.594,3.491-.77,4.576-.162,1.071-.242,1.834-.242,2.288c0,.558.058,1.02.176,1.386.132.352.344.668.638.946-.763.616-1.606.924-2.53.924Zm5.434-.022c-.866,0-1.694-.102-2.486-.308-.792-.19-1.577-.498-2.354-.924l.286-1.782h4.73c1.026-.146,2.002-.396,2.926-.748.146.396.22.807.22,1.232c0,.822-.279,1.452-.836,1.892-.558.426-1.386.638-2.486.638Zm-1.562-6.292c-.587,0-1.328-.117-2.222-.352l.396-2.112c.66.132,1.378.198,2.156.198l1.848-.462c.014.059.022.125.022.198c0,.074.007.14.022.198.014.074.022.154.022.242c0,.074,0,.147,0,.22c0,.587-.198,1.049-.594,1.386-.396.323-.946.484-1.65.484Zm2.244-5.874c-.675,0-1.423-.073-2.244-.22-.807-.161-1.496-.366-2.068-.616l.374-2.332c1.217,0,2.302-.073,3.256-.22.953-.146,2.141-.381,3.564-.704.102-.014.205-.036.308-.066.102-.029.198-.058.286-.088.102.44.154.851.154,1.232c0,.968-.33,1.716-.99,2.244-.66.514-1.54.77-2.64.77Zm9.511,12.166c-.792,0-1.364-.198-1.716-.594s-.528-1.034-.528-1.914c0-.718.096-1.811.286-3.278.206-1.466.609-3.945,1.21-7.436l-.968-1.958c1.394-.894,2.655-1.342,3.784-1.342.939,0,1.408.572,1.408,1.716c0,.396-.249,1.966-.748,4.708-.337,1.98-.594,3.506-.77,4.576-.161,1.056-.242,1.812-.242,2.266c0,.572.044,1.049.132,1.43.103.367.264.697.484.99-.733.558-1.51.836-2.332.836Zm14.255.11c-2.156,0-3.843-.579-5.06-1.738-1.218-1.173-1.826-2.801-1.826-4.884c0-1.892.44-3.6,1.32-5.126.894-1.525,2.119-2.72,3.674-3.586c1.554-.865,3.278-1.298,5.17-1.298c1.29,0,2.302.22,3.036.66.748.44,1.122,1.034,1.122,1.782c0,.631-.228,1.152-.682,1.562-.455.396-1.034.594-1.738.594s-1.35-.176-1.936-.528c-.587-.352-1.056-.872-1.408-1.562-.851.323-1.621.866-2.31,1.628-.69.748-1.232,1.643-1.628,2.684-.396,1.042-.594,2.149-.594,3.322c0,1.364.256,2.435.77,3.212.528.763,1.261,1.144,2.2,1.144.689,0,1.312-.176,1.87-.528.557-.366.997-.858,1.32-1.474.337-.616.528-1.312.572-2.09.278,0,.491.132.638.396.161.264.242.668.242,1.21c0,.836-.22,1.606-.66,2.31-.426.704-1.005,1.262-1.738,1.672-.719.426-1.504.638-2.354.638Zm4.026,3.41c-.763,0-1.32-.168-1.672-.506-.338-.337-.506-.843-.506-1.518c0-.542.132-1.415.396-2.618l2.266-3.806-.638-1.188-1.606-1.386c.586-.396,1.21-.718,1.87-.968.674-.249,1.298-.374,1.87-.374.557,0,.946.103,1.166.308.22.206.33.543.33,1.012c0,.25-.169.968-.506,2.156-.426,1.511-.756,2.794-.99,3.85-.235,1.056-.352,1.973-.352,2.75c0,.704.183,1.203.55,1.496-.675.528-1.401.792-2.178.792Zm20.937-3.498c-.792,0-1.364-.198-1.716-.594s-.528-1.034-.528-1.914c0-.733.103-1.826.308-3.278.205-1.466.609-3.952,1.21-7.458l-.99-1.958c1.393-.894,2.655-1.342,3.784-1.342.939,0,1.408.572,1.408,1.716c0,.25-.081.836-.242,1.76-.147.924-.315,1.907-.506,2.948-.337,1.966-.594,3.491-.77,4.576-.161,1.071-.242,1.834-.242,2.288c0,.572.044,1.049.132,1.43.103.367.264.697.484.99-.733.558-1.511.836-2.332.836Zm-9.724,0c-.792,0-1.364-.198-1.716-.594s-.528-1.034-.528-1.914c0-.718.095-1.811.286-3.278.205-1.466.609-3.952,1.21-7.458l-.968-1.958c1.393-.894,2.655-1.342,3.784-1.342.939,0,1.408.572,1.408,1.716c0,.25-.081.836-.242,1.76-.147.924-.315,1.907-.506,2.948-.337,1.966-.594,3.491-.77,4.576-.161,1.071-.242,1.834-.242,2.288c0,.572.044,1.049.132,1.43.103.367.264.697.484.99-.733.558-1.511.836-2.332.836Zm1.276-8.866h8.228l-.374,2.222h-8.272l.418-2.222Zm21.258,8.866c-.806,0-1.386-.22-1.738-.66-.337-.44-.506-1.136-.506-2.09c0-.777.125-2.016.374-3.718.264-1.716.712-4.348,1.342-7.898l3.872.748-.484,2.772c-.381,2.171-.667,3.828-.858,4.972-.19,1.144-.286,1.936-.286,2.376c0,1.188.206,2.076.616,2.662-.762.558-1.54.836-2.332.836Zm4.972-12.1c-.469,0-.953-.029-1.452-.088-.484-.073-1.056-.176-1.716-.308-.616-.117-1.18-.205-1.694-.264-.498-.073-.99-.11-1.474-.11l-3.41.726c-.22-.498-.33-1.063-.33-1.694c0-.806.25-1.415.748-1.826.499-.425,1.203-.638,2.112-.638.47,0,.961.037,1.474.11.514.059,1.086.147,1.716.264.66.132,1.225.235,1.694.308.484.059.968.096,1.452.11l3.41-.748c.22.484.33,1.049.33,1.694c0,.763-.256,1.364-.77,1.804-.498.44-1.195.66-2.09.66Z"
							fill="#3eb1c8" />
						<path id="homepage-s-path2"
							d="M593.203,310.635l-.61.793.008.006.007.005.595-.804Zm-.836-1.364l-.967.254.002.01.004.011.961-.275Zm-.22-4.466l1,.033v-.012-.012l-1-.009Zm-.066-4.202l-.999.042.001.014.998-.056Zm-.44-2.992l-.97.243.002.007.002.007.966-.257Zm-1.166-2.332l-.605-.796-.856.651.711.806.75-.661Zm4.202-.132l-.73.684.006.006.006.006.718-.696Zm.99,2.354l-.983.184v.002l.983-.186Zm.308,9.196l.999.042.001-.021v-.021h-1Zm-.022,1.738h-1v1h1v-1Zm.264,0v1h.46l.299-.349-.759-.651Zm3.586-5.412l.909.417.001-.003-.91-.414Zm1.496-4.334l-.981-.196-.002.014-.003.014.986.168Zm.022-.22l-.981-.196-.019.097v.099h1Zm-.154-.99l-.928.372.003.008.003.008.922-.388Zm-.462-.99l-.894.448.003.007.004.007.887-.462Zm-.132-.242l-.928.372.029.074.042.069.857-.515Zm-.066-.198l-.689-.725-.423.402.142.566.97-.243Zm.88-.616l.41.912v0l-.41-.912Zm2.288.374l-.749.663.006.007.007.007.736-.677Zm.176,3.674l.961.278.001-.005-.962-.273Zm-2.486,5.412l-.871-.491-.006.01-.005.011.882.47Zm-.308.528l-.832-.554-.015.022-.014.023.861.509Zm-2.222,3.366l-.788-.616v0l.788.616Zm-1.914,1.738l-.479-.877-.007.004-.008.004.494.869Zm5.434.044l.608-.793-.004-.003-.604.796Zm-.946-1.43l-.959.284.004.013.004.013.951-.31Zm-.396-2.53l.998-.07-.001-.009-.997.079Zm-.836-10.56l-.671-.741-.365.33.039.49.997-.079Zm1.012-.616l.339.941v0l-.339-.941Zm1.056-.198l.884-.466-.281-.534h-.603v1Zm.836,1.584l.999-.043-.01-.225-.105-.198-.884.466Zm.506,11.616l-.999.044.042.956h.957v-1Zm.264,0v1h.559l.293-.476-.852-.524Zm3.674-6.842l-.918-.397-.002.006.92.391Zm.682-6.314l-.535-.844-.791.501.448.822.878-.479Zm1.32-.616l.287.958.01-.003.01-.003-.307-.952Zm2.684.33l-.766.644.007.007.006.008.753-.659Zm-.044,4.004l.947.321.002-.004-.949-.317Zm-1.606,3.762l-.9-.436-.001.003.901.433Zm-2.926,5.654l-.879-.476-.241.443.214.457.906-.424Zm.484,1.034l.73.684.463-.494-.287-.614-.906.424Zm-1.782,1.166l-.381-.924-.006.002.387.922Zm-11.55-.538c-.518,0-.815-.114-.989-.243l-1.19,1.607c.618.458,1.377.636,2.179.636v-2Zm-.974-.232c-.163-.126-.348-.368-.484-.846l-1.923.549c.215.754.588,1.421,1.187,1.882l1.22-1.585Zm-.479-.825c-.131-.5-.209-1.212-.209-2.167h-2c0,1.041.083,1.942.275,2.674l1.934-.507Zm-.209-2.167c0-.907.007-1.575.022-2.013l-1.999-.065c-.016.472-.023,1.167-.023,2.078h2Zm.022-2.037c.015-1.755-.007-3.18-.068-4.266l-1.996.111c.057,1.025.079,2.402.064,4.138l2,.017Zm-.067-4.252c-.047-1.123-.203-2.192-.472-3.207l-1.933.513c.229.863.366,1.787.407,2.777l1.998-.083Zm-.469-3.193c-.266-1.066-.72-1.995-1.386-2.751l-1.5,1.322c.419.477.743,1.103.946,1.914l1.94-.485Zm-1.531-1.293c.571-.435,1.161-.633,1.793-.633v-2c-1.098,0-2.108.36-3.003,1.04l1.21,1.593Zm1.793-.633c.542,0,.859.158,1.074.388l1.46-1.368c-.664-.708-1.551-1.02-2.534-1.02v2Zm1.086.4c.251.26.533.813.725,1.842l1.966-.367c-.219-1.171-.597-2.187-1.255-2.866l-1.436,1.391Zm.725,1.844c.189.995.291,2.434.291,4.346h2c0-1.959-.103-3.542-.325-4.717l-1.966.371Zm.291,4.346v4.664h2v-4.664h-2Zm.001,4.623c-.015.363-.023.7-.023,1.009h2c0-.277.007-.585.021-.926l-1.998-.083Zm-.023,1.009c0,.001,0,.001,0,.002s0,.001,0,.002c0,0,0,.001,0,.001c0,.001,0,.001,0,.002c0,0,0,.001,0,.002c0,0,0,.001,0,.001c0,.001,0,.001,0,.002c0,0,0,.001,0,.001c0,.001,0,.002,0,.002c0,.001,0,.001,0,.002c0,0,0,.001,0,.001c0,.001,0,.001,0,.002s0,.001,0,.002c0,0,0,.001,0,.001c0,.001,0,.001,0,.002c0,0,0,.001,0,.001c0,.001,0,.002,0,.002c0,.001,0,.001,0,.002c0,0,0,.001,0,.001c0,.001,0,.001,0,.002s0,.001,0,.002c0,0,0,.001,0,.001c0,.001,0,.001,0,.002c0,0,0,.001,0,.001c0,.001,0,.002,0,.002c0,.001,0,.001,0,.002c0,0,0,.001,0,.001c0,.001,0,.001,0,.002c0,0,0,.001,0,.002c0,0,0,.001,0,.001c0,.001,0,.001,0,.002c0,0,0,.001,0,.001c0,.001,0,.001,0,.002s0,.001,0,.002c0,0,0,.001,0,.001c0,.001,0,.001,0,.002c0,0,0,.001,0,.001c0,.001,0,.002,0,.002c0,.001,0,.001,0,.002c0,0,0,.001,0,.001c0,.001,0,.001,0,.002c0,0,0,.001,0,.002c0,0,0,.001,0,.001c0,.001,0,.001,0,.002c0,0,0,.001,0,.001c0,.001,0,.001,0,.002s0,.001,0,.002c0,0,0,.001,0,.001c0,.001,0,.001,0,.002c0,0,0,.001,0,.001c0,.001,0,.001,0,.002s0,.001,0,.002c0,0,0,.001,0,.001c0,.001,0,.001,0,.002c0,0,0,.001,0,.001c0,.001,0,.002,0,.002c0,.001,0,.001,0,.002c0,0,0,.001,0,.001c0,.001,0,.001,0,.002c0,0,0,.001,0,.001c0,.001,0,.002,0,.002c0,.001,0,.001,0,.002c0,0,0,.001,0,.001c0,.001,0,.001,0,.002c0,0,0,.001,0,.001c0,.001,0,.002,0,.002c0,.001,0,.001,0,.002c0,0,0,.001,0,.001c0,.001,0,.001,0,.002c0,0,0,.001,0,.001c0,.001,0,.002,0,.002c0,.001,0,.001,0,.002c0,0,0,.001,0,.001c0,.001,0,.001,0,.002c0,0,0,.001,0,.001c0,.001,0,.002,0,.002c0,.001,0,.001,0,.002c0,0,0,.001,0,.001c0,.001,0,.001,0,.002c0,0,0,.001,0,.001c0,.001,0,.001,0,.002s0,.001,0,.002c0,0,0,.001,0,.001c0,.001,0,.001,0,.002c0,0,0,.001,0,.001c0,.001,0,.001,0,.002c0,0,0,.001,0,.002c0,0,0,.001,0,.001c0,.001,0,.001,0,.002c0,0,0,.001,0,.001c0,.001,0,.001,0,.002c0,0,0,.001,0,.001c0,.001,0,.002,0,.002c0,.001,0,.001,0,.002c0,0,0,.001,0,.001c0,.001,0,.001,0,.002c0,0,0,.001,0,.001c0,.001,0,.001,0,.002s0,.001,0,.002c0,0,0,.001,0,.001c0,.001,0,.001,0,.002c0,0,0,.001,0,.001c0,.001,0,.001,0,.002c0,0,0,.001,0,.001c0,.001,0,.002,0,.002c0,.001,0,.001,0,.002c0,0,0,.001,0,.001c0,.001,0,.001,0,.002c0,0,0,.001,0,.001c0,.001,0,.001,0,.002c0,0,0,.001,0,.002c0,0,0,.001,0,.001c0,.001,0,.001,0,.002c0,0,0,.001,0,.001c0,.001,0,.001,0,.002c0,0,0,.001,0,.001c0,.001,0,.001,0,.002s0,.001,0,.002c0,0,0,.001,0,.001c0,.001,0,.001,0,.002c0,0,0,.001,0,.001c0,.001,0,.001,0,.002c0,0,0,.001,0,.001c0,.001,0,.001,0,.002s0,.001,0,.002c0,0,0,.001,0,.001c0,.001,0,.001,0,.002c0,0,0,.001,0,.001c0,.001,0,.001,0,.002c0,0,0,.001,0,.001c0,.001,0,.001,0,.002s0,.001,0,.002c0,0,0,.001,0,.001c0,.001,0,.001,0,.002c0,0,0,.001,0,.001c0,.001,0,.001,0,.002c0,0,0,.001,0,.001c0,.001,0,.001,0,.002c0,0,0,.001,0,.002c0,0,0,.001,0,.001c0,.001,0,.001,0,.002c0,0,0,.001,0,.001c0,.001,0,.001,0,.002c0,0,0,.001,0,.001c0,.001,0,.001,0,.002c0,0,0,.001,0,.001c0,.001,0,.001,0,.002s0,.001,0,.002c0,0,0,.001,0,.001c0,.001,0,.001,0,.002c0,0,0,.001,0,.001c0,.001,0,.001,0,.002c0,0,0,.001,0,.001c0,.001,0,.001,0,.002c0,0,0,.001,0,.001c0,.001,0,.001,0,.002s0,.001,0,.002c0,0,0,.001,0,.001c0,.001,0,.001,0,.002c0,0,0,.001,0,.001c0,.001,0,.001,0,.002c0,0,0,.001,0,.001c0,.001,0,.001,0,.002c0,0,0,.001,0,.001c0,.001,0,.001,0,.002c0,0,0,.001,0,.002c0,0,0,.001,0,.001c0,.001,0,.001,0,.002c0,0,0,.001,0,.001c0,.001,0,.001,0,.002c0,0,0,.001,0,.001c0,.001,0,.001,0,.002c0,0,0,.001,0,.001c0,.001,0,.001,0,.002c0,0,0,.001,0,.001c0,.001,0,.001,0,.002c0,0,0,.001,0,.002c0,0,0,.001,0,.001c0,.001,0,.001,0,.002c0,0,0,.001,0,.001c0,.001,0,.001,0,.002c0,0,0,.001,0,.001c0,.001,0,.001,0,.002c0,0,0,.001,0,.001c0,.001,0,.001,0,.002c0,0,0,.001,0,.001c0,.001,0,.001,0,.002c0,0,0,.001,0,.001c0,.001,0,.002,0,.002c0,.001,0,.001,0,.002c0,0,0,.001,0,.001c0,.001,0,.001,0,.002c0,0,0,.001,0,.001c0,.001,0,.001,0,.002c0,0,0,.001,0,.001c0,.001,0,.001,0,.002c0,0,0,.001,0,.001c0,.001,0,.001,0,.002c0,0,0,.001,0,.001c0,.001,0,.001,0,.002c0,0,0,.001,0,.001c0,.001,0,.001,0,.002c0,0,0,.001,0,.001c0,.001,0,.002,0,.002c0,.001,0,.001,0,.002c0,0,0,.001,0,.001c0,.001,0,.001,0,.002c0,0,0,.001,0,.001c0,.001,0,.001,0,.002c0,0,0,.001,0,.001c0,.001,0,.001,0,.002c0,0,0,.001,0,.001c0,.001,0,.001,0,.002c0,0,0,.001,0,.001c0,.001,0,.001,0,.002c0,0,0,.001,0,.001c0,.001,0,.001,0,.002c0,0,0,.001,0,.001c0,.001,0,.001,0,.002c0,0,0,.001,0,.001c0,.001,0,.001,0,.002c0,0,0,.001,0,.001c0,.001,0,.001,0,.002s0,.001,0,.002c0,0,0,.001,0,.001c0,.001,0,.001,0,.002c0,0,0,.001,0,.001c0,.001,0,.001,0,.002c0,0,0,.001,0,.001c0,.001,0,.001,0,.002c0,0,0,.001,0,.001c0,.001,0,.001,0,.002c0,0,0,.001,0,.001c0,.001,0,.001,0,.002c0,0,0,.001,0,.001c0,.001,0,.001,0,.002c0,0,0,.001,0,.001c0,.001,0,.001,0,.002c0,0,0,.001,0,.001c0,.001,0,.001,0,.002c0,0,0,.001,0,.001c0,.001,0,.001,0,.002c0,0,0,.001,0,.001c0,.001,0,.001,0,.002c0,0,0,.001,0,.001c0,.001,0,.001,0,.002c0,0,0,.001,0,.001c0,.001,0,.001,0,.002c0,0,0,.001,0,.001c0,.001,0,.001,0,.002c0,0,0,.001,0,.001c0,.001,0,.001,0,.002c0,0,0,.001,0,.001c0,.001,0,.001,0,.002c0,0,0,.001,0,.001c0,.001,0,.001,0,.002c0,0,0,.001,0,.001c0,.001,0,.001,0,.002c0,0,0,.001,0,.001c0,.001,0,.001,0,.002c0,0,0,.001,0,.001c0,.001,0,.001,0,.002c0,0,0,.001,0,.001c0,.001,0,.001,0,.002c0,0,0,.001,0,.001c0,.001,0,.001,0,.002c0,0,0,.001,0,.001c0,.001,0,.001,0,.002c0,0,0,.001,0,.001c0,.001,0,.001,0,.002c0,0,0,.001,0,.001c0,.001,0,.001,0,.002c0,0,0,.001,0,.001c0,.001,0,.001,0,.002c0,0,0,.001,0,.001c0,.001,0,.001,0,.002c0,0,0,.001,0,.001c0,.001,0,.001,0,.002c0,0,0,.001,0,.001c0,.001,0,.001,0,.002c0,0,0,.001,0,.001c0,.001,0,.001,0,.002c0,0,0,.001,0,.001c0,.001,0,.001,0,.002c0,0,0,.001,0,.001c0,.001,0,.001,0,.002c0,0,0,.001,0,.001c0,.001,0,.001,0,.002c0,0,0,.001,0,.001c0,.001,0,.001,0,.002c0,0,0,.001,0,.001c0,.001,0,.001,0,.002c0,0,0,.001,0,.001c0,.001,0,.001,0,.002c0,0,0,.001,0,.001c0,.001,0,.001,0,.002c0,0,0,.001,0,.001c0,.001,0,.001,0,.002c0,0,0,.001,0,.001c0,.001,0,.001,0,.002c0,0,0,.001,0,.001c0,.001,0,.001,0,.002c0,0,0,.001,0,.001c0,.001,0,.001,0,.002c0,0,0,0,0,.001c0,0,0,.001,0,.001c0,.001,0,.001,0,.002c0,0,0,.001,0,.001c0,.001,0,.001,0,.002c0,0,0,.001,0,.001c0,.001,0,.001,0,.002c0,0,0,.001,0,.001c0,.001,0,.001,0,.002c0,0,0,.001,0,.001c0,.001,0,.001,0,.002c0,0,0,.001,0,.001c0,.001,0,.001,0,.002c0,0,0,.001,0,.001c0,.001,0,.001,0,.002c0,0,0,.001,0,.001c0,.001,0,.001,0,.002c0,0,0,.001,0,.001c0,.001,0,.001,0,.002c0,0,0,.001,0,.001s0,.001,0,.001c0,.001,0,.001,0,.002c0,0,0,.001,0,.001c0,.001,0,.001,0,.002c0,0,0,.001,0,.001c0,.001,0,.001,0,.002c0,0,0,.001,0,.001c0,.001,0,.001,0,.002c0,0,0,.001,0,.001c0,.001,0,.001,0,.002c0,0,0,.001,0,.001c0,.001,0,.001,0,.002c0,0,0,.001,0,.001c0,.001,0,.001,0,.002c0,0,0,.001,0,.001s0,.001,0,.001c0,.001,0,.001,0,.002c0,0,0,.001,0,.001c0,.001,0,.001,0,.002c0,0,0,.001,0,.001c0,.001,0,.001,0,.002c0,0,0,.001,0,.001c0,.001,0,.001,0,.002c0,0,0,.001,0,.001c0,.001,0,.001,0,.002c0,0,0,.001,0,.001c0,.001,0,.001,0,.002c0,0,0,0,0,.001c0,0,0,.001,0,.001c0,.001,0,.001,0,.002c0,0,0,.001,0,.001c0,.001,0,.001,0,.002c0,0,0,.001,0,.001c0,.001,0,.001,0,.002c0,0,0,.001,0,.001c0,.001,0,.001,0,.002c0,0,0,.001,0,.001c0,.001,0,.001,0,.001c0,.001,0,.001,0,.002c0,0,0,.001,0,.001c0,.001,0,.001,0,.002c0,0,0,.001,0,.001c0,.001,0,.001,0,.002c0,0,0,.001,0,.001c0,.001,0,.001,0,.002c0,0,0,.001,0,.001c0,.001,0,.001,0,.002c0,0,0,0,0,.001c0,0,0,.001,0,.001c0,.001,0,.001,0,.002c0,0,0,.001,0,.001c0,.001,0,.001,0,.002c0,0,0,.001,0,.001c0,.001,0,.001,0,.002c0,0,0,.001,0,.001c0,.001,0,.001,0,.002c0,0,0,0,0,.001c0,0,0,.001,0,.001c0,.001,0,.001,0,.002c0,0,0,.001,0,.001c0,.001,0,.001,0,.002c0,0,0,.001,0,.001c0,.001,0,.001,0,.002c0,0,0,.001,0,.001c0,.001,0,.001,0,.001c0,.001,0,.001,0,.002c0,0,0,.001,0,.001c0,.001,0,.001,0,.002c0,0,0,.001,0,.001c0,.001,0,.001,0,.002c0,0,0,.001,0,.001c0,.001,0,.001,0,.002c0,0,0,0,0,.001c0,0,0,.001,0,.001c0,.001,0,.001,0,.002c0,0,0,.001,0,.001c0,.001,0,.001,0,.002c0,0,0,.001,0,.001c0,.001,0,.001,0,.002c0,0,0,0,0,.001c0,0,0,.001,0,.001c0,.001,0,.001,0,.002c0,0,0,.001,0,.001c0,.001,0,.001,0,.002c0,0,0,.001,0,.001c0,.001,0,.001,0,.002c0,0,0,0,0,.001c0,0,0,.001,0,.001c0,.001,0,.001,0,.002c0,0,0,.001,0,.001c0,.001,0,.001,0,.002c0,0,0,.001,0,.001c0,.001,0,.001,0,.002c0,0,0,0,0,.001c0,0,0,.001,0,.001c0,.001,0,.001,0,.002c0,0,0,.001,0,.001c0,.001,0,.001,0,.002c0,0,0,.001,0,.001c0,.001,0,.001,0,.001c0,.001,0,.001,0,.002c0,0,0,.001,0,.001c0,.001,0,.001,0,.002c0,0,0,.001,0,.001c0,.001,0,.001,0,.002c0,0,0,0,0,.001c0,0,0,.001,0,.001c0,.001,0,.001,0,.002c0,0,0,.001,0,.001c0,.001,0,.001,0,.002c0,0,0,.001,0,.001c0,.001,0,.001,0,.001c0,.001,0,.001,0,.002c0,0,0,.001,0,.001c0,.001,0,.001,0,.002c0,0,0,.001,0,.001c0,.001,0,.001,0,.002c0,0,0,0,0,.001c0,0,0,.001,0,.001c0,.001,0,.001,0,.002c0,0,0,.001,0,.001c0,.001,0,.001,0,.002c0,0,0,0,0,.001c0,0,0,.001,0,.001c0,.001,0,.001,0,.002c0,0,0,.001,0,.001c0,.001,0,.001,0,.002c0,0,0,.001,0,.001s0,.001,0,.001c0,.001,0,.001,0,.002c0,0,0,.001,0,.001c0,.001,0,.001,0,.002c0,0,0,.001,0,.001s0,.001,0,.001c0,.001,0,.001,0,.002c0,0,0,.001,0,.001c0,.001,0,.001,0,.002c0,0,0,.001,0,.001s0,.001,0,.001c0,.001,0,.001,0,.002c0,0,0,.001,0,.001c0,.001,0,.001,0,.002c0,0,0,.001,0,.001s0,.001,0,.001c0,.001,0,.001,0,.002c0,0,0,.001,0,.001c0,.001,0,.001,0,.002c0,0,0,.001,0,.001s0,.001,0,.001c0,.001,0,.001,0,.002c0,0,0,.001,0,.001c0,.001,0,.001,0,.002c0,0,0,.001,0,.001s0,.001,0,.001c0,.001,0,.001,0,.002c0,0,0,.001,0,.001c0,.001,0,.001,0,.002c0,0,0,0,0,.001c0,0,0,.001,0,.001c0,.001,0,.001,0,.002c0,0,0,.001,0,.001c0,.001,0,.001,0,.001c0,.001,0,.001,0,.002c0,0,0,.001,0,.001c0,.001,0,.001,0,.002c0,0,0,.001,0,.001s0,.001,0,.001c0,.001,0,.001,0,.002c0,0,0,.001,0,.001c0,.001,0,.001,0,.002c0,0,0,0,0,.001c0,0,0,.001,0,.001c0,.001,0,.001,0,.002c0,0,0,.001,0,.001c0,.001,0,.001,0,.001c0,.001,0,.001,0,.002c0,0,0,.001,0,.001c0,.001,0,.001,0,.002c0,0,0,.001,0,.001s0,.001,0,.001c0,.001,0,.001,0,.002c0,0,0,.001,0,.001c0,.001,0,.001,0,.002c0,0,0,0,0,.001c0,0,0,.001,0,.001c0,.001,0,.001,0,.002c0,0,0,.001,0,.001s0,.001,0,.001h2c0,0,0-.001,0-.001s0-.001,0-.001c0-.001,0-.001,0-.002c0,0,0-.001,0-.001c0-.001,0-.001,0-.001c0-.001,0-.001,0-.002c0,0,0-.001,0-.001c0-.001,0-.001,0-.002c0,0,0-.001,0-.001s0-.001,0-.001c0-.001,0-.001,0-.002c0,0,0-.001,0-.001c0-.001,0-.001,0-.002c0,0,0,0,0-.001c0,0,0-.001,0-.001c0-.001,0-.001,0-.002c0,0,0-.001,0-.001c0-.001,0-.001,0-.001c0-.001,0-.001,0-.002c0,0,0-.001,0-.001c0-.001,0-.001,0-.002c0,0,0-.001,0-.001s0-.001,0-.001c0-.001,0-.001,0-.002c0,0,0-.001,0-.001c0-.001,0-.001,0-.002c0,0,0,0,0-.001c0,0,0-.001,0-.001c0-.001,0-.001,0-.002c0,0,0-.001,0-.001c0-.001,0-.001,0-.001c0-.001,0-.001,0-.002c0,0,0-.001,0-.001c0-.001,0-.001,0-.002c0,0,0-.001,0-.001s0-.001,0-.001c0-.001,0-.001,0-.002c0,0,0-.001,0-.001c0-.001,0-.001,0-.002c0,0,0-.001,0-.001s0-.001,0-.001c0-.001,0-.001,0-.002c0,0,0-.001,0-.001c0-.001,0-.001,0-.002c0,0,0-.001,0-.001s0-.001,0-.001c0-.001,0-.001,0-.002c0,0,0-.001,0-.001c0-.001,0-.001,0-.002c0,0,0-.001,0-.001s0-.001,0-.001c0-.001,0-.001,0-.002c0,0,0-.001,0-.001c0-.001,0-.001,0-.002c0,0,0-.001,0-.001s0-.001,0-.001c0-.001,0-.001,0-.002c0,0,0-.001,0-.001c0-.001,0-.001,0-.002c0,0,0-.001,0-.001s0-.001,0-.001c0-.001,0-.001,0-.002c0,0,0-.001,0-.001c0-.001,0-.001,0-.002c0,0,0-.001,0-.001c0-.001,0-.001,0-.001c0-.001,0-.001,0-.002c0,0,0-.001,0-.001c0-.001,0-.001,0-.002c0,0,0-.001,0-.001c0-.001,0-.001,0-.001c0-.001,0-.001,0-.002c0,0,0-.001,0-.001c0-.001,0-.001,0-.002c0,0,0-.001,0-.001c0-.001,0-.001,0-.002c0,0,0,0,0-.001c0,0,0-.001,0-.001c0-.001,0-.001,0-.002c0,0,0-.001,0-.001c0-.001,0-.001,0-.002c0,0,0-.001,0-.001c0-.001,0-.001,0-.001c0-.001,0-.001,0-.002c0,0,0-.001,0-.001c0-.001,0-.001,0-.002c0,0,0-.001,0-.001c0-.001,0-.001,0-.002c0,0,0,0,0-.001c0,0,0-.001,0-.001c0-.001,0-.001,0-.002c0,0,0-.001,0-.001c0-.001,0-.001,0-.002c0,0,0-.001,0-.001c0-.001,0-.001,0-.001c0-.001,0-.001,0-.002c0,0,0-.001,0-.001c0-.001,0-.001,0-.002c0,0,0-.001,0-.001c0-.001,0-.001,0-.002c0,0,0-.001,0-.001c0-.001,0-.001,0-.001c0-.001,0-.001,0-.002c0,0,0-.001,0-.001c0-.001,0-.001,0-.002c0,0,0-.001,0-.001c0-.001,0-.001,0-.002c0,0,0-.001,0-.001c0-.001,0-.001,0-.001c0-.001,0-.001,0-.002c0,0,0-.001,0-.001c0-.001,0-.001,0-.002c0,0,0-.001,0-.001c0-.001,0-.001,0-.002c0,0,0-.001,0-.001c0-.001,0-.001,0-.001c0-.001,0-.001,0-.002c0,0,0-.001,0-.001c0-.001,0-.001,0-.002c0,0,0-.001,0-.001c0-.001,0-.001,0-.002c0,0,0-.001,0-.001c0-.001,0-.001,0-.002c0,0,0,0,0-.001c0,0,0-.001,0-.001c0-.001,0-.001,0-.002c0,0,0-.001,0-.001c0-.001,0-.001,0-.002c0,0,0-.001,0-.001c0-.001,0-.001,0-.002c0,0,0-.001,0-.001c0-.001,0-.001,0-.001c0-.001,0-.001,0-.002c0,0,0-.001,0-.001c0-.001,0-.001,0-.002c0,0,0-.001,0-.001c0-.001,0-.001,0-.002c0,0,0-.001,0-.001c0-.001,0-.001,0-.002c0,0,0-.001,0-.001c0-.001,0-.001,0-.001c0-.001,0-.001,0-.002c0,0,0-.001,0-.001c0-.001,0-.001,0-.002c0,0,0-.001,0-.001c0-.001,0-.001,0-.002c0,0,0-.001,0-.001c0-.001,0-.001,0-.002c0,0,0-.001,0-.001c0-.001,0-.001,0-.002c0,0,0,0,0-.001c0,0,0-.001,0-.001c0-.001,0-.001,0-.002c0,0,0-.001,0-.001c0-.001,0-.001,0-.002c0,0,0-.001,0-.001c0-.001,0-.001,0-.002c0,0,0-.001,0-.001c0-.001,0-.001,0-.002c0,0,0-.001,0-.001c0-.001,0-.001,0-.001c0-.001,0-.001,0-.002c0,0,0-.001,0-.001c0-.001,0-.001,0-.002c0,0,0-.001,0-.001c0-.001,0-.001,0-.002c0,0,0-.001,0-.001c0-.001,0-.001,0-.002c0,0,0-.001,0-.001c0-.001,0-.001,0-.002c0,0,0-.001,0-.001c0-.001,0-.001,0-.002c0,0,0-.001,0-.001s0-.001,0-.001c0-.001,0-.001,0-.002c0,0,0-.001,0-.001c0-.001,0-.001,0-.002c0,0,0-.001,0-.001c0-.001,0-.001,0-.002c0,0,0-.001,0-.001c0-.001,0-.001,0-.002c0,0,0-.001,0-.001c0-.001,0-.001,0-.002c0,0,0-.001,0-.001c0-.001,0-.001,0-.002c0,0,0-.001,0-.001c0-.001,0-.001,0-.002c0,0,0-.001,0-.001s0-.001,0-.001c0-.001,0-.001,0-.002c0,0,0-.001,0-.001c0-.001,0-.001,0-.002c0,0,0-.001,0-.001c0-.001,0-.001,0-.002c0,0,0-.001,0-.001c0-.001,0-.001,0-.002c0,0,0-.001,0-.001c0-.001,0-.001,0-.002c0,0,0-.001,0-.001c0-.001,0-.001,0-.002c0,0,0-.001,0-.001c0-.001,0-.001,0-.002c0,0,0-.001,0-.001c0-.001,0-.001,0-.002c0,0,0-.001,0-.001c0-.001,0-.001,0-.002c0,0,0-.001,0-.001c0-.001,0-.001,0-.001c0-.001,0-.001,0-.002c0,0,0-.001,0-.001c0-.001,0-.001,0-.002c0,0,0-.001,0-.001c0-.001,0-.001,0-.002c0,0,0-.001,0-.001c0-.001,0-.001,0-.002c0,0,0-.001,0-.001c0-.001,0-.001,0-.002c0,0,0-.001,0-.001c0-.001,0-.001,0-.002c0,0,0-.001,0-.001c0-.001,0-.001,0-.002c0,0,0-.001,0-.001c0-.001,0-.001,0-.002c0,0,0-.001,0-.001c0-.001,0-.001,0-.002c0,0,0-.001,0-.001c0-.001,0-.001,0-.002c0,0,0-.001,0-.001c0-.001,0-.001,0-.002c0,0,0-.001,0-.001c0-.001,0-.001,0-.002c0,0,0-.001,0-.001c0-.001,0-.001,0-.002c0,0,0-.001,0-.001c0-.001,0-.001,0-.002c0,0,0-.001,0-.001c0-.001,0-.001,0-.002c0,0,0-.001,0-.001c0-.001,0-.001,0-.002c0,0,0-.001,0-.001c0-.001,0-.001,0-.002c0,0,0-.001,0-.001c0-.001,0-.001,0-.002c0,0,0-.001,0-.001c0-.001,0-.001,0-.002c0,0,0-.001,0-.001c0-.001,0-.001,0-.002c0,0,0-.001,0-.001c0-.001,0-.001,0-.002c0,0,0-.001,0-.001c0-.001,0-.001,0-.002c0,0,0-.001,0-.001c0-.001,0-.001,0-.002c0,0,0-.001,0-.001c0-.001,0-.001,0-.002c0,0,0-.001,0-.001c0-.001,0-.001,0-.002c0,0,0-.001,0-.001c0-.001,0-.001,0-.002c0,0,0-.001,0-.001c0-.001,0-.001,0-.002c0,0,0-.001,0-.001c0-.001,0-.001,0-.002c0,0,0-.001,0-.001c0-.001,0-.001,0-.002c0,0,0-.001,0-.001c0-.001,0-.001,0-.002c0,0,0-.001,0-.001c0-.001,0-.001,0-.002c0,0,0-.001,0-.001c0-.001,0-.001,0-.002c0,0,0-.001,0-.001c0-.001,0-.001,0-.002c0,0,0-.001,0-.001c0-.001,0-.001,0-.002c0,0,0-.001,0-.001c0-.001,0-.001,0-.002c0,0,0-.001,0-.001c0-.001,0-.001,0-.002c0,0,0-.001,0-.001c0-.001,0-.001,0-.002c0,0,0-.001,0-.001c0-.001,0-.001,0-.002c0,0,0-.001,0-.001c0-.001,0-.001,0-.002c0,0,0-.001,0-.001c0-.001,0-.001,0-.002c0,0,0-.001,0-.001c0-.001,0-.001,0-.002s0-.001,0-.002c0,0,0-.001,0-.001c0-.001,0-.001,0-.002c0,0,0-.001,0-.001c0-.001,0-.001,0-.002c0,0,0-.001,0-.001c0-.001,0-.001,0-.002c0,0,0-.001,0-.001c0-.001,0-.001,0-.002c0,0,0-.001,0-.001c0-.001,0-.001,0-.002c0,0,0-.001,0-.001c0-.001,0-.001,0-.002c0,0,0-.001,0-.001c0-.001,0-.001,0-.002c0,0,0-.001,0-.001c0-.001,0-.001,0-.002c0,0,0-.001,0-.001c0-.001,0-.001,0-.002c0,0,0-.001,0-.002c0,0,0-.001,0-.001c0-.001,0-.001,0-.002c0,0,0-.001,0-.001c0-.001,0-.001,0-.002c0,0,0-.001,0-.001c0-.001,0-.001,0-.002c0,0,0-.001,0-.001c0-.001,0-.001,0-.002c0,0,0-.001,0-.001c0-.001,0-.001,0-.002c0,0,0-.001,0-.001c0-.001,0-.001,0-.002c0,0,0-.001,0-.001c0-.001,0-.001,0-.002c0,0,0-.001,0-.002c0,0,0-.001,0-.001c0-.001,0-.001,0-.002c0,0,0-.001,0-.001c0-.001,0-.001,0-.002c0,0,0-.001,0-.001c0-.001,0-.001,0-.002c0,0,0-.001,0-.001c0-.001,0-.001,0-.002c0,0,0-.001,0-.001c0-.001,0-.001,0-.002c0,0,0-.001,0-.001c0-.001,0-.002,0-.002c0-.001,0-.001,0-.002c0,0,0-.001,0-.001c0-.001,0-.001,0-.002c0,0,0-.001,0-.001c0-.001,0-.001,0-.002c0,0,0-.001,0-.001c0-.001,0-.001,0-.002c0,0,0-.001,0-.001c0-.001,0-.001,0-.002c0,0,0-.001,0-.001c0-.001,0-.002,0-.002c0-.001,0-.001,0-.002c0,0,0-.001,0-.001c0-.001,0-.001,0-.002c0,0,0-.001,0-.001c0-.001,0-.001,0-.002c0,0,0-.001,0-.001c0-.001,0-.001,0-.002c0,0,0-.001,0-.001c0-.001,0-.001,0-.002s0-.001,0-.002c0,0,0-.001,0-.001c0-.001,0-.001,0-.002c0,0,0-.001,0-.001c0-.001,0-.001,0-.002c0,0,0-.001,0-.001c0-.001,0-.001,0-.002c0,0,0-.001,0-.001c0-.001,0-.001,0-.002s0-.001,0-.002c0,0,0-.001,0-.001c0-.001,0-.001,0-.002c0,0,0-.001,0-.001c0-.001,0-.001,0-.002c0,0,0-.001,0-.001c0-.001,0-.001,0-.002c0,0,0-.001,0-.001c0-.001,0-.002,0-.002c0-.001,0-.001,0-.002c0,0,0-.001,0-.001c0-.001,0-.001,0-.002c0,0,0-.001,0-.001c0-.001,0-.001,0-.002c0,0,0-.001,0-.001c0-.001,0-.001,0-.002s0-.001,0-.002c0,0,0-.001,0-.001c0-.001,0-.001,0-.002c0,0,0-.001,0-.001c0-.001,0-.001,0-.002c0,0,0-.001,0-.001c0-.001,0-.001,0-.002s0-.001,0-.002c0,0,0-.001,0-.001c0-.001,0-.001,0-.002c0,0,0-.001,0-.001c0-.001,0-.001,0-.002c0,0,0-.001,0-.001c0-.001,0-.001,0-.002s0-.001,0-.002c0,0,0-.001,0-.001c0-.001,0-.001,0-.002c0,0,0-.001,0-.001c0-.001,0-.001,0-.002c0,0,0-.001,0-.001c0-.001,0-.002,0-.002c0-.001,0-.001,0-.002c0,0,0-.001,0-.001c0-.001,0-.001,0-.002c0,0,0-.001,0-.001c0-.001,0-.001,0-.002c0,0,0-.001,0-.002c0,0,0-.001,0-.001c0-.001,0-.001,0-.002c0,0,0-.001,0-.001c0-.001,0-.001,0-.002c0,0,0-.001,0-.001c0-.001,0-.001,0-.002s0-.001,0-.002c0,0,0-.001,0-.001c0-.001,0-.001,0-.002c0,0,0-.001,0-.001c0-.001,0-.001,0-.002c0,0,0-.001,0-.002c0,0,0-.001,0-.001c0-.001,0-.001,0-.002c0,0,0-.001,0-.001c0-.001,0-.001,0-.002c0,0,0-.001,0-.001c0-.001,0-.002,0-.002c0-.001,0-.001,0-.002c0,0,0-.001,0-.001c0-.001,0-.001,0-.002c0,0,0-.001,0-.001c0-.001,0-.001,0-.002s0-.001,0-.002c0,0,0-.001,0-.001c0-.001,0-.001,0-.002c0,0,0-.001,0-.001c0-.001,0-.001,0-.002c0,0,0-.001,0-.002c0,0,0-.001,0-.001c0-.001,0-.001,0-.002c0,0,0-.001,0-.001c0-.001,0-.001,0-.002c0,0,0-.001,0-.002c0,0,0-.001,0-.001c0-.001,0-.001,0-.002c0,0,0-.001,0-.001c0-.001,0-.001,0-.002c0,0,0-.001,0-.002c0,0,0-.001,0-.001c0-.001,0-.001,0-.002c0,0,0-.001,0-.001c0-.001,0-.001,0-.002c0,0,0-.001,0-.002c0,0,0-.001,0-.001c0-.001,0-.001,0-.002c0,0,0-.001,0-.001c0-.001,0-.001,0-.002c0,0,0-.001,0-.002c0,0,0-.001,0-.001c0-.001,0-.001,0-.002c0,0,0-.001,0-.001c0-.001,0-.001,0-.002s0-.001,0-.002c0,0,0-.001,0-.001c0-.001,0-.001,0-.002c0,0,0-.001,0-.001c0-.001,0-.001,0-.002s0-.001,0-.002c0,0,0-.001,0-.001c0-.001,0-.001,0-.002c0,0,0-.001,0-.001c0-.001,0-.002,0-.002c0-.001,0-.001,0-.002c0,0,0-.001,0-.001c0-.001,0-.001,0-.002c0,0,0-.001,0-.002c0,0,0-.001,0-.001c0-.001,0-.001,0-.002c0,0,0-.001,0-.001c0-.001,0-.001,0-.002s0-.001,0-.002c0,0,0-.001,0-.001c0-.001,0-.001,0-.002c0,0,0-.001,0-.001c0-.001,0-.002,0-.002c0-.001,0-.001,0-.002c0,0,0-.001,0-.001c0-.001,0-.001,0-.002c0,0,0-.001,0-.002c0,0,0-.001,0-.001c0-.001,0-.001,0-.002c0,0,0-.001,0-.001c0-.001,0-.001,0-.002s0-.001,0-.002c0,0,0-.001,0-.001c0-.001,0-.001,0-.002c0,0,0-.001,0-.002c0,0,0-.001,0-.001c0-.001,0-.001,0-.002c0,0,0-.001,0-.001c0-.001,0-.001,0-.002s0-.001,0-.002c0,0,0-.001,0-.001c0-.001,0-.001,0-.002c0,0,0-.001,0-.002c0,0,0-.001,0-.001c0-.001,0-.001,0-.002c0,0,0-.001,0-.001c0-.001,0-.002,0-.002c0-.001,0-.001,0-.002c0,0,0-.001,0-.001c0-.001,0-.001,0-.002s0-.001,0-.002h-2Zm1,1.77h.264v-2h-.264v2Zm1.023-.349c1.63-1.901,2.882-3.783,3.736-5.646l-1.818-.833c-.759,1.657-1.898,3.383-3.436,5.178l1.518,1.301Zm3.737-5.649c.821-1.805,1.36-3.34,1.572-4.579l-1.972-.337c-.169.99-.628,2.344-1.42,4.089l1.82.827Zm1.567-4.551c.027-.137.041-.276.041-.417h-2c0,.007-.001.014-.003.024l1.962.393Zm.022-.22c.024-.122.041-.255.041-.395h-2c0-.012.001-.018.001-.017s-.001.008-.004.019l1.962.393Zm.041-.395c0-.407-.096-.804-.254-1.18l-1.844.776c.077.182.098.313.098.404h2Zm-.247-1.163c-.133-.332-.302-.692-.504-1.08l-1.774.923c.18.345.319.645.421.9l1.857-.743Zm-.497-1.066c-.053-.107-.11-.211-.168-.309l-1.715,1.029c.029.048.06.106.095.175l1.788-.895Zm-.097-.166c-.018-.043-.024-.065-.025-.069l-1.94.485c.028.113.066.223.108.327l1.857-.743Zm-.306.898c.232-.22.433-.353.601-.429l-.82-1.824c-.419.189-.804.466-1.159.803l1.378,1.45Zm.601-.429c.185-.083.331-.11.448-.11v-2c-.44,0-.866.105-1.268.286l.82,1.824Zm.448-.11c.395,0,.573.113.681.235l1.498-1.325c-.567-.641-1.342-.91-2.179-.91v2Zm.694.249c.115.125.242.371.242.885h2c0-.835-.21-1.63-.77-2.239l-1.472,1.354Zm.242.885c0,.517-.091,1.128-.292,1.84l1.924.545c.239-.843.368-1.64.368-2.385h-2Zm-.291,1.835c-.203.705-.492,1.463-.87,2.275l1.814.844c.414-.889.741-1.744.978-2.564l-1.922-.555Zm-.87,2.275c-.381.82-.889,1.794-1.526,2.923l1.742.983c.653-1.159,1.187-2.18,1.598-3.062l-1.814-.844Zm-1.537,2.944c-.11.205-.195.35-.258.444l1.664,1.109c.113-.17.233-.377.358-.612l-1.764-.941Zm-.287.489c-.84,1.42-1.556,2.501-2.149,3.259l1.576,1.232c.668-.855,1.434-2.018,2.295-3.472l-1.722-1.019Zm-2.149,3.259c-.577.739-1.117,1.21-1.605,1.477l.958,1.755c.802-.437,1.539-1.125,2.223-2l-1.576-1.232Zm-1.62,1.485c-.487.277-1.027.419-1.64.419v2c.942,0,1.825-.224,2.628-.68l-.988-1.739Zm7.754.419c-.644,0-1.01-.14-1.218-.299l-1.216,1.587c.672.516,1.523.712,2.434.712v-2Zm-1.222-.302c-.227-.173-.441-.459-.599-.943l-1.902.619c.253.777.669,1.444,1.293,1.917l1.208-1.593Zm-.591-.917c-.162-.549-.287-1.313-.357-2.317l-1.995.141c.075,1.078.215,2.001.434,2.743l1.918-.567Zm-.358-2.326l-.836-10.56-1.994.158.836,10.56l1.994-.158Zm-1.162-9.739c.218-.197.444-.332.68-.417l-.678-1.881c-.497.179-.946.455-1.344.815l1.342,1.483Zm.68-.417c.274-.099.512-.139.717-.139v-2c-.469,0-.936.092-1.395.258l.678,1.881Zm-.167-.672l.836,1.584l1.768-.933-.836-1.584-1.768.933Zm.721,1.161l.506,11.616l1.998-.087-.506-11.616-1.998.087Zm1.505,12.572h.264v-2h-.264v2Zm1.116-.476c1.671-2.72,2.923-5.048,3.742-6.974l-1.84-.783c-.765,1.799-1.962,4.033-3.606,6.71l1.704,1.047Zm3.74-6.968c.811-1.874,1.292-3.431,1.292-4.578h-2c0,.702-.326,1.931-1.128,3.783l1.836.795Zm1.292-4.578c0-.934-.213-1.812-.65-2.612l-1.756.957c.267.49.406,1.035.406,1.655h2Zm-.993-1.289c.373-.236.73-.4,1.072-.503l-.574-1.915c-.538.161-1.061.408-1.568.729l1.07,1.689Zm1.092-.509c.364-.117.708-.172,1.035-.172v-2c-.553,0-1.104.093-1.649.269l.614,1.903Zm1.035-.172c.364,0,.501.103.576.194l1.532-1.287c-.541-.643-1.299-.907-2.108-.907v2Zm.589.209c.094.107.215.343.215.859h2c0-.803-.187-1.579-.709-2.176l-1.506,1.317Zm.215.859c0,.491-.132,1.203-.455,2.17l1.898.633c.352-1.057.557-2.003.557-2.803h-2Zm-.453,2.166c-.319.941-.834,2.153-1.559,3.646l1.8.873c.742-1.529,1.297-2.825,1.653-3.878l-1.894-.641Zm-1.56,3.649c-.709,1.476-1.676,3.345-2.904,5.611l1.758.953c1.236-2.281,2.22-4.181,2.948-5.698l-1.802-.866Zm-2.931,6.511l.484,1.034l1.812-.848-.484-1.034-1.812.848Zm.66-.074c-.32.342-.784.659-1.433.926l.762,1.849c.847-.349,1.571-.81,2.131-1.407l-1.46-1.368Zm-1.439.928c-.627.264-1.214.384-1.769.384v2c.853,0,1.703-.187,2.543-.54l-.774-1.844Zm11.196.702l.747-.664v0l-.747.664Zm-.22-5.214l.99.139v-.001l-.99-.138Zm1.188-7.436l.986.167.054-.319-.144-.291-.896.443Zm-.968-1.958l-.541-.841-.752.483.396.802.897-.444Zm4.95,2.134l-.986-.172-.001.008-.001.008.988.156Zm-.506,2.948l-.984-.18-.002.011.986.169Zm-.77,4.576l-.988-.16-.001.011.989.149Zm-.066,3.674l-.953.305.008.024.008.023.937-.352Zm.638.946l.628.778.888-.717-.828-.786-.688.725Zm.418.594l.251-.968-.009-.002-.008-.002-.234.972Zm-2.354-.924l-.988-.158-.112.697.62.339.48-.878Zm.286-1.782v-1h-.853l-.135.842.988.158Zm4.73,0v1h.071l.07-.01-.141-.99Zm2.926-.748l.937-.347-.35-.946-.943.359.356.934Zm-.616,3.124l.606.795.007-.005.006-.005-.619-.785Zm-6.27-6.006l-.983-.184-.172.915.901.237.254-.968Zm.396-2.112l.196-.98-.993-.199-.186.995.983.184Zm2.156.198v1h.123l.119-.029-.242-.971Zm1.848-.462l.97-.242-.243-.97-.97.242.243.97Zm.044.396l.98-.196-.005-.023-.005-.023-.97.242Zm-.572,1.848l.631.776.009-.007.008-.007-.648-.762Zm-1.65-5.61l-.197.981.011.002.01.002.176-.985Zm-2.068-.616l-.988-.158-.123.765.711.31.4-.917Zm.374-2.332v-1h-.853l-.135.842.988.158Zm3.256-.22l.152.989v0l-.152-.989Zm3.564-.704l-.142-.99-.04.006-.04.009.222.975Zm.308-.066l.274.962v0l-.274-.962Zm.286-.088l.973-.227-.249-1.068-1.041.347.317.948Zm-.836,3.476l.614.79.01-.009-.624-.781Zm-8.756,11.958c-.649,0-.884-.163-.969-.258l-1.495,1.329c.62.697,1.528.929,2.464.929v-2Zm-.969-.258c-.111-.125-.275-.464-.275-1.25h-2c0,.975.187,1.912.78,2.579l1.495-1.329Zm-.275-1.25c0-.66.094-1.704.298-3.161l-1.981-.277c-.206,1.476-.317,2.633-.317,3.438h2Zm.298-3.162c.203-1.466.597-3.931,1.184-7.407l-1.972-.333c-.587,3.476-.985,5.968-1.193,7.465l1.981.275Zm1.094-8.017l-.968-1.958-1.793.887.968,1.958l1.793-.887Zm-1.324-.673c1.303-.837,2.375-1.184,3.244-1.184v-2c-1.391,0-2.841.548-4.325,1.501l1.081,1.683Zm3.244-1.184c.135,0,.207.021.239.034.026.011.035.019.043.03.027.032.126.192.126.652h2c0-.683-.137-1.381-.579-1.921-.474-.577-1.148-.795-1.829-.795v2Zm.408.716c0,.144-.061.636-.228,1.588l1.971.344c.156-.895.257-1.577.257-1.932h-2Zm-.23,1.604c-.145.915-.313,1.89-.502,2.924l1.967.361c.192-1.049.362-2.039.51-2.972l-1.975-.313Zm-.504,2.935c-.338,1.967-.595,3.495-.772,4.585l1.975.32c.175-1.08.431-2.602.768-4.566l-1.971-.339Zm-.773,4.596c-.162,1.072-.253,1.9-.253,2.437h2c0-.372.069-1.069.23-2.139l-1.977-.298Zm-.253,2.437c0,.619.064,1.193.223,1.691l1.905-.609c-.075-.235-.128-.586-.128-1.082h-2Zm.239,1.738c.189.504.491.945.886,1.319l1.377-1.45c-.192-.182-.315-.372-.39-.572l-1.873.703Zm.946-.184c-.596.482-1.221.702-1.901.702v2c1.167,0,2.229-.395,3.158-1.146l-1.257-1.556Zm3.533.68c-.786,0-1.53-.093-2.235-.276l-.502,1.936c.878.228,1.791.34,2.737.34v-2Zm-2.252-.28c-.699-.168-1.402-.442-2.108-.829l-.96,1.755c.848.464,1.715.806,2.6,1.019l.468-1.945Zm-1.601.207l.286-1.782-1.975-.317-.286,1.782l1.975.317Zm-.701-.941h4.73v-2h-4.73v2Zm4.871-.01c1.096-.156,2.144-.423,3.141-.803l-.712-1.869c-.852.324-1.755.556-2.712.692l.283,1.98Zm1.847-1.39c.105.284.158.577.158.884h2c0-.543-.095-1.071-.283-1.579l-1.875.695Zm.158.884c0,.57-.178.888-.456,1.108l1.239,1.569c.837-.66,1.217-1.603,1.217-2.677h-2Zm-.443,1.097c-.309.236-.882.433-1.879.433v2c1.202,0,2.286-.228,3.092-.843l-1.213-1.59Zm-3.441-5.859c-.467,0-1.115-.095-1.969-.319l-.507,1.935c.936.245,1.769.384,2.476.384v-2Zm-1.24.833l.396-2.112-1.965-.369-.396,2.112l1.965.369Zm-.783-1.316c.734.147,1.519.217,2.353.217v-2c-.722,0-1.374-.061-1.96-.178l-.393,1.961Zm2.595.188l1.848-.462-.485-1.941-1.848.462.485,1.941Zm.635-1.19c-.008-.035-.007-.053-.007-.045h2c0-.138-.014-.287-.052-.44l-1.941.485Zm-.007-.045c0,.139.013.288.051.441l1.941-.485c.009.035.008.053.008.044h-2Zm.041.395c0-.002.003.012.003.045h2c0-.142-.012-.29-.042-.438l-1.961.393Zm.003.045c0,.001,0,.001,0,.001s0,0,0,0s0,.001,0,.001s0,0,0,0s0,0,0,.001c0,0,0,0,0,0s0,0,0,0c0,.001,0,.001,0,.001s0,0,0,0s0,.001,0,.001s0,0,0,0s0,0,0,.001c0,0,0,0,0,0s0,0,0,0c0,.001,0,.001,0,.001s0,0,0,0s0,.001,0,.001s0,0,0,0s0,0,0,.001c0,0,0,0,0,0s0,0,0,0c0,.001,0,.001,0,.001s0,0,0,0s0,.001,0,.001s0,0,0,0s0,0,0,.001c0,0,0,0,0,0s0,0,0,0c0,.001,0,.001,0,.001s0,0,0,0s0,.001,0,.001s0,0,0,0s0,0,0,.001c0,0,0,0,0,0s0,0,0,0c0,.001,0,.001,0,.001s0,0,0,0s0,.001,0,.001s0,0,0,0s0,0,0,.001c0,0,0,0,0,0s0,0,0,0c0,.001,0,.001,0,.001s0,0,0,0s0,.001,0,.001s0,0,0,0s0,0,0,.001c0,0,0,0,0,0s0,0,0,0c0,.001,0,.001,0,.001s0,0,0,0s0,.001,0,.001s0,0,0,0s0,0,0,.001c0,0,0,0,0,0s0,0,0,0c0,.001,0,.001,0,.001s0,0,0,0s0,.001,0,.001s0,0,0,0s0,0,0,.001c0,0,0,0,0,0s0,0,0,0c0,.001,0,.001,0,.001s0,0,0,0s0,.001,0,.001s0,0,0,0s0,0,0,.001c0,0,0,0,0,0s0,0,0,0c0,.001,0,.001,0,.001s0,0,0,0s0,.001,0,.001s0,0,0,0s0,0,0,.001c0,0,0,0,0,0s0,0,0,0c0,.001,0,.001,0,.001s0,0,0,0s0,.001,0,.001s0,0,0,0s0,0,0,.001c0,0,0,0,0,0s0,0,0,0c0,.001,0,.001,0,.001s0,0,0,0c0,.001,0,.001,0,.001s0,0,0,0s0,.001,0,.001s0,0,0,0s0,0,0,.001c0,0,0,0,0,0s0,0,0,0c0,.001,0,.001,0,.001s0,0,0,0s0,.001,0,.001s0,0,0,0s0,0,0,.001c0,0,0,0,0,0s0,0,0,0c0,.001,0,.001,0,.001s0,0,0,0s0,.001,0,.001s0,0,0,0s0,0,0,.001c0,0,0,0,0,0s0,0,0,0c0,.001,0,.001,0,.001s0,0,0,0s0,.001,0,.001s0,0,0,0s0,0,0,.001c0,0,0,0,0,0s0,0,0,0c0,.001,0,.001,0,.001s0,0,0,0s0,.001,0,.001s0,0,0,0s0,0,0,.001c0,0,0,0,0,0s0,0,0,0c0,.001,0,.001,0,.001s0,0,0,0s0,.001,0,.001s0,0,0,0s0,0,0,.001c0,0,0,0,0,0s0,0,0,0c0,.001,0,.001,0,.001s0,0,0,0s0,.001,0,.001s0,0,0,0s0,0,0,.001c0,0,0,0,0,0s0,0,0,0c0,.001,0,.001,0,.001s0,0,0,0s0,.001,0,.001s0,0,0,0s0,0,0,.001c0,0,0,0,0,0s0,0,0,0c0,.001,0,.001,0,.001s0,0,0,0s0,.001,0,.001s0,0,0,0s0,0,0,.001c0,0,0,0,0,0s0,0,0,0c0,.001,0,.001,0,.001s0,0,0,0s0,.001,0,.001s0,0,0,0s0,0,0,.001c0,0,0,0,0,0s0,0,0,0c0,.001,0,.001,0,.001s0,0,0,0s0,.001,0,.001s0,0,0,0s0,0,0,.001c0,0,0,0,0,0s0,0,0,0c0,.001,0,.001,0,.001s0,0,0,0s0,.001,0,.001s0,0,0,0s0,0,0,.001c0,0,0,0,0,0s0,0,0,0c0,.001,0,.001,0,.001s0,0,0,0s0,.001,0,.001s0,0,0,0s0,0,0,.001c0,0,0,0,0,0s0,0,0,0c0,.001,0,.001,0,.001s0,0,0,0s0,.001,0,.001s0,0,0,0s0,0,0,.001c0,0,0,0,0,0s0,0,0,0c0,.001,0,.001,0,.001s0,0,0,0s0,.001,0,.001s0,0,0,0s0,0,0,.001c0,0,0,0,0,0s0,0,0,0c0,.001,0,.001,0,.001s0,0,0,0s0,.001,0,.001s0,0,0,0s0,0,0,.001c0,0,0,0,0,0s0,0,0,0c0,.001,0,.001,0,.001s0,0,0,0s0,.001,0,.001s0,0,0,0s0,0,0,.001c0,0,0,0,0,0s0,0,0,0c0,.001,0,.001,0,.001s0,0,0,0s0,.001,0,.001s0,0,0,0s0,0,0,.001c0,0,0,0,0,0s0,0,0,0c0,.001,0,.001,0,.001s0,0,0,0c0,.001,0,.001,0,.001s0,0,0,0s0,.001,0,.001s0,0,0,0s0,0,0,.001c0,0,0,0,0,0s0,0,0,0c0,.001,0,.001,0,.001s0,0,0,0s0,.001,0,.001s0,0,0,0s0,0,0,.001c0,0,0,0,0,0s0,0,0,0c0,.001,0,.001,0,.001s0,0,0,0s0,.001,0,.001s0,0,0,0s0,0,0,.001c0,0,0,0,0,0s0,0,0,0c0,.001,0,.001,0,.001s0,0,0,0s0,.001,0,.001s0,0,0,0s0,0,0,.001c0,0,0,0,0,0s0,0,0,0c0,.001,0,.001,0,.001s0,0,0,0s0,.001,0,.001s0,0,0,0s0,0,0,.001c0,0,0,0,0,0s0,0,0,0c0,.001,0,.001,0,.001s0,0,0,0s0,.001,0,.001s0,0,0,0s0,0,0,.001c0,0,0,0,0,0s0,0,0,0c0,.001,0,.001,0,.001s0,0,0,0s0,.001,0,.001s0,0,0,0s0,0,0,.001c0,0,0,0,0,0s0,0,0,0c0,.001,0,.001,0,.001s0,0,0,0s0,.001,0,.001s0,0,0,0s0,0,0,.001c0,0,0,0,0,0s0,0,0,0c0,.001,0,.001,0,.001s0,0,0,0s0,.001,0,.001s0,0,0,0s0,0,0,.001c0,0,0,0,0,0s0,0,0,0c0,.001,0,.001,0,.001s0,0,0,0s0,.001,0,.001s0,0,0,0s0,0,0,.001c0,0,0,0,0,0s0,0,0,0c0,.001,0,.001,0,.001s0,0,0,0s0,.001,0,.001s0,0,0,0s0,0,0,.001c0,0,0,0,0,0s0,0,0,0c0,.001,0,.001,0,.001s0,0,0,0s0,.001,0,.001s0,0,0,0s0,0,0,.001c0,0,0,0,0,0s0,0,0,0c0,.001,0,.001,0,.001s0,0,0,0s0,.001,0,.001s0,0,0,0s0,0,0,.001c0,0,0,0,0,0s0,0,0,0c0,.001,0,.001,0,.001s0,0,0,0s0,.001,0,.001s0,0,0,0s0,0,0,.001c0,0,0,0,0,0s0,0,0,0c0,.001,0,.001,0,.001s0,0,0,0s0,.001,0,.001s0,0,0,0s0,0,0,.001c0,0,0,0,0,0s0,0,0,0c0,.001,0,.001,0,.001s0,0,0,0s0,.001,0,.001s0,0,0,0s0,0,0,.001c0,0,0,0,0,0s0,0,0,0c0,.001,0,.001,0,.001s0,0,0,0s0,.001,0,.001s0,0,0,0s0,0,0,.001c0,0,0,0,0,0s0,0,0,0c0,.001,0,.001,0,.001s0,0,0,0s0,.001,0,.001s0,0,0,0s0,0,0,.001c0,0,0,0,0,0s0,0,0,0c0,.001,0,.001,0,.001s0,0,0,0c0,.001,0,.001,0,.001s0,0,0,0s0,.001,0,.001s0,0,0,0s0,0,0,.001c0,0,0,0,0,0s0,0,0,0c0,.001,0,.001,0,.001s0,0,0,0s0,.001,0,.001s0,0,0,0s0,0,0,.001c0,0,0,0,0,0s0,0,0,0c0,.001,0,.001,0,.001s0,0,0,0s0,.001,0,.001s0,0,0,0s0,0,0,.001c0,0,0,0,0,0s0,0,0,0c0,.001,0,.001,0,.001s0,0,0,0s0,.001,0,.001s0,0,0,0s0,0,0,.001c0,0,0,0,0,0s0,0,0,0c0,.001,0,.001,0,.001s0,0,0,0s0,.001,0,.001s0,0,0,0s0,0,0,.001c0,0,0,0,0,0s0,0,0,0c0,.001,0,.001,0,.001s0,0,0,0s0,.001,0,.001s0,0,0,0s0,0,0,.001c0,0,0,0,0,0s0,0,0,0c0,.001,0,.001,0,.001s0,0,0,0s0,.001,0,.001s0,0,0,0s0,0,0,.001c0,0,0,0,0,0s0,0,0,0c0,.001,0,.001,0,.001s0,0,0,0s0,.001,0,.001s0,0,0,0s0,0,0,.001c0,0,0,0,0,0s0,0,0,0c0,.001,0,.001,0,.001s0,0,0,0s0,.001,0,.001s0,0,0,0s0,0,0,.001c0,0,0,0,0,0s0,0,0,0c0,.001,0,.001,0,.001s0,0,0,0s0,.001,0,.001s0,0,0,0s0,0,0,.001c0,0,0,0,0,0s0,0,0,0c0,.001,0,.001,0,.001s0,0,0,0s0,.001,0,.001s0,0,0,0s0,0,0,.001c0,0,0,0,0,0s0,0,0,0c0,.001,0,.001,0,.001s0,0,0,0s0,.001,0,.001s0,0,0,0s0,0,0,.001c0,0,0,0,0,0s0,0,0,0c0,.001,0,.001,0,.001s0,0,0,0s0,.001,0,.001s0,0,0,0s0,0,0,.001c0,0,0,0,0,0s0,0,0,0c0,.001,0,.001,0,.001s0,0,0,0s0,.001,0,.001s0,0,0,0s0,0,0,.001c0,0,0,0,0,0s0,0,0,0c0,.001,0,.001,0,.001s0,0,0,0s0,.001,0,.001s0,0,0,0s0,0,0,.001c0,0,0,0,0,0s0,0,0,0c0,.001,0,.001,0,.001s0,0,0,0s0,.001,0,.001s0,0,0,0s0,0,0,.001c0,0,0,0,0,0s0,0,0,0c0,.001,0,.001,0,.001s0,0,0,0s0,.001,0,.001s0,0,0,0s0,0,0,.001c0,0,0,0,0,0s0,0,0,0c0,.001,0,.001,0,.001s0,0,0,0s0,.001,0,.001s0,0,0,0s0,0,0,.001c0,0,0,0,0,0s0,0,0,0c0,.001,0,.001,0,.001s0,0,0,0c0,.001,0,.001,0,.001s0,0,0,0s0,.001,0,.001s0,0,0,0s0,0,0,.001c0,0,0,0,0,0s0,0,0,0c0,.001,0,.001,0,.001s0,0,0,0s0,.001,0,.001s0,0,0,0s0,0,0,.001c0,0,0,0,0,0s0,0,0,0c0,.001,0,.001,0,.001s0,0,0,0s0,.001,0,.001s0,0,0,0s0,0,0,.001c0,0,0,0,0,0s0,0,0,0c0,.001,0,.001,0,.001s0,0,0,0s0,.001,0,.001s0,0,0,0s0,0,0,.001c0,0,0,0,0,0s0,0,0,0c0,.001,0,.001,0,.001s0,0,0,0s0,.001,0,.001s0,0,0,0s0,0,0,.001c0,0,0,0,0,0s0,0,0,0c0,.001,0,.001,0,.001s0,0,0,0s0,.001,0,.001s0,0,0,0s0,0,0,.001c0,0,0,0,0,0s0,0,0,0h2c0,0,0,0,0,0s0,0,0,0c0-.001,0-.001,0-.001s0,0,0,0s0-.001,0-.001s0,0,0,0s0,0,0-.001c0,0,0,0,0,0s0,0,0,0c0-.001,0-.001,0-.001s0,0,0,0s0-.001,0-.001s0,0,0,0s0,0,0-.001c0,0,0,0,0,0s0,0,0,0c0-.001,0-.001,0-.001s0,0,0,0s0-.001,0-.001s0,0,0,0s0,0,0-.001c0,0,0,0,0,0s0,0,0,0c0-.001,0-.001,0-.001s0,0,0,0s0-.001,0-.001s0,0,0,0s0,0,0-.001c0,0,0,0,0,0s0,0,0,0c0-.001,0-.001,0-.001s0,0,0,0s0-.001,0-.001s0,0,0,0s0,0,0-.001c0,0,0,0,0,0s0,0,0,0c0-.001,0-.001,0-.001s0,0,0,0s0-.001,0-.001s0,0,0,0s0,0,0-.001c0,0,0,0,0,0s0,0,0-.001c0,0,0,0,0,0s0,0,0,0c0-.001,0-.001,0-.001s0,0,0,0s0-.001,0-.001s0,0,0,0s0,0,0-.001c0,0,0,0,0,0s0,0,0,0c0-.001,0-.001,0-.001s0,0,0,0s0-.001,0-.001s0,0,0,0s0,0,0-.001c0,0,0,0,0,0s0,0,0,0c0-.001,0-.001,0-.001s0,0,0,0s0-.001,0-.001s0,0,0,0s0,0,0-.001c0,0,0,0,0,0s0,0,0,0c0-.001,0-.001,0-.001s0,0,0,0s0-.001,0-.001s0,0,0,0s0,0,0-.001c0,0,0,0,0,0s0,0,0,0c0-.001,0-.001,0-.001s0,0,0,0s0-.001,0-.001s0,0,0,0s0,0,0-.001c0,0,0,0,0,0s0,0,0,0c0-.001,0-.001,0-.001s0,0,0,0s0-.001,0-.001s0,0,0,0s0,0,0-.001c0,0,0,0,0,0s0,0,0,0c0-.001,0-.001,0-.001s0,0,0,0s0-.001,0-.001s0,0,0,0s0,0,0-.001c0,0,0,0,0,0s0,0,0,0c0-.001,0-.001,0-.001s0,0,0,0s0-.001,0-.001s0,0,0,0s0,0,0-.001c0,0,0,0,0,0s0,0,0,0c0-.001,0-.001,0-.001s0,0,0,0s0-.001,0-.001s0,0,0,0s0,0,0-.001c0,0,0,0,0,0s0,0,0,0c0-.001,0-.001,0-.001s0,0,0,0s0-.001,0-.001s0,0,0,0s0,0,0-.001c0,0,0,0,0,0s0,0,0,0c0-.001,0-.001,0-.001s0,0,0,0s0-.001,0-.001s0,0,0,0s0,0,0-.001c0,0,0,0,0,0s0,0,0,0c0-.001,0-.001,0-.001s0,0,0,0s0-.001,0-.001s0,0,0,0s0,0,0-.001c0,0,0,0,0,0s0,0,0,0c0-.001,0-.001,0-.001s0,0,0,0s0-.001,0-.001s0,0,0,0s0,0,0-.001c0,0,0,0,0,0s0,0,0,0c0-.001,0-.001,0-.001s0,0,0,0s0-.001,0-.001s0,0,0,0s0,0,0-.001c0,0,0,0,0,0s0,0,0,0c0-.001,0-.001,0-.001s0,0,0,0s0-.001,0-.001s0,0,0,0s0,0,0-.001c0,0,0,0,0,0s0,0,0,0c0-.001,0-.001,0-.001s0,0,0,0s0-.001,0-.001s0,0,0,0s0,0,0-.001c0,0,0,0,0,0s0,0,0,0c0-.001,0-.001,0-.001s0,0,0,0s0-.001,0-.001s0,0,0,0s0,0,0-.001c0,0,0,0,0,0s0,0,0,0c0-.001,0-.001,0-.001s0,0,0,0s0-.001,0-.001s0,0,0,0s0,0,0-.001c0,0,0,0,0,0s0,0,0-.001c0,0,0,0,0,0s0,0,0,0c0-.001,0-.001,0-.001s0,0,0,0s0-.001,0-.001s0,0,0,0s0,0,0-.001c0,0,0,0,0,0s0,0,0,0c0-.001,0-.001,0-.001s0,0,0,0s0-.001,0-.001s0,0,0,0s0,0,0-.001c0,0,0,0,0,0s0,0,0,0c0-.001,0-.001,0-.001s0,0,0,0s0-.001,0-.001s0,0,0,0s0,0,0-.001c0,0,0,0,0,0s0,0,0,0c0-.001,0-.001,0-.001s0,0,0,0s0-.001,0-.001s0,0,0,0s0,0,0-.001c0,0,0,0,0,0s0,0,0,0c0-.001,0-.001,0-.001s0,0,0,0s0-.001,0-.001s0,0,0,0s0,0,0-.001c0,0,0,0,0,0s0,0,0,0c0-.001,0-.001,0-.001s0,0,0,0s0-.001,0-.001s0,0,0,0s0,0,0-.001c0,0,0,0,0,0s0,0,0,0c0-.001,0-.001,0-.001s0,0,0,0s0-.001,0-.001s0,0,0,0s0,0,0-.001c0,0,0,0,0,0s0,0,0,0c0-.001,0-.001,0-.001s0,0,0,0s0-.001,0-.001s0,0,0,0s0,0,0-.001c0,0,0,0,0,0s0,0,0,0c0-.001,0-.001,0-.001s0,0,0,0s0-.001,0-.001s0,0,0,0s0,0,0-.001c0,0,0,0,0,0s0,0,0,0c0-.001,0-.001,0-.001s0,0,0,0s0-.001,0-.001s0,0,0,0s0,0,0-.001c0,0,0,0,0,0s0,0,0,0c0-.001,0-.001,0-.001s0,0,0,0s0-.001,0-.001s0,0,0,0s0,0,0-.001c0,0,0,0,0,0s0,0,0,0c0-.001,0-.001,0-.001s0,0,0,0s0-.001,0-.001s0,0,0,0s0,0,0-.001c0,0,0,0,0,0s0,0,0,0c0-.001,0-.001,0-.001s0,0,0,0s0-.001,0-.001s0,0,0,0s0,0,0-.001c0,0,0,0,0,0s0,0,0,0c0-.001,0-.001,0-.001s0,0,0,0s0-.001,0-.001s0,0,0,0s0,0,0-.001c0,0,0,0,0,0s0,0,0,0c0-.001,0-.001,0-.001s0,0,0,0s0-.001,0-.001s0,0,0,0s0,0,0-.001c0,0,0,0,0,0s0,0,0,0c0-.001,0-.001,0-.001s0,0,0,0s0-.001,0-.001s0,0,0,0s0,0,0-.001c0,0,0,0,0,0s0,0,0,0c0-.001,0-.001,0-.001s0,0,0,0s0-.001,0-.001s0,0,0,0s0,0,0-.001c0,0,0,0,0,0s0,0,0,0c0-.001,0-.001,0-.001s0,0,0,0s0-.001,0-.001s0,0,0,0s0,0,0-.001c0,0,0,0,0,0s0,0,0-.001c0,0,0,0,0,0s0,0,0,0c0-.001,0-.001,0-.001s0,0,0,0s0-.001,0-.001s0,0,0,0s0,0,0-.001c0,0,0,0,0,0s0,0,0,0c0-.001,0-.001,0-.001s0,0,0,0s0-.001,0-.001s0,0,0,0s0,0,0-.001c0,0,0,0,0,0s0,0,0,0c0-.001,0-.001,0-.001s0,0,0,0s0-.001,0-.001s0,0,0,0s0,0,0-.001c0,0,0,0,0,0s0,0,0,0c0-.001,0-.001,0-.001s0,0,0,0s0-.001,0-.001s0,0,0,0s0,0,0-.001c0,0,0,0,0,0s0,0,0,0c0-.001,0-.001,0-.001s0,0,0,0s0-.001,0-.001s0,0,0,0s0,0,0-.001c0,0,0,0,0,0s0,0,0,0c0-.001,0-.001,0-.001s0,0,0,0s0-.001,0-.001s0,0,0,0s0,0,0-.001c0,0,0,0,0,0s0,0,0,0c0-.001,0-.001,0-.001s0,0,0,0s0-.001,0-.001s0,0,0,0s0,0,0-.001c0,0,0,0,0,0s0,0,0,0c0-.001,0-.001,0-.001s0,0,0,0s0-.001,0-.001s0,0,0,0s0,0,0-.001c0,0,0,0,0,0s0,0,0,0c0-.001,0-.001,0-.001s0,0,0,0s0-.001,0-.001s0,0,0,0s0,0,0-.001c0,0,0,0,0,0s0,0,0,0c0-.001,0-.001,0-.001s0,0,0,0s0-.001,0-.001s0,0,0,0s0,0,0-.001c0,0,0,0,0,0s0,0,0,0c0-.001,0-.001,0-.001s0,0,0,0s0-.001,0-.001s0,0,0,0s0,0,0-.001c0,0,0,0,0,0s0,0,0,0c0-.001,0-.001,0-.001s0,0,0,0s0-.001,0-.001s0,0,0,0s0,0,0-.001c0,0,0,0,0,0s0,0,0,0c0-.001,0-.001,0-.001s0,0,0,0s0-.001,0-.001s0,0,0,0s0,0,0-.001c0,0,0,0,0,0s0,0,0,0c0-.001,0-.001,0-.001s0,0,0,0s0-.001,0-.001s0,0,0,0s0,0,0-.001c0,0,0,0,0,0s0,0,0,0c0-.001,0-.001,0-.001s0,0,0,0s0-.001,0-.001s0,0,0,0s0,0,0-.001c0,0,0,0,0,0s0,0,0,0c0-.001,0-.001,0-.001s0,0,0,0s0-.001,0-.001s0,0,0,0s0,0,0-.001c0,0,0,0,0,0s0,0,0,0c0-.001,0-.001,0-.001s0,0,0,0s0-.001,0-.001s0,0,0,0s0,0,0-.001c0,0,0,0,0,0s0,0,0,0c0-.001,0-.001,0-.001s0,0,0,0s0-.001,0-.001s0,0,0,0s0,0,0-.001c0,0,0,0,0,0s0,0,0-.001c0,0,0,0,0,0s0,0,0,0c0-.001,0-.001,0-.001s0,0,0,0s0-.001,0-.001s0,0,0,0s0,0,0-.001c0,0,0,0,0,0s0,0,0,0c0-.001,0-.001,0-.001s0,0,0,0s0-.001,0-.001s0,0,0,0s0,0,0-.001c0,0,0,0,0,0s0,0,0,0c0-.001,0-.001,0-.001s0,0,0,0s0-.001,0-.001s0,0,0,0s0,0,0-.001c0,0,0,0,0,0s0,0,0,0c0-.001,0-.001,0-.001s0,0,0,0s0-.001,0-.001s0,0,0,0s0,0,0-.001c0,0,0,0,0,0s0,0,0,0c0-.001,0-.001,0-.001s0,0,0,0s0-.001,0-.001s0,0,0,0s0,0,0-.001c0,0,0,0,0,0s0,0,0,0c0-.001,0-.001,0-.001s0,0,0,0s0-.001,0-.001s0,0,0,0s0,0,0-.001c0,0,0,0,0,0s0,0,0,0c0-.001,0-.001,0-.001s0,0,0,0s0-.001,0-.001s0,0,0,0s0,0,0-.001c0,0,0,0,0,0s0,0,0,0c0-.001,0-.001,0-.001s0,0,0,0s0-.001,0-.001s0,0,0,0s0,0,0-.001c0,0,0,0,0,0s0,0,0,0c0-.001,0-.001,0-.001s0,0,0,0s0-.001,0-.001s0,0,0,0s0,0,0-.001c0,0,0,0,0,0s0,0,0,0c0-.001,0-.001,0-.001s0,0,0,0s0-.001,0-.001s0,0,0,0s0,0,0-.001c0,0,0,0,0,0s0,0,0,0c0-.001,0-.001,0-.001s0,0,0,0s0-.001,0-.001s0,0,0,0s0,0,0-.001c0,0,0,0,0,0s0,0,0,0c0-.001,0-.001,0-.001s0,0,0,0s0-.001,0-.001s0,0,0,0s0,0,0-.001h-2Zm0,.22c0,.336-.1.503-.243.625l1.297,1.523c.649-.553.946-1.31.946-2.148h-2Zm-.226.611c-.161.131-.458.259-1.018.259v2c.847,0,1.65-.194,2.281-.708l-1.263-1.551Zm1.226-5.615c-.604,0-1.292-.065-2.069-.204l-.351,1.969c.866.155,1.674.235,2.42.235v-2Zm-2.048-.2c-.758-.152-1.375-.339-1.865-.552l-.799,1.833c.654.285,1.416.509,2.271.68l.393-1.961Zm-1.277.523l.374-2.332-1.975-.317-.374,2.332l1.975.317Zm-.613-1.491c1.255,0,2.393-.075,3.408-.231l-.304-1.977c-.892.137-1.925.208-3.104.208v2Zm3.408-.231c.985-.152,2.197-.392,3.633-.717l-.443-1.951c-1.41.32-2.573.549-3.494.691l.304,1.977Zm3.553-.703c.149-.021.296-.053.441-.094l-.549-1.923c-.06.017-.119.029-.175.037l.283,1.98Zm.441-.094c.115-.033.224-.066.328-.101l-.633-1.897c-.072.024-.153.049-.244.075l.549,1.923Zm-.962-.822c.088.378.128.712.128,1.004h2c0-.47-.064-.958-.181-1.459l-1.947.455Zm.128,1.004c0,.714-.229,1.154-.615,1.464l1.249,1.561c.934-.747,1.366-1.803,1.366-3.025h-2Zm-.604,1.455c-.436.339-1.078.559-2.026.559v2c1.252,0,2.37-.293,3.254-.98l-1.228-1.579Zm5.769,13.131l.748-.664v0l-.748.664Zm-.242-5.192l-.99-.138-.001.009.991.129Zm1.21-7.436l.986.17.055-.321-.144-.292-.897.443Zm-.968-1.958l-.54-.841-.752.483.396.802.896-.444Zm4.444,5.082l-.984-.178-.001.01.985.168Zm-.77,4.576l-.987-.162-.001.011.988.151Zm-.11,3.696l-.974.225.005.023.006.022.963-.27Zm.484.99l.605.797.791-.602-.596-.795-.8.6Zm-2.332-.164c-.649,0-.884-.163-.968-.258l-1.495,1.329c.619.697,1.528.929,2.463.929v-2Zm-.968-.258c-.112-.125-.276-.464-.276-1.25h-2c0,.975.188,1.912.781,2.579l1.495-1.329Zm-.276-1.25c0-.65.088-1.69.278-3.149l-1.983-.258c-.192,1.475-.295,2.621-.295,3.407h2Zm.277-3.139c.203-1.449.603-3.914,1.205-7.405l-1.971-.339c-.602,3.49-1.007,5.983-1.215,7.467l1.981.277Zm1.116-8.018l-.968-1.958-1.793.887.968,1.958l1.793-.887Zm-1.324-.673c1.303-.837,2.375-1.184,3.243-1.184v-2c-1.39,0-2.84.548-4.324,1.501l1.081,1.683Zm3.243-1.184c.135,0,.208.021.24.034.026.011.035.019.043.03.027.032.125.192.125.652h2c0-.683-.136-1.381-.579-1.921-.473-.577-1.147-.795-1.829-.795v2Zm.408.716c0,0,0,.002,0,.008c0,.005,0,.013-.001.023-.001.021-.003.048-.006.083-.007.07-.017.162-.031.278-.03.231-.075.538-.136.925-.123.774-.309,1.844-.558,3.213l1.968.357c.25-1.374.439-2.46.565-3.256.12-.755.199-1.336.199-1.631h-2Zm-.733,4.54c-.338,1.981-.595,3.509-.771,4.582l1.973.325c.176-1.068.432-2.591.769-4.571l-1.971-.336Zm-.773,4.593c-.162,1.058-.254,1.88-.254,2.417h2c0-.371.07-1.06.231-2.115l-1.977-.302Zm-.254,2.417c0,.617.047,1.175.158,1.655l1.949-.449c-.065-.283-.107-.678-.107-1.206h-2Zm.169,1.7c.135.481.35.924.647,1.32l1.6-1.2c-.143-.19-.25-.407-.321-.659l-1.926.539Zm.842-.076c-.581.442-1.15.632-1.727.632v2c1.067,0,2.052-.367,2.937-1.039l-1.21-1.593Zm7.468.004l-.694.72.004.005.69-.725Zm-.506-10.01l-.863-.506-.003.007.866.499Zm3.674-3.586l-.487-.873v0l.487.873Zm8.206-.638l-.515.858.008.004.507-.862Zm.44,3.344l.657.754.006-.005.007-.006-.67-.743Zm-3.674.066l-.515.858v0l.515-.858Zm-1.408-1.562l.89-.454-.407-.798-.838.317.355.935Zm-2.31,1.628l.735.678.007-.007-.742-.671Zm-1.628,2.684l.934.356v0l-.934-.356Zm.176,6.534l-.835.551.006.01.007.009.822-.57Zm4.07.616l.534.846.008-.005.007-.005-.549-.836Zm1.32-1.474l-.877-.48-.005.008-.004.008.886.464Zm.572-2.09v-1h-.945l-.054.944.999.056Zm.638.396l-.874.486.01.018.01.018.854-.522Zm-.418,3.52l-.848-.53-.004.007-.004.006.856.517Zm-1.738,1.672l-.489-.872-.01.006-.011.006.51.86Zm0,3.542l-.707.708.007.007.008.007.692-.722Zm-.11-4.136l-.859-.511-.083.139-.035.158.977.214Zm2.266-3.806l.859.512.289-.486-.267-.499-.881.473Zm-.638-1.188l.881-.473-.088-.163-.14-.121-.653.757Zm-1.606-1.386l-.56-.828-1.084.731.99.854.654-.757Zm1.87-.968l-.347-.938-.007.003.354.935Zm3.036-.066l.682-.731-.682.731Zm-.176,3.168l-.962-.273-.001.002.963.271Zm-.99,3.85l-.976-.217v0l.976.217Zm.198,4.246l.616.788.995-.779-.987-.789-.624.78Zm-6.204-3.618c-1.975,0-3.388-.526-4.371-1.462l-1.379,1.449c1.452,1.381,3.413,2.013,5.75,2.013v-2Zm-4.366-1.458c-.978-.942-1.52-2.285-1.52-4.164h-2c0,2.287.675,4.201,2.132,5.604l1.388-1.44Zm-1.52-4.164c0-1.73.4-3.264,1.186-4.626l-1.732-.999c-.975,1.688-1.454,3.571-1.454,5.625h2Zm1.182-4.62c.804-1.37,1.898-2.439,3.298-3.218l-.973-1.747c-1.709.951-3.064,2.273-4.05,3.953l1.725,1.012Zm3.298-3.218c1.397-.777,2.951-1.172,4.684-1.172v-2c-2.051,0-3.944.471-5.657,1.425l.973,1.747Zm4.684-1.172c1.195,0,2.003.207,2.521.518l1.029-1.715c-.948-.569-2.164-.803-3.55-.803v2Zm2.529.522c.5.295.629.589.629.92h2c0-1.165-.62-2.058-1.615-2.644l-1.014,1.724Zm.629.92c0,.358-.115.605-.353.82l1.341,1.485c.672-.607,1.012-1.401,1.012-2.305h-2Zm-.339.808c-.243.212-.576.348-1.081.348v2c.902,0,1.728-.259,2.395-.84l-1.314-1.508Zm-1.081.348c-.529,0-.995-.129-1.422-.385l-1.029,1.715c.747.448,1.571.67,2.451.67v-2Zm-1.422-.385c-.405-.244-.753-.614-1.032-1.159l-1.781.909c.426.834,1.017,1.504,1.784,1.965l1.029-1.715Zm-2.277-1.64c-1.017.386-1.915,1.028-2.697,1.893l1.484,1.341c.597-.661,1.238-1.104,1.922-1.364l-.709-1.87Zm-2.691,1.886c-.783.85-1.39,1.857-1.827,3.006l1.869.711c.355-.934.834-1.716,1.429-2.362l-1.471-1.355Zm-1.827,3.006c-.441,1.161-.659,2.389-.659,3.677h2c0-1.058.178-2.044.528-2.966l-1.869-.711Zm-.659,3.677c0,1.474.275,2.763.935,3.763l1.669-1.102c-.366-.554-.604-1.406-.604-2.661h-2Zm.948,3.782c.717,1.036,1.76,1.574,3.022,1.574v-2c-.615,0-1.039-.224-1.378-.713l-1.644,1.139Zm3.022,1.574c.869,0,1.679-.224,2.404-.682l-1.068-1.691c-.39.246-.827.373-1.336.373v2Zm2.419-.692c.706-.464,1.259-1.086,1.657-1.846l-1.772-.928c-.247.473-.574.834-.984,1.103l1.099,1.671Zm1.648-1.829c.416-.76.642-1.605.693-2.514l-1.997-.113c-.036.645-.192,1.194-.45,1.666l1.754.961Zm-.305-1.571c-.026,0-.09-.008-.159-.051-.066-.041-.085-.081-.077-.067l1.748-.971c-.305-.549-.835-.911-1.512-.911v2Zm-.216-.082c.018.028.096.209.096.688h2c0-.605-.084-1.232-.389-1.731l-1.707,1.043Zm.096.688c0,.65-.168,1.237-.508,1.78l1.696,1.06c.54-.864.812-1.818.812-2.84h-2Zm-.516,1.793c-.334.553-.785.989-1.371,1.317l.977,1.745c.881-.493,1.589-1.172,2.106-2.027l-1.712-1.035Zm-1.392,1.329c-.561.332-1.169.498-1.844.498v2c1.026,0,1.987-.259,2.863-.777l-1.019-1.721Zm2.182,3.908c-.646,0-.896-.147-.98-.228l-1.384,1.444c.619.594,1.484.784,2.364.784v-2Zm-.965-.213c-.084-.083-.213-.29-.213-.811h-2c0,.829.208,1.634.799,2.226l1.414-1.415Zm-.213-.811c0-.425.11-1.205.372-2.403l-1.953-.429c-.265,1.207-.419,2.172-.419,2.832h2Zm.255-2.106l2.266-3.806-1.718-1.023-2.266,3.806l1.718,1.023Zm2.288-4.791l-.638-1.188-1.762.947.638,1.188l1.762-.947Zm-.866-1.472l-1.606-1.386-1.307,1.514l1.606,1.386l1.307-1.514Zm-1.7.2c.523-.352,1.077-.639,1.664-.861l-.707-1.871c-.732.277-1.425.635-2.076,1.075l1.119,1.657Zm1.657-.859c.591-.218,1.096-.312,1.524-.312v-2c-.717,0-1.459.156-2.217.436l.693,1.876Zm1.524-.312c.223,0,.368.022.454.044.086.023.074.037.029-.005l1.365-1.462c-.509-.475-1.23-.577-1.848-.577v2Zm.483.039c-.034-.031-.032-.05-.02-.014.013.043.033.134.033.295h2c0-.594-.136-1.265-.648-1.743l-1.365,1.462Zm.013.281c0-.01-.012.12-.1.498-.08.338-.201.798-.368,1.385l1.924.547c.17-.601.301-1.094.391-1.475.08-.341.153-.695.153-.955h-2Zm-.469,1.885c-.428,1.522-.763,2.824-1.003,3.904l1.952.434c.229-1.031.554-2.296.976-3.796l-1.925-.542Zm-1.003,3.904c-.245,1.102-.376,2.095-.376,2.967h2c0-.682.103-1.522.328-2.533l-1.952-.434Zm-.376,2.967c0,.853.222,1.715.925,2.277l1.249-1.561c-.03-.025-.174-.16-.174-.716h-2Zm.933.709c-.517.405-1.03.579-1.561.579v2c1.024,0,1.963-.353,2.794-1.004l-1.233-1.575Zm17.66-2.513l-.747.665.747-.665Zm-.22-5.192l.99.14v-.001l-.99-.139Zm1.21-7.458l.986.169.056-.325-.15-.295-.892.451Zm-.99-1.958l-.54-.841-.759.487.407.806.892-.452Zm4.95,2.134l-.985-.172-.001.008-.002.008.988.156Zm-.506,2.948l-.984-.18-.002.011.986.169Zm-.77,4.576l-.987-.16-.002.011.989.149Zm-.11,3.718l-.974.225.005.023.006.022.963-.27Zm.484.99l.605.797.791-.602-.596-.795-.8.6Zm-13.772.242l.747-.664v0l-.747.664Zm-.242-5.192l-.99-.138-.002.009.992.129Zm1.21-7.458l.986.169.055-.32-.145-.292-.896.443Zm-.968-1.958l-.54-.841-.753.483.397.802.896-.444Zm4.95,2.134l-.985-.172-.001.008-.002.008.988.156Zm-.506,2.948l-.984-.18-.002.011.986.169Zm-.77,4.576l-.987-.16-.002.011.989.149Zm-.11,3.718l-.974.225.005.023.006.022.963-.27Zm.484.99l.605.797.791-.602-.596-.795-.8.6Zm-1.056-8.03v-1h-.829l-.154.816.983.184Zm8.228,0l.986.166.196-1.166h-1.182v1Zm-.374,2.222v1h.846l.14-.834-.986-.166Zm-8.272,0l-.983-.184-.223,1.184h1.206v-1Zm8.866,5.644c-.649,0-.884-.163-.969-.258l-1.494,1.329c.619.697,1.528.929,2.463.929v-2Zm-.969-.258c-.111-.125-.275-.464-.275-1.25h-2c0,.975.188,1.912.781,2.579l1.494-1.329Zm-.275-1.25c0-.66.094-1.696.298-3.138l-1.98-.28c-.207,1.463-.318,2.612-.318,3.418h2Zm.298-3.139c.203-1.45.604-3.922,1.206-7.428l-1.972-.338c-.601,3.506-1.007,6.005-1.214,7.489l1.98.277Zm1.112-8.048l-.99-1.958-1.784.903.99,1.958l1.784-.903Zm-1.342-.665c1.303-.837,2.376-1.184,3.244-1.184v-2c-1.391,0-2.841.548-4.324,1.501l1.08,1.683Zm3.244-1.184c.135,0,.208.021.24.034.025.011.034.019.043.03.027.032.125.192.125.652h2c0-.683-.136-1.381-.579-1.921-.474-.577-1.148-.795-1.829-.795v2Zm.408.716c0,.144-.061.636-.227,1.588l1.97.344c.156-.895.257-1.577.257-1.932h-2Zm-.23,1.604c-.145.915-.312,1.89-.502,2.924l1.968.361c.192-1.049.362-2.039.51-2.972l-1.976-.313Zm-.504,2.935c-.337,1.967-.594,3.495-.771,4.585l1.974.32c.175-1.08.431-2.602.769-4.566l-1.972-.339Zm-.773,4.596c-.161,1.072-.253,1.9-.253,2.437h2c0-.372.07-1.069.231-2.139l-1.978-.298Zm-.253,2.437c0,.617.047,1.175.158,1.655l1.948-.449c-.065-.283-.106-.678-.106-1.206h-2Zm.169,1.7c.135.481.35.924.647,1.32l1.6-1.2c-.143-.19-.25-.407-.321-.659l-1.926.539Zm.842-.076c-.582.442-1.151.632-1.727.632v2c1.066,0,2.052-.367,2.937-1.039l-1.21-1.593Zm-11.451.632c-.649,0-.884-.163-.969-.258l-1.494,1.329c.619.697,1.528.929,2.463.929v-2Zm-.969-.258c-.111-.125-.275-.464-.275-1.25h-2c0,.975.188,1.912.781,2.579l1.494-1.329Zm-.275-1.25c0-.65.088-1.69.278-3.149l-1.984-.258c-.191,1.475-.294,2.621-.294,3.407h2Zm.276-3.139c.203-1.45.604-3.922,1.206-7.428l-1.972-.338c-.601,3.506-1.007,6.005-1.214,7.489l1.98.277Zm1.116-8.04l-.968-1.958-1.792.887.968,1.958l1.792-.887Zm-1.324-.673c1.303-.837,2.376-1.184,3.244-1.184v-2c-1.391,0-2.841.548-4.324,1.501l1.08,1.683Zm3.244-1.184c.135,0,.208.021.24.034.025.011.034.019.043.03.027.032.125.192.125.652h2c0-.683-.136-1.381-.579-1.921-.474-.577-1.148-.795-1.829-.795v2Zm.408.716c0,.144-.061.636-.227,1.588l1.97.344c.156-.895.257-1.577.257-1.932h-2Zm-.23,1.604c-.145.915-.312,1.89-.502,2.924l1.968.361c.192-1.049.362-2.039.51-2.972l-1.976-.313Zm-.504,2.935c-.337,1.967-.594,3.495-.771,4.585l1.974.32c.175-1.08.431-2.602.769-4.566l-1.972-.339Zm-.773,4.596c-.161,1.072-.253,1.9-.253,2.437h2c0-.372.07-1.069.231-2.139l-1.978-.298Zm-.253,2.437c0,.617.047,1.175.158,1.655l1.948-.449c-.065-.283-.106-.678-.106-1.206h-2Zm.169,1.7c.135.481.35.924.647,1.32l1.6-1.2c-.143-.19-.25-.407-.321-.659l-1.926.539Zm.842-.076c-.582.442-1.151.632-1.727.632v2c1.066,0,2.052-.367,2.937-1.039l-1.21-1.593Zm-.451-6.234h8.228v-2h-8.228v2Zm7.242-1.166l-.374,2.222l1.972.332.374-2.222-1.972-.332Zm.612,1.388h-8.272v2h8.272v-2Zm-7.289,1.185l.418-2.222-1.966-.369-.418,2.222l1.966.369Zm18.955,5.799l-.793.609.006.008.007.008.78-.625Zm-.132-5.808l-.988-.152-.001.007.989.145Zm1.342-7.898l.19-.981-.997-.193-.177.999.984.175Zm3.872.748l.986.172.168-.967-.964-.186-.19.981Zm-.484,2.772l.985.173.001-.001-.986-.172Zm-.858,4.972l.987.165v0l-.987-.165Zm.33,5.038l.59.808.792-.578-.562-.803-.82.573Zm1.188-11.352l-.149.989.016.003.017.002.116-.994Zm-1.716-.308l.197-.98-.009-.002-.188.982Zm-1.694-.264l-.145.99.016.002.016.002.113-.994Zm-1.474-.11v-1h-.105l-.103.022.208.978Zm-3.41.726l-.915.404.329.744.795-.17-.209-.978Zm.418-3.52l.636.772.007-.005.006-.006-.649-.761Zm3.586-.528l-.141.99.014.002.014.002.113-.994Zm1.716.264l.197-.98-.014-.003-.183.983Zm1.694.308l-.154.988.017.003.017.002.12-.993Zm1.452.11l-.03,1l.124.004.121-.027-.215-.977Zm3.41-.748l.911-.413-.335-.737-.79.174.214.976Zm-.44,3.498l-.65-.759-.006.005-.005.005.661.749Zm-7.062,11.76c-.639,0-.866-.171-.957-.284l-1.561,1.249c.613.767,1.545,1.035,2.518,1.035v-2Zm-.944-.268c-.137-.179-.3-.606-.3-1.482h-2c0,1.031.175,1.998.713,2.699l1.587-1.217Zm-.3-1.482c0-.699.115-1.876.364-3.573l-1.979-.29c-.25,1.707-.385,3.008-.385,3.863h2Zm.363-3.566c.262-1.703.708-4.327,1.338-7.875l-1.969-.35c-.631,3.551-1.08,6.193-1.346,7.921l1.977.304Zm.164-7.068l3.872.748.379-1.963-3.872-.748-.379,1.963Zm3.076-.406l-.484,2.772l1.971.344.484-2.772-1.971-.344Zm-.484,2.771c-.381,2.172-.668,3.833-.859,4.981l1.973.329c.19-1.14.475-2.794.856-4.964l-1.97-.346Zm-.859,4.981c-.19,1.138-.3,2.007-.3,2.54h2c0-.346.081-1.061.273-2.211l-1.973-.329Zm-.3,2.54c0,1.271.214,2.403.797,3.236l1.639-1.147c-.239-.34-.436-.983-.436-2.089h-2Zm1.026,1.855c-.625.457-1.2.643-1.742.643v2c1.043,0,2.022-.37,2.922-1.028l-1.18-1.615Zm3.23-11.457c-.427,0-.872-.026-1.335-.081l-.233,1.987c.534.062,1.057.094,1.568.094v-2Zm-1.302-.076c-.464-.071-1.02-.17-1.669-.3l-.393,1.961c.67.134,1.259.24,1.763.316l.299-1.977Zm-1.678-.302c-.636-.121-1.226-.213-1.768-.275l-.227,1.987c.484.055,1.024.139,1.62.253l.375-1.965Zm-1.736-.271c-.545-.08-1.085-.121-1.62-.121v2c.434,0,.876.033,1.329.1l.291-1.979Zm-1.828-.099l-3.41.726.417,1.956l3.41-.726-.417-1.956Zm-2.287,1.301c-.155-.353-.245-.777-.245-1.291h-2c0,.748.131,1.454.415,2.098l1.83-.807Zm-.245-1.291c0-.589.172-.879.384-1.054l-1.271-1.544c-.786.647-1.113,1.574-1.113,2.598h2Zm.397-1.065c.259-.22.7-.399,1.463-.399v-2c-1.055,0-2.022.247-2.761.878l1.298,1.521Zm1.463-.399c.418,0,.862.033,1.333.1l.283-1.98c-.556-.079-1.094-.12-1.616-.12v2Zm1.361.104c.485.055,1.034.14,1.647.254l.365-1.967c-.648-.12-1.244-.212-1.785-.274l-.227,1.987Zm1.633.251c.669.134,1.248.239,1.736.315l.309-1.976c-.451-.07-1.001-.17-1.652-.3l-.393,1.961Zm1.77.32c.514.062,1.028.101,1.542.117l.061-1.999c-.454-.014-.908-.048-1.362-.103l-.241,1.985Zm1.787.094l3.41-.748-.429-1.953-3.41.748.429,1.953Zm2.285-1.311c.15.33.24.748.24,1.28h2c0-.758-.129-1.469-.419-2.107l-1.821.827Zm.24,1.28c0,.513-.159.821-.42,1.045l1.301,1.519c.765-.656,1.119-1.551,1.119-2.564h-2Zm-.431,1.055c-.261.23-.693.409-1.429.409v2c1.054,0,2.016-.26,2.752-.91l-1.323-1.499Z"
							fill="#3eb1c8" />
					</g>
				</g>
				<g id="homepage-u-icon-view2" opacity="0.1">
					<path id="homepage-u-vector_4"
						d="M554.696,323.2v-19.966c.928-.357,1.856-.891,2.413-1.605l6.496,2.318-5.382,12.122c-.928,3.566,1.856,5.348,6.496,5.348s7.61-1.782,6.496-5.348l-4.825-11.231l1.67.535l1.299-3.387-10.951-3.744c0-2.139-1.299-4.278-3.712-5.169-2.227-.892-4.64,0-6.125,1.604l-10.765-3.565-1.299,3.208l2.969,1.07-5.011,11.766c-.928,3.565,1.856,5.348,6.496,5.348s7.61-1.783,6.497-5.348l-4.641-10.518l4.455,1.604c0,2.14,1.299,4.279,3.712,5.17v19.788h-16.705v3.565h37.122v-3.565h-16.705Zm12.807-7.131h-5.568l2.784-6.774l2.784,6.774Zm-23.758-8.913h-5.568l2.784-6.774l2.784,6.774Zm7.425-9.448c.371-.892,1.485-1.427,2.413-1.07.928.356,1.484,1.426,1.113,2.317-.371.892-1.485,1.427-2.413,1.07s-1.485-1.426-1.113-2.317Z"
						fill="#3eb1c8" />
				</g>
			</g>
			<g id="homepage-u-view1">
				<g id="homepage-u-line-view1_to"
					style="offset-path:path('M900,159.873497L630.01,159.873497');offset-rotate:auto">
					<g id="homepage-u-line-view1_tr" transform="rotate(90)">
						<g id="homepage-u-line-view1_ts" transform="scale(0.2,0.2)">
							<g id="homepage-u-line-view1" transform="translate(-630.009491,-159.873497)">
								<g id="homepage-u-line3">
									<path id="homepage-u-vector_5" d="M730.044,145.105h-200.069v1.969h200.069v-1.969Z"
										fill="#005f83" />
								</g>
								<g id="homepage-u-line2">
									<path id="homepage-u-vector_6" d="M730.044,158.889h-200.069v1.969h200.069v-1.969Z"
										fill="#005f83" />
								</g>
								<g id="homepage-u-line1">
									<path id="homepage-u-vector_7" d="M730.044,172.673h-200.069v1.969h200.069v-1.969Z"
										fill="#005f83" />
								</g>
							</g>
						</g>
					</g>
				</g>
				<g id="homepage-u-cost" opacity="0.1">
					<g id="homepage-u-cost2">
						<path id="homepage-s-path3"
							d="M593.654,110.625c-2.4,0-4.275-.65-5.625-1.95-1.333-1.3-2-3.117-2-5.45c0-2.15.483-4.0917,1.45-5.825.983-1.7333,2.325-3.0917,4.025-4.075c1.717-.9833,3.617-1.475,5.7-1.475c1.433,0,2.567.25,3.4.75s1.25,1.175,1.25,2.025c0,.7-.258,1.2833-.775,1.75-.5.4667-1.142.7-1.925.7-.767,0-1.475-.1917-2.125-.575-.65-.4-1.167-1-1.55-1.8-.933.3667-1.775.9833-2.525,1.85-.733.85-1.308,1.8667-1.725,3.05-.417,1.183-.625,2.442-.625,3.775c0,1.55.283,2.767.85,3.65.567.867,1.35,1.3,2.35,1.3.783,0,1.483-.208,2.1-.625.633-.417,1.142-.983,1.525-1.7s.6-1.508.65-2.375c.917,0,1.617.175,2.1.525.483.333.725.858.725,1.575c0,.9-.325,1.725-.975,2.475s-1.533,1.342-2.65,1.775-2.325.65-3.625.65Zm19.736,0c-1.517,0-2.85-.317-4-.95-1.134-.65-2.017-1.55-2.65-2.7-.617-1.167-.925-2.508-.925-4.025c0-2.183.441-4.1167,1.325-5.8.883-1.6833,2.058-2.9833,3.525-3.9c1.466-.9167,3.05-1.375,4.75-1.375c1.016,0,1.75.1667,2.2.5.45.3167.675.8333.675,1.55c0,.25-.025.475-.075.675-.034.1833-.109.4-.225.65-.2-.05-.442-.0917-.725-.125-.284-.05-.525-.075-.725-.075-1.184,0-2.242.3417-3.175,1.025-.917.6833-1.642,1.625-2.175,2.825-.517,1.2-.775,2.533-.775,4c0,1.767.35,3.117,1.05,4.05.716.917,1.691,1.375,2.925,1.375.85,0,1.691-.258,2.525-.775.85-.517,1.575-1.242,2.175-2.175s.983-1.992,1.15-3.175c-1.084-.5-1.867-1.133-2.35-1.9-.467-.7667-.7-1.625-.7-2.575c0-.9.275-1.65.825-2.25.566-.6167,1.266-.925,2.1-.925c1,0,1.783.4167,2.35,1.25.583.8167.875,1.9583.875,3.425c0,2.15-.434,4.092-1.3,5.825-.85,1.733-2.034,3.1-3.55,4.1-1.517.983-3.217,1.475-5.1,1.475Zm21.018,0c-2.217,0-3.909-.292-5.075-.875-1.15-.6-1.725-1.417-1.725-2.45c0-.417.1-.833.3-1.25.216-.417.508-.767.875-1.05.616,1,1.375,1.775,2.275,2.325.916.533,1.958.8,3.125.8c1.166,0,2.108-.192,2.825-.575.733-.383,1.1-.95,1.1-1.7c0-.383-.15-.717-.45-1s-.684-.525-1.15-.725c-.45-.2-1.084-.45-1.9-.75-1.234-.433-2.25-.85-3.05-1.25-.784-.4-1.467-.958-2.05-1.675-.567-.7167-.85-1.6083-.85-2.675c0-1.2333.4-2.2917,1.2-3.175.8-.9,1.891-1.5833,3.275-2.05c1.4-.4667,2.975-.7,4.725-.7c1.2,0,2.25.125,3.15.375.916.25,1.616.6,2.1,1.05.5.45.75.9583.75,1.525c0,.8-.267,1.425-.8,1.875-.534.4333-1.217.65-2.05.65-.8,0-1.509-.225-2.125-.675-.6-.4667-1.067-1.1417-1.4-2.025-1.267.1333-2.292.4417-3.075.925-.784.4667-1.175,1.0333-1.175,1.7c0,.3833.15.7167.45,1c.316.2833.7.525,1.15.725.466.1833,1.116.4167,1.95.7c1.233.417,2.241.817,3.025,1.2.783.383,1.458.917,2.025,1.6.566.683.85,1.55.85,2.6c0,1.133-.375,2.117-1.125,2.95s-1.759,1.475-3.025,1.925c-1.25.45-2.625.675-4.125.675Zm19.665.025c-.916,0-1.575-.25-1.975-.75-.383-.5-.575-1.292-.575-2.375c0-.883.142-2.292.425-4.225.3-1.95.809-4.9417,1.525-8.975l4.4.85-.55,3.15c-.433,2.467-.758,4.35-.975,5.65-.216,1.3-.325,2.2-.325,2.7c0,1.35.234,2.358.7,3.025-.866.633-1.75.95-2.65.95Zm5.65-13.75c-.533,0-1.083-.0333-1.65-.1-.55-.0833-1.2-.2-1.95-.35-.7-.1333-1.341-.2333-1.925-.3-.566-.0833-1.125-.125-1.675-.125l-3.875.825c-.25-.5667-.375-1.2083-.375-1.925c0-.9167.284-1.6083.85-2.075.567-.4833,1.367-.725,2.4-.725.534,0,1.092.0417,1.675.125.584.0667,1.234.1667,1.95.3.75.15,1.392.2667,1.925.35.55.0667,1.1.1083,1.65.125l3.875-.85c.25.55.375,1.1917.375,1.925c0,.8667-.291,1.55-.875,2.05-.566.5-1.358.75-2.375.75Z"
							fill="#3eb1c8" />
						<path id="homepage-s-path4"
							d="M588.029,108.675l-.698.716.004.004.694-.72Zm-.55-11.275l-.87-.4934-.004.0063.874.4871Zm4.025-4.075l-.497-.8677-.004.0021.501.8656Zm9.1-.725l.514-.8575v0l-.514.8575Zm.475,3.775l-.67-.7421-.006.0055-.006.0055.682.7311Zm-4.05.125l-.524.8517.008.0049.008.0048.508-.8614Zm-1.55-1.8l.902-.4321-.402-.8387-.866.34.366.9308Zm-2.525,1.85l-.756-.6544-.001.0012.757.6532Zm-1.725,3.05l-.943-.3321v0l.943.3321Zm.225,7.425l-.842.54.005.007.837-.547Zm4.45.675l-.55-.835-.01.006.56.829Zm1.525-1.7l-.882-.472v0l.882.472Zm.65-2.375v-1h-.944l-.054.942.998.058Zm2.1.525l-.587.81.01.007.009.006.568-.823Zm-.25,4.05l.756.655v0l-.756-.655Zm-2.65,1.775l.362.932v0l-.362-.932Zm-3.625-.35c-2.217,0-3.816-.596-4.932-1.67l-1.387,1.44c1.585,1.526,3.736,2.23,6.319,2.23v-2Zm-4.927-1.666c-1.094-1.067-1.698-2.598-1.698-4.734h-2c0,2.531.729,4.633,2.302,6.166l1.396-1.432Zm-1.698-4.734c0-1.994.446-3.7658,1.323-5.3379l-1.747-.9742c-1.056,1.8945-1.576,4.0061-1.576,6.3121h2Zm1.32-5.3316c.897-1.581,2.112-2.8099,3.656-3.7028l-1.002-1.7312c-1.856,1.0737-3.324,2.5616-4.394,4.4472l1.74.9868Zm3.652-3.7007c1.557-.892,3.284-1.3427,5.203-1.3427v-2c-2.248,0-4.321.5326-6.197,1.6073l.994,1.7354Zm5.203-1.3427c1.332,0,2.264.2349,2.885.6075l1.029-1.715c-1.045-.6274-2.38-.8925-3.914-.8925v2Zm2.885.6075c.584.3501.765.7248.765,1.1675h2c0-1.2573-.652-2.2326-1.736-2.8825l-1.029,1.715Zm.765,1.1675c0,.4189-.14.732-.445,1.0079l1.34,1.4842c.728-.6574,1.105-1.511,1.105-2.4921h-2Zm-.457,1.0189c-.288.2687-.674.4311-1.243.4311v2c.997,0,1.895-.3042,2.607-.9689l-1.364-1.4622Zm-1.243.4311c-.591,0-1.124-.1453-1.617-.4364l-1.016,1.7228c.806.4756,1.691.7136,2.633.7136v-2Zm-1.601-.4267c-.461-.2838-.858-.7249-1.172-1.3804l-1.804.8642c.453.9445,1.089,1.7034,1.928,2.2196l1.048-1.7034Zm-2.44-1.8791c-1.104.4339-2.075,1.155-2.915,2.1264l1.512,1.3088c.659-.762,1.372-1.2741,2.135-1.5736l-.732-1.8616Zm-2.916,2.1276c-.824.9549-1.458,2.0838-1.911,3.3711l1.886.6642c.38-1.0794.896-1.9838,1.539-2.7289l-1.514-1.3064Zm-1.911,3.3711c-.457,1.2961-.682,2.6681-.682,4.1071h2c0-1.227.191-2.373.568-3.4429l-1.886-.6642Zm-.682,4.1071c0,1.656.3,3.086,1.008,4.19l1.684-1.08c-.426-.663-.692-1.666-.692-3.11h-2Zm1.013,4.197c.743,1.137,1.835,1.753,3.187,1.753v-2c-.648,0-1.123-.251-1.513-.847l-1.674,1.094Zm3.187,1.753c.972,0,1.869-.262,2.66-.796l-1.12-1.658c-.442.299-.945.454-1.54.454v2Zm2.649-.79c.783-.514,1.401-1.211,1.858-2.063l-1.764-.944c-.31.581-.709,1.018-1.193,1.337l1.099,1.67Zm1.858-2.063c.456-.854.708-1.788.766-2.789l-1.996-.116c-.043.732-.224,1.381-.534,1.961l1.764.944Zm-.232-1.847c.812,0,1.27.159,1.513.335l1.173-1.62c-.723-.524-1.665-.715-2.686-.715v2Zm1.532.348c.151.105.293.282.293.752h2c0-.963-.342-1.836-1.157-2.398l-1.136,1.646Zm.293.752c0,.634-.221,1.232-.731,1.82l1.512,1.31c.79-.912,1.219-1.964,1.219-3.13h-2Zm-.731,1.82c-.523.604-1.26,1.111-2.256,1.498l.724,1.864c1.237-.48,2.267-1.156,3.044-2.052l-1.512-1.31Zm-2.256,1.498c-.992.385-2.076.582-3.263.582v2c1.413,0,2.745-.236,3.987-.718l-.724-1.864Zm12.473.632l-.498.867.008.005.007.004.483-.876Zm-2.65-2.7l-.884.467.004.008.004.007.876-.482Zm.4-9.825l.885.4647v0l-.885-.4647Zm3.525-3.9l-.53-.848.53.848Zm6.95-.875l-.596.8036.01.0072.01.007.576-.8178Zm.6,2.225l-.971-.2425-.007.0316-.006.032.984.1789Zm-.225.65l-.243.9701.8.2.349-.7472-.906-.4229Zm-.725-.125l-.174.9848.028.005.029.0034.117-.9932Zm-3.9.95l-.591-.8069-.007.0052.598.8017ZM611.19,98.9l-.914-.4062-.005.0107.919.3955Zm.275,8.05l-.8.6.006.008.006.008.788-.616Zm5.45.6l-.52-.855-.007.005.527.85Zm2.175-2.175l.841.541v0l-.841-.541Zm1.15-3.175l.99.139.103-.736-.674-.311-.419.908Zm-2.35-1.9l-.855.52.004.007.005.006.846-.533Zm.125-4.825l-.737-.6766-.001.0009.738.6757Zm4.45.325l-.827.5623.006.0095.007.0094.814-.5812Zm-.425,9.25l-.895-.447-.003.007.898.44Zm-3.55,4.1l.544.839.006-.004-.55-.835Zm-5.1.475c-1.375,0-2.537-.286-3.518-.826l-.965,1.752c1.319.727,2.824,1.074,4.483,1.074v-2Zm-3.503-.817c-.973-.559-1.726-1.325-2.271-2.315l-1.752.964c.721,1.31,1.735,2.344,3.028,3.085l.995-1.734Zm-2.263-2.3c-.53-1.003-.809-2.18-.809-3.558h-2c0,1.655.337,3.161,1.041,4.492l1.768-.934Zm-.809-3.558c0-2.046.412-3.8153,1.21-5.3353l-1.771-.9294c-.969,1.8467-1.439,3.9437-1.439,6.2647h2Zm1.21-5.3353c.809-1.5423,1.868-2.7032,3.17-3.5167l-1.06-1.696c-1.632,1.0198-2.924,2.459-3.881,4.2833l1.771.9294Zm3.17-3.5167c1.31-.8192,2.71-1.223,4.22-1.223v-2c-1.891,0-3.658.5128-5.28,1.527l1.06,1.696Zm4.22-1.223c.955,0,1.418.1658,1.604.3036l1.191-1.6072c-.714-.5289-1.717-.6964-2.795-.6964v2Zm1.624.3178c.106.0744.251.2321.251.7322h2c0-.9332-.306-1.8089-1.1-2.3678l-1.151,1.6356Zm.251.7322c0,.1849-.019.3265-.046.4325l1.941.485c.073-.294.105-.6024.105-.9175h-2Zm-.059.4961c-.013.0692-.052.2003-.148.406l1.813.8458c.137-.2943.248-.5965.302-.894l-1.967-.3578Zm1.001-.1412c-.254-.0635-.54-.1115-.851-.1481l-.233,1.9864c.256.03.453.0654.599.1019l.485-1.9402Zm-.794-.1397c-.318-.0561-.621-.0902-.898-.0902v2c.122,0,.302.0159.551.0598l.347-1.9696Zm-.898-.0902c-1.391,0-2.657.4063-3.766,1.2181l1.181,1.6138c.758-.5548,1.608-.8319,2.585-.8319v-2Zm-3.773,1.2233c-1.074.8002-1.899,1.8873-2.491,3.2206l1.827.8122c.475-1.0667,1.099-1.863,1.859-2.4294l-1.195-1.6034Zm-2.496,3.2312c-.577,1.3394-.856,2.8095-.856,4.3955h2c0-1.347.236-2.544.693-3.6045l-1.837-.791Zm-.856,4.3955c0,1.878.368,3.475,1.25,4.65l1.6-1.2c-.519-.692-.85-1.794-.85-3.45h-2Zm1.262,4.666c.919,1.175,2.193,1.759,3.713,1.759v-2c-.947,0-1.623-.333-2.138-.991l-1.575,1.232Zm3.713,1.759c1.063,0,2.085-.326,3.052-.925l-1.054-1.7c-.7.434-1.362.625-1.998.625v2Zm3.044-.92c.994-.605,1.824-1.443,2.497-2.489l-1.683-1.082c-.527.821-1.147,1.432-1.853,1.861l1.039,1.71Zm2.497-2.489c.684-1.064,1.114-2.261,1.299-3.577l-1.981-.278c-.148,1.051-.485,1.971-1.001,2.773l1.683,1.082Zm.728-4.624c-.963-.444-1.571-.966-1.923-1.5253l-1.692,1.0663c.614.975,1.572,1.719,2.777,2.275l.838-1.816Zm-1.915-1.5119c-.366-.6008-.554-1.2773-.554-2.0551h-2c0,1.1222.278,2.1623.845,3.095l1.709-1.0399Zm-.554-2.0551c0-.6784.199-1.1788.562-1.5743l-1.475-1.3514c-.737.8045-1.087,1.8041-1.087,2.9257h2Zm.561-1.5734c.378-.4117.812-.6016,1.364-.6016v-2c-1.115,0-2.082.4268-2.837,1.2484l1.473,1.3532Zm1.364-.6016c.665,0,1.14.2502,1.523.8123l1.654-1.1246c-.752-1.1046-1.843-1.6877-3.177-1.6877v2Zm1.536.8312c.418.5852.689,1.4937.689,2.8438h2c0-1.5833-.313-2.9581-1.062-4.0062l-1.627,1.1624Zm.689,2.8438c0,2.012-.405,3.798-1.195,5.378l1.789.894c.943-1.887,1.406-3.984,1.406-6.272h-2Zm-1.198,5.385c-.777,1.583-1.845,2.81-3.203,3.705l1.101,1.67c1.675-1.105,2.974-2.612,3.897-4.495l-1.795-.88Zm-3.196,3.701c-1.348.874-2.858,1.314-4.556,1.314v2c2.067,0,3.958-.543,5.644-1.636l-1.088-1.678Zm11.387,1.439l-.463.887.008.004.007.003.448-.894Zm-1.425-3.7l-.888-.461-.007.014-.007.014.902.433Zm.875-1.05l.851-.525-.584-.946-.879.68.612.791Zm2.275,2.325l-.522.853.009.006.01.005.503-.864Zm5.95.225l-.464-.886-.008.004.472.882Zm.65-2.7l.686-.727v0l-.686.727Zm-1.15-.725l-.407.914.013.005.394-.919Zm-1.9-.75l.344-.939-.006-.002-.007-.002-.331.943Zm-3.05-1.25l-.455.891.007.003.448-.894Zm-2.05-1.675l-.785.62.005.006.004.005.776-.631Zm.35-5.85l.741.6713.006-.0069-.747-.6644Zm3.275-2.05l-.317-.9487-.003.0012.32.9475Zm7.875-.325l-.268.9635.004.0013.264-.9648Zm2.1,1.05l-.682.7319.006.0057.007.0057.669-.7433Zm-.05,3.4l.63.7761.007-.0058.007-.006-.644-.7643Zm-4.175-.025l-.614.7894.012.0094.012.009.59-.8078Zm-1.4-2.025l.935-.3531-.272-.7222-.768.0808.105.9945Zm-3.075.925l.511.8591.007-.004.007-.0041-.525-.851Zm-.725,2.7l-.687.727.01.0093.01.0089.667-.7452Zm1.15.725l-.407.9138.02.0089.021.0081.366-.9308Zm1.95.7l-.322.947h.002l.32-.947Zm3.025,1.2l-.44.898v0l.44-.898Zm2.025,1.6l.769-.638v0l-.769.638Zm-.275,5.55l.743.669v0l-.743-.669Zm-3.025,1.925l-.335-.942-.004.001.339.941Zm-4.125-.325c-2.156,0-3.666-.288-4.628-.769l-.895,1.788c1.371.686,3.245.981,5.523.981v-2Zm-4.613-.762c-.92-.479-1.187-1.003-1.187-1.563h-2c0,1.507.882,2.616,2.262,3.337l.925-1.774Zm-1.187-1.563c0-.251.059-.521.201-.817l-1.803-.866c-.258.537-.398,1.101-.398,1.683h2Zm.187-.789c.15-.289.349-.526.599-.72l-1.223-1.582c-.483.373-.868.836-1.151,1.38l1.775.922Zm-.864-.986c.69,1.118,1.556,2.012,2.605,2.653l1.043-1.706c-.751-.459-1.402-1.115-1.945-1.997l-1.703,1.05Zm2.624,2.664c1.084.631,2.302.936,3.628.936v-2c-1.009,0-1.874-.229-2.623-.664l-1.005,1.728Zm3.628.936c1.264,0,2.385-.206,3.296-.693l-.943-1.764c-.522.28-1.284.457-2.353.457v2Zm3.288-.689c.485-.253.905-.598,1.201-1.055.3-.463.436-.985.436-1.531h-2c0,.204-.048.34-.115.444-.071.109-.201.24-.449.37l.927,1.772Zm1.637-2.586c0-.681-.281-1.271-.764-1.727l-1.373,1.454c.117.111.137.187.137.273h2Zm-.764-1.727c-.402-.38-.892-.681-1.443-.917l-.787,1.838c.382.164.66.347.857.533l1.373-1.454Zm-1.43-.912c-.48-.213-1.137-.472-1.962-.775l-.689,1.878c.809.297,1.418.538,1.838.725l.813-1.828Zm-1.975-.779c-1.21-.426-2.185-.827-2.934-1.201l-.895,1.788c.851.426,1.909.858,3.166,1.299l.663-1.886Zm-2.927-1.198c-.653-.333-1.229-.801-1.729-1.4153l-1.551,1.2623c.667.819,1.457,1.468,2.371,1.935l.909-1.782Zm-1.72-1.4042c-.404-.5115-.634-1.1739-.634-2.0548h-2c0,1.2524.336,2.373,1.065,3.295l1.569-1.2402Zm-.634-2.0548c0-.9947.314-1.8112.941-2.5037l-1.483-1.3426c-.972,1.0742-1.458,2.3744-1.458,3.8463h2Zm.947-2.5106c.662-.7451,1.594-1.344,2.847-1.7669l-.639-1.895c-1.513.5105-2.765,1.2782-3.703,2.3331l1.495,1.3288Zm2.844-1.7657c1.281-.4271,2.747-.6487,4.409-.6487v-2c-1.838,0-3.523.245-5.042.7513l.633,1.8974Zm4.409-.6487c1.133,0,2.09.1185,2.882.3385l.535-1.927c-1.008-.28-2.151-.4115-3.417-.4115v2Zm2.886.3398c.825.2248,1.358.5152,1.682.8171l1.363-1.4638c-.642-.5981-1.509-1.0077-2.518-1.2829l-.527,1.9296Zm1.695.8285c.332.2991.419.5517.419.7817h2c0-.9033-.414-1.6674-1.081-2.2683l-1.338,1.4866Zm.419.7817c0,.5535-.172.8797-.445,1.1107l1.289,1.5286c.793-.669,1.156-1.5928,1.156-2.6393h-2Zm-.431,1.0989c-.319.2595-.765.4261-1.419.4261v2c1.012,0,1.933-.2668,2.68-.8739l-1.261-1.5522Zm-1.419.4261c-.599,0-1.099-.1639-1.536-.4828l-1.179,1.6156c.796.5811,1.714.8672,2.715.8672v-2Zm-1.511-.4644c-.424-.3291-.795-.8361-1.079-1.5887l-1.871.7062c.383,1.0141.945,1.8571,1.722,2.4613l1.228-1.5788Zm-2.119-2.2301c-1.362.1434-2.545.4822-3.496,1.0685l1.051,1.702c.616-.3804,1.483-.6582,2.654-.7815l-.209-1.989Zm-3.482,1.0604c-.962.5727-1.663,1.4157-1.663,2.5591h2c0-.1899.081-.4802.686-.8409l-1.023-1.7182ZM632.233,97.25c0,.6811.28,1.2709.763,1.727l1.373-1.454c-.117-.1106-.136-.1874-.136-.273h-2Zm.783,1.7452c.405.3628.88.6579,1.41.8936l.813-1.8276c-.37-.1643-.662-.3525-.89-.5564l-1.333,1.4904Zm1.451.9106c.488.1912,1.155.4312,1.994.7162l.643-1.8938c-.827-.2814-1.46-.509-1.906-.684l-.731,1.8616Zm1.996.7162c1.21.409,2.174.794,2.905,1.151l.879-1.7962c-.836-.4091-1.888-.8247-3.144-1.2492l-.64,1.8944Zm2.905,1.151c.654.32,1.217.764,1.695,1.34l1.539-1.276c-.655-.791-1.442-1.413-2.355-1.8602l-.879,1.7962Zm1.695,1.34c.392.473.62,1.101.62,1.962h2c0-1.239-.339-2.344-1.081-3.238l-1.539,1.276Zm.62,1.962c0,.889-.286,1.634-.869,2.281l1.487,1.338c.917-1.019,1.382-2.242,1.382-3.619h-2Zm-.869,2.281c-.618.687-1.475,1.246-2.616,1.652l.669,1.884c1.393-.494,2.552-1.219,3.434-2.198l-1.487-1.338Zm-2.62,1.653c-1.128.406-2.387.616-3.786.616v2c1.6,0,3.092-.24,4.463-.734l-.677-1.882Zm13.904.891l-.793.608.006.009.007.008.78-.625Zm-.15-6.6l-.988-.152-.001.007.989.145Zm1.525-8.975l.19-.9818-.997-.1926-.177.9995.984.1749Zm4.4.85l.985.172.169-.9676-.964-.1862-.19.9818Zm-.55,3.15l.985.173v-.001l-.985-.172Zm-.975,5.65l.987.164v0l-.987-.164Zm.375,5.725l.59.807.792-.578-.562-.802-.82.573Zm1.35-12.9l-.149.9887.016.0025.017.002.116-.9932Zm-1.95-.35l.197-.9806-.009-.0017-.188.9823Zm-1.925-.3l-.145.9894.016.0023.016.0018.113-.9935Zm-1.675-.125v-1h-.105l-.103.0219.208.9781Zm-3.875.825l-.915.4036.329.7437.795-.1692-.209-.9781Zm.475-4l.636.7719.007-.0055.006-.0056-.649-.7608Zm4.075-.6l-.141.9899.014.002.014.0016.113-.9935Zm1.95.3l.197-.9807-.014-.0024-.183.9831Zm1.925.35l-.154.988.017.0027.017.002.12-.9927Zm1.65.125l-.03.9995.124.0038.121-.0265-.215-.9768Zm3.875-.85l.911-.4138-.335-.7363-.79.1733.214.9768Zm-.5,3.975l-.65-.7593-.006.0047-.005.0048.661.7498Zm-8.025,13.5c-.749,0-1.055-.201-1.194-.375l-1.561,1.25c.661.826,1.672,1.125,2.755,1.125v-2Zm-1.181-.358c-.183-.239-.369-.761-.369-1.767h-2c0,1.161.198,2.222.782,2.983l1.587-1.216Zm-.369-1.767c0-.805.132-2.151.415-4.08l-1.979-.29c-.284,1.938-.436,3.408-.436,4.37h2Zm.414-4.073c.298-1.938.805-4.9201,1.521-8.9521l-1.969-.3498c-.717,4.0346-1.227,7.0359-1.529,8.9979l1.977.304Zm.347-8.1452l4.4.85.379-1.9636-4.4-.85-.379,1.9636Zm3.604-.3038l-.55,3.15l1.97.344.55-3.15-1.97-.344Zm-.55,3.149c-.433,2.467-.759,4.354-.976,5.659l1.973.328c.216-1.295.54-3.175.973-5.641l-1.97-.346Zm-.976,5.659c-.216,1.294-.339,2.27-.339,2.864h2c0-.406.094-1.23.312-2.536l-1.973-.328Zm-.339,2.864c0,1.433.242,2.686.881,3.598l1.639-1.146c-.295-.421-.52-1.185-.52-2.452h-2Zm1.11,2.218c-.729.533-1.41.757-2.06.757v2c1.151,0,2.236-.409,3.24-1.143l-1.18-1.614Zm3.59-12.993c-.491,0-1.002-.0307-1.533-.0932l-.233,1.9864c.602.0709,1.191.1068,1.766.1068v-2Zm-1.5-.0887c-.53-.0803-1.164-.1939-1.903-.3419l-.393,1.9612c.76.152,1.427.2717,1.997.3581l.299-1.9774Zm-1.912-.3436c-.72-.1371-1.387-.2412-1.999-.3112l-.227,1.987c.554.0634,1.171.1592,1.851.2888l.375-1.9646Zm-1.967-.3071c-.613-.0901-1.22-.1356-1.821-.1356v2c.5,0,1.009.0378,1.53.1144l.291-1.9788Zm-2.029-.1137l-3.875.825.417,1.9562l3.875-.825-.417-1.9562Zm-2.752,1.3995c-.185-.4211-.29-.9221-.29-1.5214h-2c0,.834.146,1.6164.46,2.3286l1.83-.8072Zm-.29-1.5214c0-.699.206-1.0725.486-1.3031l-1.271-1.5438c-.854.7027-1.215,1.7125-1.215,2.8469h2Zm.499-1.3142c.327-.2783.864-.4858,1.751-.4858v-2c-1.179,0-2.242.2759-3.049.9642l1.298,1.5216Zm1.751-.4858c.482,0,.993.0376,1.534.1149l.283-1.9799c-.626-.0893-1.231-.135-1.817-.135v2Zm1.562.1185c.555.0635,1.182.1596,1.88.2896l.366-1.9662c-.734-.1367-1.408-.2406-2.019-.3104l-.227,1.987Zm1.867.2871c.759.1517,1.415.2712,1.967.3574l.309-1.976c-.515-.0805-1.142-.1943-1.883-.3426l-.393,1.9612Zm2.001.3621c.58.0703,1.16.1143,1.74.1318l.061-1.999c-.52-.0158-1.04-.0552-1.56-.1182l-.241,1.9854Zm1.985.1091l3.875-.85-.429-1.9536-3.875.85.429,1.9536Zm2.75-1.413c.18.3953.285.8907.285,1.5112h2c0-.8462-.144-1.6341-.464-2.3388l-1.821.8276Zm.285,1.5112c0,.6166-.194,1.0064-.525,1.2907l1.301,1.5186c.835-.7157,1.224-1.6925,1.224-2.8093h-2Zm-.536,1.3002c-.329.2902-.856.4998-1.714.4998v2c1.176,0,2.233-.2904,3.037-1.0002l-1.323-1.4996Z"
							fill="#3eb1c8" />
					</g>
				</g>
				<g id="homepage-u-icon-view1" opacity="0.1">
					<path id="homepage-u-vector_8"
						d="M549.147,86.6962c-10.263,0-18.585,7.9823-18.585,17.8268c0,9.845,8.322,17.827,18.585,17.827c10.264,0,18.586-7.982,18.586-17.827c0-9.8445-8.322-17.8268-18.586-17.8268Zm0,32.6298c-8.521,0-15.432-6.63-15.432-14.803c0-8.1732,6.911-14.8026,15.432-14.8026s15.433,6.6294,15.433,14.8026c0,8.173-6.912,14.803-15.433,14.803Z"
						fill="#3eb1c8" />
					<path id="homepage-u-vector_9"
						d="M549.147,89.7203c-8.521,0-15.432,6.6294-15.432,14.8027c0,8.173,6.911,14.803,15.432,14.803s15.433-6.63,15.433-14.803c0-8.1733-6.912-14.8027-15.433-14.8027Zm6.057,23.1627c0,.175-.149.319-.332.319h-11.358c-.183,0-.332-.144-.332-.319v-1.532c0-.147.104-.274.253-.31c1.825-.434,3.02-1.95,3.02-3.748c0-.585-.104-1.17-.245-1.759h-2.787c-.183,0-.332-.143-.332-.319v-1.193c0-.175.149-.319.332-.319h2.227c-.323-.998-.605-2.017-.605-3.068c0-3.0159,2.431-4.7867,6.285-4.7867c1.099,0,2.132.2189,2.916.5054.129.0478.216.1671.216.2984v1.5718c0,.0508-.013.101-.037.1462-.024.0453-.059.0843-.102.1139s-.093.0489-.145.0563c-.052.0073-.106.0026-.156-.0139-.743-.2547-1.618-.4179-2.506-.4179-2.211,0-3.621,1.0585-3.621,2.7935c0,.983.257,1.906.556,2.805h4.646c.182,0,.332.144.332.319v1.193c0,.176-.15.319-.332.319h-4.091c.129.525.22,1.07.22,1.631c0,1.62-.684,2.941-1.821,3.625v.187h7.467c.183,0,.332.144.332.319v1.583v0Z"
						fill="#3eb1c8" fill-opacity="0.15" />
					<path id="homepage-u-vector_10"
						d="M554.872,110.981h-7.467v-.187c1.137-.684,1.821-2.005,1.821-3.625c0-.561-.091-1.106-.22-1.631h4.091c.182,0,.332-.144.332-.319v-1.193c0-.175-.15-.319-.332-.319h-4.647c-.298-.899-.555-1.822-.555-2.805c0-1.735,1.41-2.7935,3.621-2.7935.888,0,1.763.1632,2.506.4178.05.0166.103.0213.156.014.052-.0074.102-.0267.145-.0563s.078-.0687.102-.1139.037-.0954.037-.1462v-1.5718c0-.1313-.088-.2507-.216-.2984-.784-.2865-1.817-.5054-2.917-.5054-3.853,0-6.284,1.7708-6.284,4.7867c0,1.051.282,2.07.605,3.068h-2.228c-.182,0-.331.144-.331.319v1.193c0,.176.149.319.331.319h2.788c.141.589.245,1.174.245,1.759c0,1.798-1.195,3.314-3.02,3.748-.149.036-.253.163-.253.31v1.532c0,.175.149.319.332.319h11.358c.183,0,.332-.144.332-.319v-1.583c0-.175-.149-.319-.332-.319Z"
						fill="#3eb1c8" />
				</g>
			</g>
		</g>
		<g id="homepage-u-traingles" transform="translate(0 0)">
			<g id="homepage-u-traingle3_ts" transform="translate(705.263489,230.499992) scale(0.5,0.5)">
				<g id="homepage-u-traingle3" transform="translate(-705.263489,-230.499992)">
					<path id="homepage-u-vector_26"
						d="M728.249,254.269h-45.968c-.316.001-.626-.089-.899-.261-.274-.172-.501-.42-.659-.72-.158-.299-.24-.639-.24-.984.001-.346.085-.685.243-.984l22.985-43.606c.079-.151.176-.29.288-.414l.005-.005.002-.002c.251-.273.573-.458.922-.528.023-.005.046-.009.07-.013.088-.014.177-.021.267-.021v0c.315-.002.626.088.899.26.273.173.499.422.655.723l22.984,43.606c.158.299.241.638.241.983s-.083.684-.241.983c-.157.299-.384.547-.657.72-.272.172-.582.263-.897.263v0Z"
						fill="#005f83" />
				</g>
			</g>
			<g id="homepage-u-traingle2_ts" transform="translate(630.922516,232.876984) scale(0.5,0.5)">
				<g id="homepage-u-traingle2" transform="translate(-630.922516,-232.876984)">
					<path id="homepage-u-vector_27"
						d="M653.908,256.646h-45.968c-.316.001-.626-.089-.899-.261-.274-.172-.501-.42-.659-.72-.158-.299-.24-.639-.24-.984.001-.346.085-.685.243-.984l22.985-43.606c.079-.151.176-.29.288-.414l.005-.005.002-.002c.251-.273.573-.458.922-.528.023-.005.046-.009.07-.013.088-.014.177-.021.267-.021v0c.315-.002.626.088.899.26.273.173.499.422.655.723l22.984,43.606c.158.299.241.638.241.983s-.083.684-.241.983c-.157.299-.384.547-.657.72-.272.172-.582.263-.897.263v0Z"
						fill="#005f83" />
				</g>
			</g>
			<g id="homepage-u-triangle1_ts" transform="translate(555.342499,232.876984) scale(0.5,0.5)">
				<g id="homepage-u-triangle1" transform="translate(-555.342499,-232.876984)">
					<path id="homepage-u-vector_28"
						d="M578.328,256.646h-45.968c-.316.001-.626-.089-.899-.261-.274-.172-.501-.42-.659-.72-.158-.299-.24-.639-.24-.984.001-.346.085-.685.243-.984l22.985-43.606c.079-.151.176-.29.288-.414l.005-.005.002-.002c.251-.273.573-.458.922-.528.023-.005.046-.009.07-.013.088-.014.178-.021.267-.021v0c.315-.002.626.088.899.26.273.173.499.422.655.723l22.984,43.606c.158.299.241.638.241.983s-.083.684-.241.983c-.157.299-.384.547-.657.72-.272.172-.582.263-.897.263v0Z"
						fill="#005f83" />
				</g>
			</g>
		</g>
	</g>
</svg>
